  0
SECTION
  2
HEADER
  9
$ACADVER
  1
AC1027
  9
$ACADMAINTVER
 70
105
  9
$DWGCODEPAGE
  3
ANSI_1252
  9
$LASTSAVEDBY
  1
ezdxf
  9
$REQUIREDVERSIONS
160
0
  9
$INSBASE
 10
0.0
 20
0.0
 30
0.0
  9
$EXTMIN
 10
1e+20
 20
1e+20
 30
1e+20
  9
$EXTMAX
 10
-1e+20
 20
-1e+20
 30
-1e+20
  9
$LIMMIN
 10
0.0
 20
0.0
  9
$LIMMAX
 10
420.0
 20
297.0
  9
$ORTHOMODE
 70
0
  9
$REGENMODE
 70
1
  9
$FILLMODE
 70
1
  9
$QTEXTMODE
 70
0
  9
$MIRRTEXT
 70
1
  9
$LTSCALE
 40
1.0
  9
$ATTMODE
 70
1
  9
$TEXTSIZE
 40
2.5
  9
$TRACEWID
 40
1.0
  9
$TEXTSTYLE
  7
Standard
  9
$CLAYER
  8
0
  9
$CELTYPE
  6
ByLayer
  9
$CECOLOR
 62
256
  9
$CELTSCALE
 40
1.0
  9
$DISPSILH
 70
0
  9
$DIMSCALE
 40
1.0
  9
$DIMASZ
 40
2.5
  9
$DIMEXO
 40
0.625
  9
$DIMDLI
 40
3.75
  9
$DIMRND
 40
0.0
  9
$DIMDLE
 40
0.0
  9
$DIMEXE
 40
1.25
  9
$DIMTP
 40
0.0
  9
$DIMTM
 40
0.0
  9
$DIMTXT
 40
2.5
  9
$DIMCEN
 40
2.5
  9
$DIMTSZ
 40
0.0
  9
$DIMTOL
 70
0
  9
$DIMLIM
 70
0
  9
$DIMTIH
 70
0
  9
$DIMTOH
 70
0
  9
$DIMSE1
 70
0
  9
$DIMSE2
 70
0
  9
$DIMTAD
 70
1
  9
$DIMZIN
 70
8
  9
$DIMBLK
  1

  9
$DIMASO
 70
1
  9
$DIMSHO
 70
1
  9
$DIMPOST
  1

  9
$DIMAPOST
  1

  9
$DIMALT
 70
0
  9
$DIMALTD
 70
3
  9
$DIMALTF
 40
0.03937007874
  9
$DIMLFAC
 40
1.0
  9
$DIMTOFL
 70
1
  9
$DIMTVP
 40
0.0
  9
$DIMTIX
 70
0
  9
$DIMSOXD
 70
0
  9
$DIMSAH
 70
0
  9
$DIMBLK1
  1

  9
$DIMBLK2
  1

  9
$DIMSTYLE
  2
ISO-25
  9
$DIMCLRD
 70
0
  9
$DIMCLRE
 70
0
  9
$DIMCLRT
 70
0
  9
$DIMTFAC
 40
1.0
  9
$DIMGAP
 40
0.625
  9
$DIMJUST
 70
0
  9
$DIMSD1
 70
0
  9
$DIMSD2
 70
0
  9
$DIMTOLJ
 70
0
  9
$DIMTZIN
 70
8
  9
$DIMALTZ
 70
0
  9
$DIMALTTZ
 70
0
  9
$DIMUPT
 70
0
  9
$DIMDEC
 70
2
  9
$DIMTDEC
 70
2
  9
$DIMALTU
 70
2
  9
$DIMALTTD
 70
3
  9
$DIMTXSTY
  7
Standard
  9
$DIMAUNIT
 70
0
  9
$DIMADEC
 70
0
  9
$DIMALTRND
 40
0.0
  9
$DIMAZIN
 70
0
  9
$DIMDSEP
 70
44
  9
$DIMATFIT
 70
3
  9
$DIMFRAC
 70
0
  9
$DIMLDRBLK
  1

  9
$DIMLUNIT
 70
2
  9
$DIMLWD
 70
-2
  9
$DIMLWE
 70
-2
  9
$DIMTMOVE
 70
0
  9
$DIMFXL
 40
1.0
  9
$DIMFXLON
 70
0
  9
$DIMJOGANG
 40
0.785398163397
  9
$DIMTFILL
 70
0
  9
$DIMTFILLCLR
 70
0
  9
$DIMARCSYM
 70
0
  9
$DIMLTYPE
  6

  9
$DIMLTEX1
  6

  9
$DIMLTEX2
  6

  9
$DIMTXTDIRECTION
 70
0
  9
$LUNITS
 70
2
  9
$LUPREC
 70
4
  9
$SKETCHINC
 40
1.0
  9
$FILLETRAD
 40
10.0
  9
$AUNITS
 70
0
  9
$AUPREC
 70
2
  9
$MENU
  1
.
  9
$ELEVATION
 40
0.0
  9
$PELEVATION
 40
0.0
  9
$THICKNESS
 40
0.0
  9
$LIMCHECK
 70
0
  9
$CHAMFERA
 40
0.0
  9
$CHAMFERB
 40
0.0
  9
$CHAMFERC
 40
0.0
  9
$CHAMFERD
 40
0.0
  9
$SKPOLY
 70
0
  9
$TDCREATE
 40
2461175.92587963
  9
$TDUCREATE
 40
2458532.153996898
  9
$TDUPDATE
 40
2461175.92587963
  9
$TDUUPDATE
 40
2458532.1544311
  9
$TDINDWG
 40
0.0
  9
$TDUSRTIMER
 40
0.0
  9
$USRTIMER
 70
1
  9
$ANGBASE
 50
0.0
  9
$ANGDIR
 70
0
  9
$PDMODE
 70
0
  9
$PDSIZE
 40
0.0
  9
$PLINEWID
 40
0.0
  9
$SPLFRAME
 70
0
  9
$SPLINETYPE
 70
6
  9
$SPLINESEGS
 70
8
  9
$HANDSEED
  5
1CE
  9
$SURFTAB1
 70
6
  9
$SURFTAB2
 70
6
  9
$SURFTYPE
 70
6
  9
$SURFU
 70
6
  9
$SURFV
 70
6
  9
$UCSBASE
  2

  9
$UCSNAME
  2

  9
$UCSORG
 10
0.0
 20
0.0
 30
0.0
  9
$UCSXDIR
 10
1.0
 20
0.0
 30
0.0
  9
$UCSYDIR
 10
0.0
 20
1.0
 30
0.0
  9
$UCSORTHOREF
  2

  9
$UCSORTHOVIEW
 70
0
  9
$UCSORGTOP
 10
0.0
 20
0.0
 30
0.0
  9
$UCSORGBOTTOM
 10
0.0
 20
0.0
 30
0.0
  9
$UCSORGLEFT
 10
0.0
 20
0.0
 30
0.0
  9
$UCSORGRIGHT
 10
0.0
 20
0.0
 30
0.0
  9
$UCSORGFRONT
 10
0.0
 20
0.0
 30
0.0
  9
$UCSORGBACK
 10
0.0
 20
0.0
 30
0.0
  9
$PUCSBASE
  2

  9
$PUCSNAME
  2

  9
$PUCSORG
 10
0.0
 20
0.0
 30
0.0
  9
$PUCSXDIR
 10
1.0
 20
0.0
 30
0.0
  9
$PUCSYDIR
 10
0.0
 20
1.0
 30
0.0
  9
$PUCSORTHOREF
  2

  9
$PUCSORTHOVIEW
 70
0
  9
$PUCSORGTOP
 10
0.0
 20
0.0
 30
0.0
  9
$PUCSORGBOTTOM
 10
0.0
 20
0.0
 30
0.0
  9
$PUCSORGLEFT
 10
0.0
 20
0.0
 30
0.0
  9
$PUCSORGRIGHT
 10
0.0
 20
0.0
 30
0.0
  9
$PUCSORGFRONT
 10
0.0
 20
0.0
 30
0.0
  9
$PUCSORGBACK
 10
0.0
 20
0.0
 30
0.0
  9
$USERI1
 70
0
  9
$USERI2
 70
0
  9
$USERI3
 70
0
  9
$USERI4
 70
0
  9
$USERI5
 70
0
  9
$USERR1
 40
0.0
  9
$USERR2
 40
0.0
  9
$USERR3
 40
0.0
  9
$USERR4
 40
0.0
  9
$USERR5
 40
0.0
  9
$WORLDVIEW
 70
1
  9
$SHADEDGE
 70
3
  9
$SHADEDIF
 70
70
  9
$TILEMODE
 70
1
  9
$MAXACTVP
 70
64
  9
$PINSBASE
 10
0.0
 20
0.0
 30
0.0
  9
$PLIMCHECK
 70
0
  9
$PEXTMIN
 10
1e+20
 20
1e+20
 30
1e+20
  9
$PEXTMAX
 10
-1e+20
 20
-1e+20
 30
-1e+20
  9
$PLIMMIN
 10
0.0
 20
0.0
  9
$PLIMMAX
 10
420.0
 20
297.0
  9
$UNITMODE
 70
0
  9
$VISRETAIN
 70
1
  9
$PLINEGEN
 70
0
  9
$PSLTSCALE
 70
1
  9
$TREEDEPTH
 70
3020
  9
$CMLSTYLE
  2
Standard
  9
$CMLJUST
 70
0
  9
$CMLSCALE
 40
20.0
  9
$PROXYGRAPHICS
 70
1
  9
$MEASUREMENT
 70
1
  9
$CELWEIGHT
370
-1
  9
$ENDCAPS
280
0
  9
$JOINSTYLE
280
0
  9
$LWDISPLAY
290
0
  9
$INSUNITS
 70
6
  9
$HYPERLINKBASE
  1

  9
$STYLESHEET
  1

  9
$XEDIT
290
1
  9
$CEPSNTYPE
380
0
  9
$PSTYLEMODE
290
1
  9
$FINGERPRINTGUID
  2
{CD55A44F-5B98-4897-B63E-1B5CD230E3BF}
  9
$VERSIONGUID
  2
{7880A32A-7C98-46D2-9430-F21DE86D3B6D}
  9
$EXTNAMES
290
1
  9
$PSVPSCALE
 40
0.0
  9
$OLESTARTUP
290
0
  9
$SORTENTS
280
127
  9
$INDEXCTL
280
0
  9
$HIDETEXT
280
1
  9
$XCLIPFRAME
280
1
  9
$HALOGAP
280
0
  9
$OBSCOLOR
 70
257
  9
$OBSLTYPE
280
0
  9
$INTERSECTIONDISPLAY
280
0
  9
$INTERSECTIONCOLOR
 70
257
  9
$DIMASSOC
280
2
  9
$PROJECTNAME
  1

  9
$CAMERADISPLAY
290
0
  9
$LENSLENGTH
 40
50.0
  9
$CAMERAHEIGHT
 40
0.0
  9
$STEPSPERSEC
 40
24.0
  9
$STEPSIZE
 40
100.0
  9
$3DDWFPREC
 40
2.0
  9
$PSOLWIDTH
 40
0.005
  9
$PSOLHEIGHT
 40
0.08
  9
$LOFTANG1
 40
1.570796326795
  9
$LOFTANG2
 40
1.570796326795
  9
$LOFTMAG1
 40
0.0
  9
$LOFTMAG2
 40
0.0
  9
$LOFTPARAM
 70
7
  9
$LOFTNORMALS
280
1
  9
$LATITUDE
 40
37.795
  9
$LONGITUDE
 40
-122.394
  9
$NORTHDIRECTION
 40
0.0
  9
$TIMEZONE
 70
-8000
  9
$LIGHTGLYPHDISPLAY
280
1
  9
$TILEMODELIGHTSYNCH
280
1
  9
$CMATERIAL
347
20
  9
$SOLIDHIST
280
0
  9
$SHOWHIST
280
1
  9
$DWFFRAME
280
2
  9
$DGNFRAME
280
2
  9
$REALWORLDSCALE
290
1
  9
$INTERFERECOLOR
 62
256
  9
$CSHADOW
280
0
  9
$SHADOWPLANELOCATION
 40
0.0
  0
ENDSEC
  0
SECTION
  2
CLASSES
  0
CLASS
  1
ACDBDICTIONARYWDFLT
  2
AcDbDictionaryWithDefault
  3
ObjectDBX Classes
 90
0
 91
0
280
0
281
0
  0
CLASS
  1
SUN
  2
AcDbSun
  3
SCENEOE
 90
1153
 91
0
280
0
281
0
  0
CLASS
  1
VISUALSTYLE
  2
AcDbVisualStyle
  3
ObjectDBX Classes
 90
4095
 91
0
280
0
281
0
  0
CLASS
  1
MATERIAL
  2
AcDbMaterial
  3
ObjectDBX Classes
 90
1153
 91
0
280
0
281
0
  0
CLASS
  1
SCALE
  2
AcDbScale
  3
ObjectDBX Classes
 90
1153
 91
0
280
0
281
0
  0
CLASS
  1
TABLESTYLE
  2
AcDbTableStyle
  3
ObjectDBX Classes
 90
4095
 91
0
280
0
281
0
  0
CLASS
  1
MLEADERSTYLE
  2
AcDbMLeaderStyle
  3
ACDB_MLEADERSTYLE_CLASS
 90
4095
 91
0
280
0
281
0
  0
CLASS
  1
DICTIONARYVAR
  2
AcDbDictionaryVar
  3
ObjectDBX Classes
 90
0
 91
0
280
0
281
0
  0
CLASS
  1
CELLSTYLEMAP
  2
AcDbCellStyleMap
  3
ObjectDBX Classes
 90
1152
 91
0
280
0
281
0
  0
CLASS
  1
MENTALRAYRENDERSETTINGS
  2
AcDbMentalRayRenderSettings
  3
SCENEOE
 90
1024
 91
0
280
0
281
0
  0
CLASS
  1
ACDBDETAILVIEWSTYLE
  2
AcDbDetailViewStyle
  3
ObjectDBX Classes
 90
1025
 91
0
280
0
281
0
  0
CLASS
  1
ACDBSECTIONVIEWSTYLE
  2
AcDbSectionViewStyle
  3
ObjectDBX Classes
 90
1025
 91
0
280
0
281
0
  0
CLASS
  1
RASTERVARIABLES
  2
AcDbRasterVariables
  3
ISM
 90
0
 91
0
280
0
281
0
  0
CLASS
  1
LAYOUT
  2
AcDbLayout
  3
ObjectDBX Classes
 90
0
 91
0
280
0
281
0
  0
CLASS
  1
ACDBPLACEHOLDER
  2
AcDbPlaceHolder
  3
ObjectDBX Classes
 90
0
 91
0
280
0
281
0
  0
ENDSEC
  0
SECTION
  2
TABLES
  0
TABLE
  2
VPORT
  5
8
330
0
100
AcDbSymbolTable
 70
1
  0
VPORT
  5
23
330
8
100
AcDbSymbolTableRecord
100
AcDbViewportTableRecord
  2
*Active
 70
0
 10
0.0
 20
0.0
 11
1.0
 21
1.0
 12
0.0
 22
0.0
 13
0.0
 23
0.0
 14
0.5
 24
0.5
 15
0.5
 25
0.5
 16
0.0
 26
0.0
 36
1.0
 17
0.0
 27
0.0
 37
0.0
 40
1000.0
 41
1.34
 42
50.0
 43
0.0
 44
0.0
 50
0.0
 51
0.0
 71
0
 72
1000
 73
1
 74
3
 75
0
 76
0
 77
0
 78
0
281
0
 65
0
146
0.0
  0
ENDTAB
  0
TABLE
  2
LTYPE
  5
2
330
0
100
AcDbSymbolTable
 70
3
  0
LTYPE
  5
24
330
2
100
AcDbSymbolTableRecord
100
AcDbLinetypeTableRecord
  2
ByBlock
 70
0
  3

 72
65
 73
0
 40
0.0
  0
LTYPE
  5
25
330
2
100
AcDbSymbolTableRecord
100
AcDbLinetypeTableRecord
  2
ByLayer
 70
0
  3

 72
65
 73
0
 40
0.0
  0
LTYPE
  5
26
330
2
100
AcDbSymbolTableRecord
100
AcDbLinetypeTableRecord
  2
Continuous
 70
0
  3

 72
65
 73
0
 40
0.0
  0
ENDTAB
  0
TABLE
  2
LAYER
  5
1
330
0
100
AcDbSymbolTable
 70
2
  0
LAYER
  5
27
330
1
100
AcDbSymbolTableRecord
100
AcDbLayerTableRecord
  2
0
 70
0
 62
7
  6
Continuous
370
-3
390
13
347
21
  0
LAYER
  5
28
330
1
100
AcDbSymbolTableRecord
100
AcDbLayerTableRecord
  2
Defpoints
 70
0
 62
7
  6
Continuous
290
0
370
-3
390
13
347
21
  0
ENDTAB
  0
TABLE
  2
STYLE
  5
5
330
0
100
AcDbSymbolTable
 70
1
  0
STYLE
  5
29
330
5
100
AcDbSymbolTableRecord
100
AcDbTextStyleTableRecord
  2
Standard
 70
0
 40
0.0
 41
1.0
 50
0.0
 71
0
 42
2.5
  3
txt
  4

  0
ENDTAB
  0
TABLE
  2
VIEW
  5
7
330
0
100
AcDbSymbolTable
 70
0
  0
ENDTAB
  0
TABLE
  2
UCS
  5
6
330
0
100
AcDbSymbolTable
 70
0
  0
ENDTAB
  0
TABLE
  2
APPID
  5
3
330
0
100
AcDbSymbolTable
 70
3
  0
APPID
  5
2A
330
3
100
AcDbSymbolTableRecord
100
AcDbRegAppTableRecord
  2
ACAD
 70
0
  0
APPID
  5
1CB
330
3
100
AcDbSymbolTableRecord
100
AcDbRegAppTableRecord
  2
HATCHBACKGROUNDCOLOR
 70
0
  0
APPID
  5
1CC
330
3
100
AcDbSymbolTableRecord
100
AcDbRegAppTableRecord
  2
EZDXF
 70
0
  0
ENDTAB
  0
TABLE
  2
DIMSTYLE
  5
4
330
0
100
AcDbSymbolTable
 70
1
100
AcDbDimStyleTable
  0
DIMSTYLE
105
2B
330
4
100
AcDbSymbolTableRecord
100
AcDbDimStyleTableRecord
  2
Standard
 70
0
 40
1.0
 41
2.5
 42
0.625
 43
3.75
 44
1.25
 45
0.0
 46
0.0
 47
0.0
 48
0.0
 49
2.5
140
2.5
141
2.5
142
0.0
143
0.03937007874
144
1.0
145
0.0
146
1.0
147
0.625
148
0.0
 69
0
 70
0
 71
0
 72
0
 73
0
 74
0
 75
0
 76
0
 77
1
 78
8
 79
3
170
0
171
3
172
1
173
0
174
0
175
0
176
0
177
0
178
0
179
2
271
2
272
2
273
2
274
3
275
0
276
0
277
2
278
44
279
0
280
0
281
0
282
0
283
0
284
8
285
0
286
0
288
0
289
3
290
0
371
-2
372
-2
  0
ENDTAB
  0
TABLE
  2
BLOCK_RECORD
  5
9
330
0
100
AcDbSymbolTable
 70
2
  0
BLOCK_RECORD
  5
17
330
9
100
AcDbSymbolTableRecord
100
AcDbBlockTableRecord
  2
*Model_Space
340
1A
 70
0
280
1
281
0
  0
BLOCK_RECORD
  5
1B
330
9
100
AcDbSymbolTableRecord
100
AcDbBlockTableRecord
  2
*Paper_Space
340
1E
 70
0
280
1
281
0
  0
ENDTAB
  0
ENDSEC
  0
SECTION
  2
BLOCKS
  0
BLOCK
  5
18
330
17
100
AcDbEntity
  8
0
100
AcDbBlockBegin
  2
*Model_Space
 70
0
 10
0.0
 20
0.0
 30
0.0
  3
*Model_Space
  1

  0
ENDBLK
  5
19
330
17
100
AcDbEntity
  8
0
100
AcDbBlockEnd
  0
BLOCK
  5
1C
330
1B
100
AcDbEntity
  8
0
100
AcDbBlockBegin
  2
*Paper_Space
 70
0
 10
0.0
 20
0.0
 30
0.0
  3
*Paper_Space
  1

  0
ENDBLK
  5
1D
330
1B
100
AcDbEntity
  8
0
100
AcDbBlockEnd
  0
ENDSEC
  0
SECTION
  2
ENTITIES
  0
ARC
  5
2F
330
17
100
AcDbEntity
  8
0
100
AcDbCircle
 10
0.0
 20
0.0
 30
0.0
 40
105.0
100
AcDbArc
 50
89.12621359223301
 51
90.0
  0
ARC
  5
30
330
17
100
AcDbEntity
  8
0
100
AcDbCircle
 10
0.0
 20
0.0
 30
0.0
 40
105.0
100
AcDbArc
 50
88.25242718446601
 51
89.12621359223301
  0
ARC
  5
31
330
17
100
AcDbEntity
  8
0
100
AcDbCircle
 10
0.0
 20
0.0
 30
0.0
 40
105.0
100
AcDbArc
 50
87.37864077669903
 51
88.25242718446601
  0
ARC
  5
32
330
17
100
AcDbEntity
  8
0
100
AcDbCircle
 10
0.0
 20
0.0
 30
0.0
 40
105.0
100
AcDbArc
 50
86.50485436893204
 51
87.37864077669903
  0
ARC
  5
33
330
17
100
AcDbEntity
  8
0
100
AcDbCircle
 10
0.0
 20
0.0
 30
0.0
 40
105.0
100
AcDbArc
 50
85.63106796116504
 51
86.50485436893204
  0
ARC
  5
34
330
17
100
AcDbEntity
  8
0
100
AcDbCircle
 10
0.0
 20
0.0
 30
0.0
 40
105.0
100
AcDbArc
 50
84.75728155339806
 51
85.63106796116504
  0
ARC
  5
35
330
17
100
AcDbEntity
  8
0
100
AcDbCircle
 10
0.0
 20
0.0
 30
0.0
 40
105.0
100
AcDbArc
 50
83.88349514563107
 51
84.75728155339806
  0
ARC
  5
36
330
17
100
AcDbEntity
  8
0
100
AcDbCircle
 10
0.0
 20
0.0
 30
0.0
 40
105.0
100
AcDbArc
 50
83.00970873786407
 51
83.88349514563107
  0
ARC
  5
37
330
17
100
AcDbEntity
  8
0
100
AcDbCircle
 10
0.0
 20
0.0
 30
0.0
 40
105.0
100
AcDbArc
 50
82.13592233009709
 51
83.00970873786407
  0
ARC
  5
38
330
17
100
AcDbEntity
  8
0
100
AcDbCircle
 10
0.0
 20
0.0
 30
0.0
 40
105.0
100
AcDbArc
 50
81.2621359223301
 51
82.13592233009709
  0
ARC
  5
39
330
17
100
AcDbEntity
  8
0
100
AcDbCircle
 10
0.0
 20
0.0
 30
0.0
 40
105.0
100
AcDbArc
 50
80.3883495145631
 51
81.2621359223301
  0
ARC
  5
3A
330
17
100
AcDbEntity
  8
0
100
AcDbCircle
 10
0.0
 20
0.0
 30
0.0
 40
105.0
100
AcDbArc
 50
79.51456310679612
 51
80.3883495145631
  0
ARC
  5
3B
330
17
100
AcDbEntity
  8
0
100
AcDbCircle
 10
0.0
 20
0.0
 30
0.0
 40
105.0
100
AcDbArc
 50
78.64077669902913
 51
79.51456310679612
  0
ARC
  5
3C
330
17
100
AcDbEntity
  8
0
100
AcDbCircle
 10
0.0
 20
0.0
 30
0.0
 40
105.0
100
AcDbArc
 50
77.76699029126213
 51
78.64077669902913
  0
ARC
  5
3D
330
17
100
AcDbEntity
  8
0
100
AcDbCircle
 10
0.0
 20
0.0
 30
0.0
 40
105.0
100
AcDbArc
 50
76.89320388349515
 51
77.76699029126213
  0
ARC
  5
3E
330
17
100
AcDbEntity
  8
0
100
AcDbCircle
 10
0.0
 20
0.0
 30
0.0
 40
105.0
100
AcDbArc
 50
76.01941747572816
 51
76.89320388349515
  0
ARC
  5
3F
330
17
100
AcDbEntity
  8
0
100
AcDbCircle
 10
0.0
 20
0.0
 30
0.0
 40
105.0
100
AcDbArc
 50
75.14563106796116
 51
76.01941747572816
  0
ARC
  5
40
330
17
100
AcDbEntity
  8
0
100
AcDbCircle
 10
0.0
 20
0.0
 30
0.0
 40
105.0
100
AcDbArc
 50
74.27184466019418
 51
75.14563106796116
  0
ARC
  5
41
330
17
100
AcDbEntity
  8
0
100
AcDbCircle
 10
0.0
 20
0.0
 30
0.0
 40
105.0
100
AcDbArc
 50
73.39805825242719
 51
74.27184466019418
  0
ARC
  5
42
330
17
100
AcDbEntity
  8
0
100
AcDbCircle
 10
0.0
 20
0.0
 30
0.0
 40
105.0
100
AcDbArc
 50
72.52427184466019
 51
73.39805825242718
  0
ARC
  5
43
330
17
100
AcDbEntity
  8
0
100
AcDbCircle
 10
0.0
 20
0.0
 30
0.0
 40
105.0
100
AcDbArc
 50
71.6504854368932
 51
72.52427184466019
  0
ARC
  5
44
330
17
100
AcDbEntity
  8
0
100
AcDbCircle
 10
0.0
 20
0.0
 30
0.0
 40
105.0
100
AcDbArc
 50
70.77669902912622
 51
71.6504854368932
  0
ARC
  5
45
330
17
100
AcDbEntity
  8
0
100
AcDbCircle
 10
0.0
 20
0.0
 30
0.0
 40
105.0
100
AcDbArc
 50
69.90291262135922
 51
70.7766990291262
  0
ARC
  5
46
330
17
100
AcDbEntity
  8
0
100
AcDbCircle
 10
0.0
 20
0.0
 30
0.0
 40
105.0
100
AcDbArc
 50
69.02912621359224
 51
69.90291262135922
  0
ARC
  5
47
330
17
100
AcDbEntity
  8
0
100
AcDbCircle
 10
0.0
 20
0.0
 30
0.0
 40
105.0
100
AcDbArc
 50
68.15533980582525
 51
69.02912621359224
  0
ARC
  5
48
330
17
100
AcDbEntity
  8
0
100
AcDbCircle
 10
0.0
 20
0.0
 30
0.0
 40
105.0
100
AcDbArc
 50
67.28155339805825
 51
68.15533980582524
  0
ARC
  5
49
330
17
100
AcDbEntity
  8
0
100
AcDbCircle
 10
0.0
 20
0.0
 30
0.0
 40
105.0
100
AcDbArc
 50
66.40776699029126
 51
67.28155339805825
  0
ARC
  5
4A
330
17
100
AcDbEntity
  8
0
100
AcDbCircle
 10
0.0
 20
0.0
 30
0.0
 40
105.0
100
AcDbArc
 50
65.53398058252428
 51
66.40776699029126
  0
ARC
  5
4B
330
17
100
AcDbEntity
  8
0
100
AcDbCircle
 10
0.0
 20
0.0
 30
0.0
 40
105.0
100
AcDbArc
 50
64.66019417475728
 51
65.53398058252426
  0
ARC
  5
4C
330
17
100
AcDbEntity
  8
0
100
AcDbCircle
 10
0.0
 20
0.0
 30
0.0
 40
105.0
100
AcDbArc
 50
63.786407766990294
 51
64.66019417475728
  0
ARC
  5
4D
330
17
100
AcDbEntity
  8
0
100
AcDbCircle
 10
0.0
 20
0.0
 30
0.0
 40
105.0
100
AcDbArc
 50
62.91262135922331
 51
63.786407766990294
  0
ARC
  5
4E
330
17
100
AcDbEntity
  8
0
100
AcDbCircle
 10
0.0
 20
0.0
 30
0.0
 40
105.0
100
AcDbArc
 50
62.03883495145631
 51
62.9126213592233
  0
ARC
  5
4F
330
17
100
AcDbEntity
  8
0
100
AcDbCircle
 10
0.0
 20
0.0
 30
0.0
 40
105.0
100
AcDbArc
 50
61.16504854368932
 51
62.03883495145631
  0
ARC
  5
50
330
17
100
AcDbEntity
  8
0
100
AcDbCircle
 10
0.0
 20
0.0
 30
0.0
 40
105.0
100
AcDbArc
 50
60.29126213592234
 51
61.16504854368932
  0
ARC
  5
51
330
17
100
AcDbEntity
  8
0
100
AcDbCircle
 10
0.0
 20
0.0
 30
0.0
 40
105.0
100
AcDbArc
 50
59.41747572815534
 51
60.29126213592233
  0
ARC
  5
52
330
17
100
AcDbEntity
  8
0
100
AcDbCircle
 10
0.0
 20
0.0
 30
0.0
 40
105.0
100
AcDbArc
 50
58.54368932038835
 51
59.41747572815534
  0
ARC
  5
53
330
17
100
AcDbEntity
  8
0
100
AcDbCircle
 10
0.0
 20
0.0
 30
0.0
 40
105.0
100
AcDbArc
 50
57.66990291262136
 51
58.54368932038835
  0
ARC
  5
54
330
17
100
AcDbEntity
  8
0
100
AcDbCircle
 10
0.0
 20
0.0
 30
0.0
 40
105.0
100
AcDbArc
 50
56.79611650485437
 51
57.66990291262136
  0
ARC
  5
55
330
17
100
AcDbEntity
  8
0
100
AcDbCircle
 10
0.0
 20
0.0
 30
0.0
 40
105.0
100
AcDbArc
 50
55.922330097087375
 51
56.79611650485437
  0
ARC
  5
56
330
17
100
AcDbEntity
  8
0
100
AcDbCircle
 10
0.0
 20
0.0
 30
0.0
 40
105.0
100
AcDbArc
 50
55.04854368932039
 51
55.92233009708738
  0
ARC
  5
57
330
17
100
AcDbEntity
  8
0
100
AcDbCircle
 10
0.0
 20
0.0
 30
0.0
 40
105.0
100
AcDbArc
 50
54.1747572815534
 51
55.04854368932039
  0
ARC
  5
58
330
17
100
AcDbEntity
  8
0
100
AcDbCircle
 10
0.0
 20
0.0
 30
0.0
 40
105.0
100
AcDbArc
 50
53.300970873786405
 51
54.1747572815534
  0
ARC
  5
59
330
17
100
AcDbEntity
  8
0
100
AcDbCircle
 10
0.0
 20
0.0
 30
0.0
 40
105.0
100
AcDbArc
 50
52.42718446601942
 51
53.30097087378641
  0
ARC
  5
5A
330
17
100
AcDbEntity
  8
0
100
AcDbCircle
 10
0.0
 20
0.0
 30
0.0
 40
105.0
100
AcDbArc
 50
51.55339805825243
 51
52.42718446601942
  0
ARC
  5
5B
330
17
100
AcDbEntity
  8
0
100
AcDbCircle
 10
0.0
 20
0.0
 30
0.0
 40
105.0
100
AcDbArc
 50
50.679611650485434
 51
51.55339805825243
  0
ARC
  5
5C
330
17
100
AcDbEntity
  8
0
100
AcDbCircle
 10
0.0
 20
0.0
 30
0.0
 40
105.0
100
AcDbArc
 50
49.80582524271845
 51
50.67961165048544
  0
ARC
  5
5D
330
17
100
AcDbEntity
  8
0
100
AcDbCircle
 10
0.0
 20
0.0
 30
0.0
 40
105.0
100
AcDbArc
 50
48.932038834951456
 51
49.80582524271845
  0
ARC
  5
5E
330
17
100
AcDbEntity
  8
0
100
AcDbCircle
 10
0.0
 20
0.0
 30
0.0
 40
105.0
100
AcDbArc
 50
48.05825242718446
 51
48.932038834951456
  0
ARC
  5
5F
330
17
100
AcDbEntity
  8
0
100
AcDbCircle
 10
0.0
 20
0.0
 30
0.0
 40
105.0
100
AcDbArc
 50
47.18446601941748
 51
48.05825242718447
  0
ARC
  5
60
330
17
100
AcDbEntity
  8
0
100
AcDbCircle
 10
0.0
 20
0.0
 30
0.0
 40
105.0
100
AcDbArc
 50
46.310679611650485
 51
47.18446601941748
  0
ARC
  5
61
330
17
100
AcDbEntity
  8
0
100
AcDbCircle
 10
0.0
 20
0.0
 30
0.0
 40
105.0
100
AcDbArc
 50
45.43689320388349
 51
46.310679611650485
  0
ARC
  5
62
330
17
100
AcDbEntity
  8
0
100
AcDbCircle
 10
0.0
 20
0.0
 30
0.0
 40
105.0
100
AcDbArc
 50
44.56310679611651
 51
45.4368932038835
  0
ARC
  5
63
330
17
100
AcDbEntity
  8
0
100
AcDbCircle
 10
0.0
 20
0.0
 30
0.0
 40
105.0
100
AcDbArc
 50
43.689320388349515
 51
44.56310679611651
  0
ARC
  5
64
330
17
100
AcDbEntity
  8
0
100
AcDbCircle
 10
0.0
 20
0.0
 30
0.0
 40
105.0
100
AcDbArc
 50
42.81553398058252
 51
43.689320388349515
  0
ARC
  5
65
330
17
100
AcDbEntity
  8
0
100
AcDbCircle
 10
0.0
 20
0.0
 30
0.0
 40
105.0
100
AcDbArc
 50
41.94174757281554
 51
42.81553398058253
  0
ARC
  5
66
330
17
100
AcDbEntity
  8
0
100
AcDbCircle
 10
0.0
 20
0.0
 30
0.0
 40
105.0
100
AcDbArc
 50
41.067961165048544
 51
41.94174757281554
  0
ARC
  5
67
330
17
100
AcDbEntity
  8
0
100
AcDbCircle
 10
0.0
 20
0.0
 30
0.0
 40
105.0
100
AcDbArc
 50
40.19417475728155
 51
41.067961165048544
  0
ARC
  5
68
330
17
100
AcDbEntity
  8
0
100
AcDbCircle
 10
0.0
 20
0.0
 30
0.0
 40
105.0
100
AcDbArc
 50
39.320388349514566
 51
40.19417475728156
  0
ARC
  5
69
330
17
100
AcDbEntity
  8
0
100
AcDbCircle
 10
0.0
 20
0.0
 30
0.0
 40
105.0
100
AcDbArc
 50
38.44660194174757
 51
39.320388349514566
  0
ARC
  5
6A
330
17
100
AcDbEntity
  8
0
100
AcDbCircle
 10
0.0
 20
0.0
 30
0.0
 40
105.0
100
AcDbArc
 50
37.57281553398058
 51
38.44660194174757
  0
ARC
  5
6B
330
17
100
AcDbEntity
  8
0
100
AcDbCircle
 10
0.0
 20
0.0
 30
0.0
 40
105.0
100
AcDbArc
 50
36.699029126213595
 51
37.57281553398059
  0
ARC
  5
6C
330
17
100
AcDbEntity
  8
0
100
AcDbCircle
 10
0.0
 20
0.0
 30
0.0
 40
105.0
100
AcDbArc
 50
35.8252427184466
 51
36.699029126213595
  0
ARC
  5
6D
330
17
100
AcDbEntity
  8
0
100
AcDbCircle
 10
0.0
 20
0.0
 30
0.0
 40
105.0
100
AcDbArc
 50
34.95145631067961
 51
35.8252427184466
  0
ARC
  5
6E
330
17
100
AcDbEntity
  8
0
100
AcDbCircle
 10
0.0
 20
0.0
 30
0.0
 40
105.0
100
AcDbArc
 50
34.077669902912625
 51
34.95145631067962
  0
ARC
  5
6F
330
17
100
AcDbEntity
  8
0
100
AcDbCircle
 10
0.0
 20
0.0
 30
0.0
 40
105.0
100
AcDbArc
 50
33.20388349514563
 51
34.077669902912625
  0
ARC
  5
70
330
17
100
AcDbEntity
  8
0
100
AcDbCircle
 10
0.0
 20
0.0
 30
0.0
 40
105.0
100
AcDbArc
 50
32.33009708737864
 51
33.20388349514563
  0
ARC
  5
71
330
17
100
AcDbEntity
  8
0
100
AcDbCircle
 10
0.0
 20
0.0
 30
0.0
 40
105.0
100
AcDbArc
 50
31.456310679611654
 51
32.33009708737865
  0
ARC
  5
72
330
17
100
AcDbEntity
  8
0
100
AcDbCircle
 10
0.0
 20
0.0
 30
0.0
 40
105.0
100
AcDbArc
 50
30.58252427184466
 51
31.456310679611654
  0
ARC
  5
73
330
17
100
AcDbEntity
  8
0
100
AcDbCircle
 10
0.0
 20
0.0
 30
0.0
 40
105.0
100
AcDbArc
 50
29.70873786407767
 51
30.58252427184466
  0
ARC
  5
74
330
17
100
AcDbEntity
  8
0
100
AcDbCircle
 10
0.0
 20
0.0
 30
0.0
 40
105.0
100
AcDbArc
 50
28.834951456310684
 51
29.708737864077676
  0
ARC
  5
75
330
17
100
AcDbEntity
  8
0
100
AcDbCircle
 10
0.0
 20
0.0
 30
0.0
 40
105.0
100
AcDbArc
 50
27.96116504854369
 51
28.834951456310684
  0
ARC
  5
76
330
17
100
AcDbEntity
  8
0
100
AcDbCircle
 10
0.0
 20
0.0
 30
0.0
 40
105.0
100
AcDbArc
 50
27.0873786407767
 51
27.96116504854369
  0
ARC
  5
77
330
17
100
AcDbEntity
  8
0
100
AcDbCircle
 10
0.0
 20
0.0
 30
0.0
 40
105.0
100
AcDbArc
 50
26.213592233009713
 51
27.087378640776706
  0
ARC
  5
78
330
17
100
AcDbEntity
  8
0
100
AcDbCircle
 10
0.0
 20
0.0
 30
0.0
 40
105.0
100
AcDbArc
 50
25.33980582524272
 51
26.213592233009713
  0
ARC
  5
79
330
17
100
AcDbEntity
  8
0
100
AcDbCircle
 10
0.0
 20
0.0
 30
0.0
 40
105.0
100
AcDbArc
 50
24.466019417475735
 51
25.33980582524272
  0
ARC
  5
7A
330
17
100
AcDbEntity
  8
0
100
AcDbCircle
 10
0.0
 20
0.0
 30
0.0
 40
105.0
100
AcDbArc
 50
23.59223300970875
 51
24.466019417475735
  0
ARC
  5
7B
330
17
100
AcDbEntity
  8
0
100
AcDbCircle
 10
0.0
 20
0.0
 30
0.0
 40
105.0
100
AcDbArc
 50
22.71844660194175
 51
23.592233009708735
  0
ARC
  5
7C
330
17
100
AcDbEntity
  8
0
100
AcDbCircle
 10
0.0
 20
0.0
 30
0.0
 40
105.0
100
AcDbArc
 50
21.844660194174764
 51
22.71844660194175
  0
ARC
  5
7D
330
17
100
AcDbEntity
  8
0
100
AcDbCircle
 10
0.0
 20
0.0
 30
0.0
 40
105.0
100
AcDbArc
 50
20.97087378640778
 51
21.844660194174764
  0
ARC
  5
7E
330
17
100
AcDbEntity
  8
0
100
AcDbCircle
 10
0.0
 20
0.0
 30
0.0
 40
105.0
100
AcDbArc
 50
20.09708737864078
 51
20.970873786407765
  0
ARC
  5
7F
330
17
100
AcDbEntity
  8
0
100
AcDbCircle
 10
0.0
 20
0.0
 30
0.0
 40
105.0
100
AcDbArc
 50
19.223300970873794
 51
20.09708737864078
  0
ARC
  5
80
330
17
100
AcDbEntity
  8
0
100
AcDbCircle
 10
0.0
 20
0.0
 30
0.0
 40
105.0
100
AcDbArc
 50
18.34951456310681
 51
19.223300970873794
  0
ARC
  5
81
330
17
100
AcDbEntity
  8
0
100
AcDbCircle
 10
0.0
 20
0.0
 30
0.0
 40
105.0
100
AcDbArc
 50
17.47572815533981
 51
18.349514563106794
  0
ARC
  5
82
330
17
100
AcDbEntity
  8
0
100
AcDbCircle
 10
0.0
 20
0.0
 30
0.0
 40
105.0
100
AcDbArc
 50
16.601941747572823
 51
17.47572815533981
  0
ARC
  5
83
330
17
100
AcDbEntity
  8
0
100
AcDbCircle
 10
0.0
 20
0.0
 30
0.0
 40
105.0
100
AcDbArc
 50
15.728155339805838
 51
16.601941747572823
  0
ARC
  5
84
330
17
100
AcDbEntity
  8
0
100
AcDbCircle
 10
0.0
 20
0.0
 30
0.0
 40
105.0
100
AcDbArc
 50
14.854368932038838
 51
15.728155339805824
  0
ARC
  5
85
330
17
100
AcDbEntity
  8
0
100
AcDbCircle
 10
0.0
 20
0.0
 30
0.0
 40
105.0
100
AcDbArc
 50
13.980582524271853
 51
14.854368932038838
  0
ARC
  5
86
330
17
100
AcDbEntity
  8
0
100
AcDbCircle
 10
0.0
 20
0.0
 30
0.0
 40
105.0
100
AcDbArc
 50
13.106796116504867
 51
13.980582524271853
  0
ARC
  5
87
330
17
100
AcDbEntity
  8
0
100
AcDbCircle
 10
0.0
 20
0.0
 30
0.0
 40
105.0
100
AcDbArc
 50
12.233009708737868
 51
13.106796116504853
  0
ARC
  5
88
330
17
100
AcDbEntity
  8
0
100
AcDbCircle
 10
0.0
 20
0.0
 30
0.0
 40
105.0
100
AcDbArc
 50
11.359223300970882
 51
12.233009708737868
  0
ARC
  5
89
330
17
100
AcDbEntity
  8
0
100
AcDbCircle
 10
0.0
 20
0.0
 30
0.0
 40
105.0
100
AcDbArc
 50
10.485436893203897
 51
11.359223300970882
  0
ARC
  5
8A
330
17
100
AcDbEntity
  8
0
100
AcDbCircle
 10
0.0
 20
0.0
 30
0.0
 40
105.0
100
AcDbArc
 50
9.611650485436897
 51
10.485436893203882
  0
ARC
  5
8B
330
17
100
AcDbEntity
  8
0
100
AcDbCircle
 10
0.0
 20
0.0
 30
0.0
 40
105.0
100
AcDbArc
 50
8.737864077669911
 51
9.611650485436897
  0
ARC
  5
8C
330
17
100
AcDbEntity
  8
0
100
AcDbCircle
 10
0.0
 20
0.0
 30
0.0
 40
105.0
100
AcDbArc
 50
7.864077669902926
 51
8.737864077669911
  0
ARC
  5
8D
330
17
100
AcDbEntity
  8
0
100
AcDbCircle
 10
0.0
 20
0.0
 30
0.0
 40
105.0
100
AcDbArc
 50
6.990291262135926
 51
7.864077669902912
  0
ARC
  5
8E
330
17
100
AcDbEntity
  8
0
100
AcDbCircle
 10
0.0
 20
0.0
 30
0.0
 40
105.0
100
AcDbArc
 50
6.116504854368941
 51
6.990291262135926
  0
ARC
  5
8F
330
17
100
AcDbEntity
  8
0
100
AcDbCircle
 10
0.0
 20
0.0
 30
0.0
 40
105.0
100
AcDbArc
 50
5.242718446601955
 51
6.116504854368941
  0
ARC
  5
90
330
17
100
AcDbEntity
  8
0
100
AcDbCircle
 10
0.0
 20
0.0
 30
0.0
 40
105.0
100
AcDbArc
 50
4.368932038834956
 51
5.242718446601941
  0
ARC
  5
91
330
17
100
AcDbEntity
  8
0
100
AcDbCircle
 10
0.0
 20
0.0
 30
0.0
 40
105.0
100
AcDbArc
 50
3.4951456310679703
 51
4.368932038834956
  0
ARC
  5
92
330
17
100
AcDbEntity
  8
0
100
AcDbCircle
 10
0.0
 20
0.0
 30
0.0
 40
105.0
100
AcDbArc
 50
2.621359223300985
 51
3.4951456310679703
  0
ARC
  5
93
330
17
100
AcDbEntity
  8
0
100
AcDbCircle
 10
0.0
 20
0.0
 30
0.0
 40
105.0
100
AcDbArc
 50
1.7475728155339851
 51
2.6213592233009706
  0
ARC
  5
94
330
17
100
AcDbEntity
  8
0
100
AcDbCircle
 10
0.0
 20
0.0
 30
0.0
 40
105.0
100
AcDbArc
 50
0.8737864077669997
 51
1.7475728155339851
  0
ARC
  5
95
330
17
100
AcDbEntity
  8
0
100
AcDbCircle
 10
0.0
 20
0.0
 30
0.0
 40
105.0
100
AcDbArc
 50
1.4210854715202004e-14
 51
0.8737864077669997
  0
ARC
  5
96
330
17
100
AcDbEntity
  8
0
100
AcDbCircle
 10
0.0
 20
0.0
 30
0.0
 40
105.0
100
AcDbArc
 50
-0.8737864077669855
 51
0.0
  0
ARC
  5
97
330
17
100
AcDbEntity
  8
0
100
AcDbCircle
 10
0.0
 20
0.0
 30
0.0
 40
105.0
100
AcDbArc
 50
-1.747572815533971
 51
-0.8737864077669855
  0
ARC
  5
98
330
17
100
AcDbEntity
  8
0
100
AcDbCircle
 10
0.0
 20
0.0
 30
0.0
 40
105.0
100
AcDbArc
 50
-2.6213592233009564
 51
-1.747572815533971
  0
ARC
  5
99
330
17
100
AcDbEntity
  8
0
100
AcDbCircle
 10
0.0
 20
0.0
 30
0.0
 40
105.0
100
AcDbArc
 50
-3.495145631067956
 51
-2.6213592233009706
  0
ARC
  5
9A
330
17
100
AcDbEntity
  8
0
100
AcDbCircle
 10
0.0
 20
0.0
 30
0.0
 40
105.0
100
AcDbArc
 50
-4.3689320388349415
 51
-3.495145631067956
  0
ARC
  5
9B
330
17
100
AcDbEntity
  8
0
100
AcDbCircle
 10
0.0
 20
0.0
 30
0.0
 40
105.0
100
AcDbArc
 50
-5.242718446601927
 51
-4.3689320388349415
  0
ARC
  5
9C
330
17
100
AcDbEntity
  8
0
100
AcDbCircle
 10
0.0
 20
0.0
 30
0.0
 40
105.0
100
AcDbArc
 50
-6.116504854368927
 51
-5.242718446601941
  0
ARC
  5
9D
330
17
100
AcDbEntity
  8
0
100
AcDbCircle
 10
0.0
 20
0.0
 30
0.0
 40
105.0
100
AcDbArc
 50
-6.990291262135912
 51
-6.116504854368927
  0
ARC
  5
9E
330
17
100
AcDbEntity
  8
0
100
AcDbCircle
 10
0.0
 20
0.0
 30
0.0
 40
105.0
100
AcDbArc
 50
-7.864077669902898
 51
-6.990291262135912
  0
ARC
  5
9F
330
17
100
AcDbEntity
  8
0
100
AcDbCircle
 10
0.0
 20
0.0
 30
0.0
 40
105.0
100
AcDbArc
 50
-8.737864077669897
 51
-7.864077669902912
  0
ARC
  5
A0
330
17
100
AcDbEntity
  8
0
100
AcDbCircle
 10
0.0
 20
0.0
 30
0.0
 40
105.0
100
AcDbArc
 50
-9.611650485436883
 51
-8.737864077669897
  0
ARC
  5
A1
330
17
100
AcDbEntity
  8
0
100
AcDbCircle
 10
0.0
 20
0.0
 30
0.0
 40
105.0
100
AcDbArc
 50
-10.485436893203868
 51
-9.611650485436883
  0
ARC
  5
A2
330
17
100
AcDbEntity
  8
0
100
AcDbCircle
 10
0.0
 20
0.0
 30
0.0
 40
105.0
100
AcDbArc
 50
-11.359223300970868
 51
-10.485436893203882
  0
ARC
  5
A3
330
17
100
AcDbEntity
  8
0
100
AcDbCircle
 10
0.0
 20
0.0
 30
0.0
 40
105.0
100
AcDbArc
 50
-12.233009708737853
 51
-11.359223300970868
  0
ARC
  5
A4
330
17
100
AcDbEntity
  8
0
100
AcDbCircle
 10
0.0
 20
0.0
 30
0.0
 40
105.0
100
AcDbArc
 50
-13.106796116504839
 51
-12.233009708737853
  0
ARC
  5
A5
330
17
100
AcDbEntity
  8
0
100
AcDbCircle
 10
0.0
 20
0.0
 30
0.0
 40
105.0
100
AcDbArc
 50
-13.980582524271838
 51
-13.106796116504853
  0
ARC
  5
A6
330
17
100
AcDbEntity
  8
0
100
AcDbCircle
 10
0.0
 20
0.0
 30
0.0
 40
105.0
100
AcDbArc
 50
-14.854368932038824
 51
-13.980582524271838
  0
ARC
  5
A7
330
17
100
AcDbEntity
  8
0
100
AcDbCircle
 10
0.0
 20
0.0
 30
0.0
 40
105.0
100
AcDbArc
 50
-15.72815533980581
 51
-14.854368932038824
  0
ARC
  5
A8
330
17
100
AcDbEntity
  8
0
100
AcDbCircle
 10
0.0
 20
0.0
 30
0.0
 40
105.0
100
AcDbArc
 50
-16.60194174757281
 51
-15.728155339805824
  0
ARC
  5
A9
330
17
100
AcDbEntity
  8
0
100
AcDbCircle
 10
0.0
 20
0.0
 30
0.0
 40
105.0
100
AcDbArc
 50
-17.475728155339795
 51
-16.60194174757281
  0
ARC
  5
AA
330
17
100
AcDbEntity
  8
0
100
AcDbCircle
 10
0.0
 20
0.0
 30
0.0
 40
105.0
100
AcDbArc
 50
-18.34951456310678
 51
-17.475728155339795
  0
ARC
  5
AB
330
17
100
AcDbEntity
  8
0
100
AcDbCircle
 10
0.0
 20
0.0
 30
0.0
 40
105.0
100
AcDbArc
 50
-19.22330097087378
 51
-18.349514563106794
  0
ARC
  5
AC
330
17
100
AcDbEntity
  8
0
100
AcDbCircle
 10
0.0
 20
0.0
 30
0.0
 40
105.0
100
AcDbArc
 50
-20.097087378640765
 51
-19.22330097087378
  0
ARC
  5
AD
330
17
100
AcDbEntity
  8
0
100
AcDbCircle
 10
0.0
 20
0.0
 30
0.0
 40
105.0
100
AcDbArc
 50
-20.97087378640775
 51
-20.097087378640765
  0
ARC
  5
AE
330
17
100
AcDbEntity
  8
0
100
AcDbCircle
 10
0.0
 20
0.0
 30
0.0
 40
105.0
100
AcDbArc
 50
-21.84466019417475
 51
-20.970873786407765
  0
ARC
  5
AF
330
17
100
AcDbEntity
  8
0
100
AcDbCircle
 10
0.0
 20
0.0
 30
0.0
 40
105.0
100
AcDbArc
 50
-22.718446601941736
 51
-21.84466019417475
  0
ARC
  5
B0
330
17
100
AcDbEntity
  8
0
100
AcDbCircle
 10
0.0
 20
0.0
 30
0.0
 40
105.0
100
AcDbArc
 50
-23.59223300970872
 51
-22.718446601941736
  0
ARC
  5
B1
330
17
100
AcDbEntity
  8
0
100
AcDbCircle
 10
0.0
 20
0.0
 30
0.0
 40
105.0
100
AcDbArc
 50
-24.46601941747572
 51
-23.592233009708735
  0
ARC
  5
B2
330
17
100
AcDbEntity
  8
0
100
AcDbCircle
 10
0.0
 20
0.0
 30
0.0
 40
105.0
100
AcDbArc
 50
-25.339805825242706
 51
-24.46601941747572
  0
ARC
  5
B3
330
17
100
AcDbEntity
  8
0
100
AcDbCircle
 10
0.0
 20
0.0
 30
0.0
 40
105.0
100
AcDbArc
 50
-26.21359223300969
 51
-25.339805825242706
  0
ARC
  5
B4
330
17
100
AcDbEntity
  8
0
100
AcDbCircle
 10
0.0
 20
0.0
 30
0.0
 40
105.0
100
AcDbArc
 50
-27.08737864077669
 51
-26.213592233009706
  0
ARC
  5
B5
330
17
100
AcDbEntity
  8
0
100
AcDbCircle
 10
0.0
 20
0.0
 30
0.0
 40
105.0
100
AcDbArc
 50
-27.961165048543677
 51
-27.08737864077669
  0
ARC
  5
B6
330
17
100
AcDbEntity
  8
0
100
AcDbCircle
 10
0.0
 20
0.0
 30
0.0
 40
105.0
100
AcDbArc
 50
-28.834951456310662
 51
-27.961165048543677
  0
ARC
  5
B7
330
17
100
AcDbEntity
  8
0
100
AcDbCircle
 10
0.0
 20
0.0
 30
0.0
 40
105.0
100
AcDbArc
 50
-29.708737864077662
 51
-28.834951456310677
  0
ARC
  5
B8
330
17
100
AcDbEntity
  8
0
100
AcDbCircle
 10
0.0
 20
0.0
 30
0.0
 40
105.0
100
AcDbArc
 50
-30.582524271844648
 51
-29.708737864077662
  0
ARC
  5
B9
330
17
100
AcDbEntity
  8
0
100
AcDbCircle
 10
0.0
 20
0.0
 30
0.0
 40
105.0
100
AcDbArc
 50
-31.456310679611633
 51
-30.582524271844648
  0
ARC
  5
BA
330
17
100
AcDbEntity
  8
0
100
AcDbCircle
 10
0.0
 20
0.0
 30
0.0
 40
105.0
100
AcDbArc
 50
-32.33009708737863
 51
-31.456310679611647
  0
ARC
  5
BB
330
17
100
AcDbEntity
  8
0
100
AcDbCircle
 10
0.0
 20
0.0
 30
0.0
 40
105.0
100
AcDbArc
 50
-33.20388349514562
 51
-32.33009708737863
  0
ARC
  5
BC
330
17
100
AcDbEntity
  8
0
100
AcDbCircle
 10
0.0
 20
0.0
 30
0.0
 40
105.0
100
AcDbArc
 50
-34.077669902912604
 51
-33.20388349514562
  0
ARC
  5
BD
330
17
100
AcDbEntity
  8
0
100
AcDbCircle
 10
0.0
 20
0.0
 30
0.0
 40
105.0
100
AcDbArc
 50
-34.9514563106796
 51
-34.07766990291262
  0
ARC
  5
BE
330
17
100
AcDbEntity
  8
0
100
AcDbCircle
 10
0.0
 20
0.0
 30
0.0
 40
105.0
100
AcDbArc
 50
-35.82524271844659
 51
-34.9514563106796
  0
ARC
  5
BF
330
17
100
AcDbEntity
  8
0
100
AcDbCircle
 10
0.0
 20
0.0
 30
0.0
 40
105.0
100
AcDbArc
 50
-36.699029126213574
 51
-35.82524271844659
  0
ARC
  5
C0
330
17
100
AcDbEntity
  8
0
100
AcDbCircle
 10
0.0
 20
0.0
 30
0.0
 40
105.0
100
AcDbArc
 50
-37.572815533980574
 51
-36.69902912621359
  0
ARC
  5
C1
330
17
100
AcDbEntity
  8
0
100
AcDbCircle
 10
0.0
 20
0.0
 30
0.0
 40
105.0
100
AcDbArc
 50
-38.44660194174756
 51
-37.572815533980574
  0
ARC
  5
C2
330
17
100
AcDbEntity
  8
0
100
AcDbCircle
 10
0.0
 20
0.0
 30
0.0
 40
105.0
100
AcDbArc
 50
-39.32038834951456
 51
-38.44660194174756
  0
ARC
  5
C3
330
17
100
AcDbEntity
  8
0
100
AcDbCircle
 10
0.0
 20
0.0
 30
0.0
 40
105.0
100
AcDbArc
 50
-40.19417475728156
 51
-39.32038834951456
  0
ARC
  5
C4
330
17
100
AcDbEntity
  8
0
100
AcDbCircle
 10
0.0
 20
0.0
 30
0.0
 40
105.0
100
AcDbArc
 50
-41.06796116504856
 51
-40.19417475728156
  0
ARC
  5
C5
330
17
100
AcDbEntity
  8
0
100
AcDbCircle
 10
0.0
 20
0.0
 30
0.0
 40
105.0
100
AcDbArc
 50
-41.94174757281553
 51
-41.06796116504853
  0
ARC
  5
C6
330
17
100
AcDbEntity
  8
0
100
AcDbCircle
 10
0.0
 20
0.0
 30
0.0
 40
105.0
100
AcDbArc
 50
-42.81553398058253
 51
-41.94174757281553
  0
ARC
  5
C7
330
17
100
AcDbEntity
  8
0
100
AcDbCircle
 10
0.0
 20
0.0
 30
0.0
 40
105.0
100
AcDbArc
 50
-43.68932038834953
 51
-42.81553398058253
  0
ARC
  5
C8
330
17
100
AcDbEntity
  8
0
100
AcDbCircle
 10
0.0
 20
0.0
 30
0.0
 40
105.0
100
AcDbArc
 50
-44.5631067961165
 51
-43.6893203883495
  0
ARC
  5
C9
330
17
100
AcDbEntity
  8
0
100
AcDbCircle
 10
0.0
 20
0.0
 30
0.0
 40
105.0
100
AcDbArc
 50
-45.4368932038835
 51
-44.5631067961165
  0
ARC
  5
CA
330
17
100
AcDbEntity
  8
0
100
AcDbCircle
 10
0.0
 20
0.0
 30
0.0
 40
105.0
100
AcDbArc
 50
-46.3106796116505
 51
-45.4368932038835
  0
ARC
  5
CB
330
17
100
AcDbEntity
  8
0
100
AcDbCircle
 10
0.0
 20
0.0
 30
0.0
 40
105.0
100
AcDbArc
 50
-47.18446601941747
 51
-46.31067961165047
  0
ARC
  5
CC
330
17
100
AcDbEntity
  8
0
100
AcDbCircle
 10
0.0
 20
0.0
 30
0.0
 40
105.0
100
AcDbArc
 50
-48.05825242718447
 51
-47.18446601941747
  0
ARC
  5
CD
330
17
100
AcDbEntity
  8
0
100
AcDbCircle
 10
0.0
 20
0.0
 30
0.0
 40
105.0
100
AcDbArc
 50
-48.93203883495147
 51
-48.05825242718447
  0
ARC
  5
CE
330
17
100
AcDbEntity
  8
0
100
AcDbCircle
 10
0.0
 20
0.0
 30
0.0
 40
105.0
100
AcDbArc
 50
-49.80582524271844
 51
-48.93203883495144
  0
ARC
  5
CF
330
17
100
AcDbEntity
  8
0
100
AcDbCircle
 10
0.0
 20
0.0
 30
0.0
 40
105.0
100
AcDbArc
 50
-50.67961165048544
 51
-49.80582524271844
  0
ARC
  5
D0
330
17
100
AcDbEntity
  8
0
100
AcDbCircle
 10
0.0
 20
0.0
 30
0.0
 40
105.0
100
AcDbArc
 50
-51.55339805825244
 51
-50.67961165048544
  0
ARC
  5
D1
330
17
100
AcDbEntity
  8
0
100
AcDbCircle
 10
0.0
 20
0.0
 30
0.0
 40
105.0
100
AcDbArc
 50
-52.42718446601941
 51
-51.55339805825241
  0
ARC
  5
D2
330
17
100
AcDbEntity
  8
0
100
AcDbCircle
 10
0.0
 20
0.0
 30
0.0
 40
105.0
100
AcDbArc
 50
-53.30097087378641
 51
-52.42718446601941
  0
ARC
  5
D3
330
17
100
AcDbEntity
  8
0
100
AcDbCircle
 10
0.0
 20
0.0
 30
0.0
 40
105.0
100
AcDbArc
 50
-54.17475728155341
 51
-53.30097087378641
  0
ARC
  5
D4
330
17
100
AcDbEntity
  8
0
100
AcDbCircle
 10
0.0
 20
0.0
 30
0.0
 40
105.0
100
AcDbArc
 50
-55.04854368932038
 51
-54.17475728155338
  0
ARC
  5
D5
330
17
100
AcDbEntity
  8
0
100
AcDbCircle
 10
0.0
 20
0.0
 30
0.0
 40
105.0
100
AcDbArc
 50
-55.92233009708738
 51
-55.04854368932038
  0
ARC
  5
D6
330
17
100
AcDbEntity
  8
0
100
AcDbCircle
 10
0.0
 20
0.0
 30
0.0
 40
105.0
100
AcDbArc
 50
-56.79611650485438
 51
-55.92233009708738
  0
ARC
  5
D7
330
17
100
AcDbEntity
  8
0
100
AcDbCircle
 10
0.0
 20
0.0
 30
0.0
 40
105.0
100
AcDbArc
 50
-57.66990291262135
 51
-56.79611650485435
  0
ARC
  5
D8
330
17
100
AcDbEntity
  8
0
100
AcDbCircle
 10
0.0
 20
0.0
 30
0.0
 40
105.0
100
AcDbArc
 50
-58.54368932038835
 51
-57.66990291262135
  0
ARC
  5
D9
330
17
100
AcDbEntity
  8
0
100
AcDbCircle
 10
0.0
 20
0.0
 30
0.0
 40
105.0
100
AcDbArc
 50
-59.41747572815535
 51
-58.54368932038835
  0
ARC
  5
DA
330
17
100
AcDbEntity
  8
0
100
AcDbCircle
 10
0.0
 20
0.0
 30
0.0
 40
105.0
100
AcDbArc
 50
-60.291262135922324
 51
-59.417475728155324
  0
ARC
  5
DB
330
17
100
AcDbEntity
  8
0
100
AcDbCircle
 10
0.0
 20
0.0
 30
0.0
 40
105.0
100
AcDbArc
 50
-61.16504854368932
 51
-60.291262135922324
  0
ARC
  5
DC
330
17
100
AcDbEntity
  8
0
100
AcDbCircle
 10
0.0
 20
0.0
 30
0.0
 40
105.0
100
AcDbArc
 50
-62.03883495145632
 51
-61.16504854368932
  0
ARC
  5
DD
330
17
100
AcDbEntity
  8
0
100
AcDbCircle
 10
0.0
 20
0.0
 30
0.0
 40
105.0
100
AcDbArc
 50
-62.912621359223294
 51
-62.038834951456295
  0
ARC
  5
DE
330
17
100
AcDbEntity
  8
0
100
AcDbCircle
 10
0.0
 20
0.0
 30
0.0
 40
105.0
100
AcDbArc
 50
-63.786407766990294
 51
-62.912621359223294
  0
ARC
  5
DF
330
17
100
AcDbEntity
  8
0
100
AcDbCircle
 10
0.0
 20
0.0
 30
0.0
 40
105.0
100
AcDbArc
 50
-64.6601941747573
 51
-63.786407766990294
  0
ARC
  5
E0
330
17
100
AcDbEntity
  8
0
100
AcDbCircle
 10
0.0
 20
0.0
 30
0.0
 40
105.0
100
AcDbArc
 50
-65.53398058252426
 51
-64.66019417475727
  0
ARC
  5
E1
330
17
100
AcDbEntity
  8
0
100
AcDbCircle
 10
0.0
 20
0.0
 30
0.0
 40
105.0
100
AcDbArc
 50
-66.40776699029126
 51
-65.53398058252426
  0
ARC
  5
E2
330
17
100
AcDbEntity
  8
0
100
AcDbCircle
 10
0.0
 20
0.0
 30
0.0
 40
105.0
100
AcDbArc
 50
-67.28155339805826
 51
-66.40776699029126
  0
ARC
  5
E3
330
17
100
AcDbEntity
  8
0
100
AcDbCircle
 10
0.0
 20
0.0
 30
0.0
 40
105.0
100
AcDbArc
 50
-68.15533980582524
 51
-67.28155339805824
  0
ARC
  5
E4
330
17
100
AcDbEntity
  8
0
100
AcDbCircle
 10
0.0
 20
0.0
 30
0.0
 40
105.0
100
AcDbArc
 50
-69.02912621359224
 51
-68.15533980582524
  0
ARC
  5
E5
330
17
100
AcDbEntity
  8
0
100
AcDbCircle
 10
0.0
 20
0.0
 30
0.0
 40
105.0
100
AcDbArc
 50
-69.90291262135923
 51
-69.02912621359224
  0
ARC
  5
E6
330
17
100
AcDbEntity
  8
0
100
AcDbCircle
 10
0.0
 20
0.0
 30
0.0
 40
105.0
100
AcDbArc
 50
-70.7766990291262
 51
-69.9029126213592
  0
ARC
  5
E7
330
17
100
AcDbEntity
  8
0
100
AcDbCircle
 10
0.0
 20
0.0
 30
0.0
 40
105.0
100
AcDbArc
 50
-71.6504854368932
 51
-70.7766990291262
  0
ARC
  5
E8
330
17
100
AcDbEntity
  8
0
100
AcDbCircle
 10
0.0
 20
0.0
 30
0.0
 40
105.0
100
AcDbArc
 50
-72.5242718446602
 51
-71.6504854368932
  0
ARC
  5
E9
330
17
100
AcDbEntity
  8
0
100
AcDbCircle
 10
0.0
 20
0.0
 30
0.0
 40
105.0
100
AcDbArc
 50
-73.39805825242718
 51
-72.52427184466018
  0
ARC
  5
EA
330
17
100
AcDbEntity
  8
0
100
AcDbCircle
 10
0.0
 20
0.0
 30
0.0
 40
105.0
100
AcDbArc
 50
-74.27184466019418
 51
-73.39805825242718
  0
ARC
  5
EB
330
17
100
AcDbEntity
  8
0
100
AcDbCircle
 10
0.0
 20
0.0
 30
0.0
 40
105.0
100
AcDbArc
 50
-75.14563106796118
 51
-74.27184466019418
  0
ARC
  5
EC
330
17
100
AcDbEntity
  8
0
100
AcDbCircle
 10
0.0
 20
0.0
 30
0.0
 40
105.0
100
AcDbArc
 50
-76.01941747572815
 51
-75.14563106796115
  0
ARC
  5
ED
330
17
100
AcDbEntity
  8
0
100
AcDbCircle
 10
0.0
 20
0.0
 30
0.0
 40
105.0
100
AcDbArc
 50
-76.89320388349515
 51
-76.01941747572815
  0
ARC
  5
EE
330
17
100
AcDbEntity
  8
0
100
AcDbCircle
 10
0.0
 20
0.0
 30
0.0
 40
105.0
100
AcDbArc
 50
-77.76699029126215
 51
-76.89320388349515
  0
ARC
  5
EF
330
17
100
AcDbEntity
  8
0
100
AcDbCircle
 10
0.0
 20
0.0
 30
0.0
 40
105.0
100
AcDbArc
 50
-78.64077669902912
 51
-77.76699029126212
  0
ARC
  5
F0
330
17
100
AcDbEntity
  8
0
100
AcDbCircle
 10
0.0
 20
0.0
 30
0.0
 40
105.0
100
AcDbArc
 50
-79.51456310679612
 51
-78.64077669902912
  0
ARC
  5
F1
330
17
100
AcDbEntity
  8
0
100
AcDbCircle
 10
0.0
 20
0.0
 30
0.0
 40
105.0
100
AcDbArc
 50
-80.38834951456312
 51
-79.51456310679612
  0
ARC
  5
F2
330
17
100
AcDbEntity
  8
0
100
AcDbCircle
 10
0.0
 20
0.0
 30
0.0
 40
105.0
100
AcDbArc
 50
-81.26213592233009
 51
-80.38834951456309
  0
ARC
  5
F3
330
17
100
AcDbEntity
  8
0
100
AcDbCircle
 10
0.0
 20
0.0
 30
0.0
 40
105.0
100
AcDbArc
 50
-82.13592233009709
 51
-81.26213592233009
  0
ARC
  5
F4
330
17
100
AcDbEntity
  8
0
100
AcDbCircle
 10
0.0
 20
0.0
 30
0.0
 40
105.0
100
AcDbArc
 50
-83.00970873786409
 51
-82.13592233009709
  0
ARC
  5
F5
330
17
100
AcDbEntity
  8
0
100
AcDbCircle
 10
0.0
 20
0.0
 30
0.0
 40
105.0
100
AcDbArc
 50
-83.88349514563106
 51
-83.00970873786406
  0
ARC
  5
F6
330
17
100
AcDbEntity
  8
0
100
AcDbCircle
 10
0.0
 20
0.0
 30
0.0
 40
105.0
100
AcDbArc
 50
-84.75728155339806
 51
-83.88349514563106
  0
ARC
  5
F7
330
17
100
AcDbEntity
  8
0
100
AcDbCircle
 10
0.0
 20
0.0
 30
0.0
 40
105.0
100
AcDbArc
 50
-85.63106796116506
 51
-84.75728155339806
  0
ARC
  5
F8
330
17
100
AcDbEntity
  8
0
100
AcDbCircle
 10
0.0
 20
0.0
 30
0.0
 40
105.0
100
AcDbArc
 50
-86.50485436893203
 51
-85.63106796116503
  0
ARC
  5
F9
330
17
100
AcDbEntity
  8
0
100
AcDbCircle
 10
0.0
 20
0.0
 30
0.0
 40
105.0
100
AcDbArc
 50
-87.37864077669903
 51
-86.50485436893203
  0
ARC
  5
FA
330
17
100
AcDbEntity
  8
0
100
AcDbCircle
 10
0.0
 20
0.0
 30
0.0
 40
105.0
100
AcDbArc
 50
-88.25242718446603
 51
-87.37864077669903
  0
ARC
  5
FB
330
17
100
AcDbEntity
  8
0
100
AcDbCircle
 10
0.0
 20
0.0
 30
0.0
 40
105.0
100
AcDbArc
 50
-89.126213592233
 51
-88.252427184466
  0
ARC
  5
FC
330
17
100
AcDbEntity
  8
0
100
AcDbCircle
 10
0.0
 20
0.0
 30
0.0
 40
105.0
100
AcDbArc
 50
-90.0
 51
-89.126213592233
  0
ARC
  5
FD
330
17
100
AcDbEntity
  8
0
100
AcDbCircle
 10
0.0
 20
0.0
 30
0.0
 40
105.0
100
AcDbArc
 50
-90.873786407767
 51
-90.0
  0
ARC
  5
FE
330
17
100
AcDbEntity
  8
0
100
AcDbCircle
 10
0.0
 20
0.0
 30
0.0
 40
105.0
100
AcDbArc
 50
-91.74757281553397
 51
-90.87378640776697
  0
ARC
  5
FF
330
17
100
AcDbEntity
  8
0
100
AcDbCircle
 10
0.0
 20
0.0
 30
0.0
 40
105.0
100
AcDbArc
 50
-92.62135922330097
 51
-91.74757281553397
  0
ARC
  5
100
330
17
100
AcDbEntity
  8
0
100
AcDbCircle
 10
0.0
 20
0.0
 30
0.0
 40
105.0
100
AcDbArc
 50
-93.49514563106797
 51
-92.62135922330097
  0
ARC
  5
101
330
17
100
AcDbEntity
  8
0
100
AcDbCircle
 10
0.0
 20
0.0
 30
0.0
 40
105.0
100
AcDbArc
 50
-94.36893203883494
 51
-93.49514563106794
  0
ARC
  5
102
330
17
100
AcDbEntity
  8
0
100
AcDbCircle
 10
0.0
 20
0.0
 30
0.0
 40
105.0
100
AcDbArc
 50
-95.24271844660194
 51
-94.36893203883494
  0
ARC
  5
103
330
17
100
AcDbEntity
  8
0
100
AcDbCircle
 10
0.0
 20
0.0
 30
0.0
 40
105.0
100
AcDbArc
 50
-96.11650485436894
 51
-95.24271844660194
  0
ARC
  5
104
330
17
100
AcDbEntity
  8
0
100
AcDbCircle
 10
0.0
 20
0.0
 30
0.0
 40
105.0
100
AcDbArc
 50
-96.99029126213591
 51
-96.11650485436891
  0
ARC
  5
105
330
17
100
AcDbEntity
  8
0
100
AcDbCircle
 10
0.0
 20
0.0
 30
0.0
 40
105.0
100
AcDbArc
 50
-97.86407766990291
 51
-96.99029126213591
  0
ARC
  5
106
330
17
100
AcDbEntity
  8
0
100
AcDbCircle
 10
0.0
 20
0.0
 30
0.0
 40
105.0
100
AcDbArc
 50
-98.73786407766991
 51
-97.86407766990291
  0
ARC
  5
107
330
17
100
AcDbEntity
  8
0
100
AcDbCircle
 10
0.0
 20
0.0
 30
0.0
 40
105.0
100
AcDbArc
 50
-99.61165048543688
 51
-98.73786407766988
  0
ARC
  5
108
330
17
100
AcDbEntity
  8
0
100
AcDbCircle
 10
0.0
 20
0.0
 30
0.0
 40
105.0
100
AcDbArc
 50
-100.48543689320388
 51
-99.61165048543688
  0
ARC
  5
109
330
17
100
AcDbEntity
  8
0
100
AcDbCircle
 10
0.0
 20
0.0
 30
0.0
 40
105.0
100
AcDbArc
 50
-101.35922330097088
 51
-100.48543689320388
  0
ARC
  5
10A
330
17
100
AcDbEntity
  8
0
100
AcDbCircle
 10
0.0
 20
0.0
 30
0.0
 40
105.0
100
AcDbArc
 50
-102.23300970873785
 51
-101.35922330097085
  0
ARC
  5
10B
330
17
100
AcDbEntity
  8
0
100
AcDbCircle
 10
0.0
 20
0.0
 30
0.0
 40
105.0
100
AcDbArc
 50
-103.10679611650485
 51
-102.23300970873785
  0
ARC
  5
10C
330
17
100
AcDbEntity
  8
0
100
AcDbCircle
 10
0.0
 20
0.0
 30
0.0
 40
105.0
100
AcDbArc
 50
-103.98058252427185
 51
-103.10679611650485
  0
ARC
  5
10D
330
17
100
AcDbEntity
  8
0
100
AcDbCircle
 10
0.0
 20
0.0
 30
0.0
 40
105.0
100
AcDbArc
 50
-104.85436893203882
 51
-103.98058252427182
  0
ARC
  5
10E
330
17
100
AcDbEntity
  8
0
100
AcDbCircle
 10
0.0
 20
0.0
 30
0.0
 40
105.0
100
AcDbArc
 50
-105.72815533980582
 51
-104.85436893203882
  0
ARC
  5
10F
330
17
100
AcDbEntity
  8
0
100
AcDbCircle
 10
0.0
 20
0.0
 30
0.0
 40
105.0
100
AcDbArc
 50
-106.60194174757282
 51
-105.72815533980582
  0
ARC
  5
110
330
17
100
AcDbEntity
  8
0
100
AcDbCircle
 10
0.0
 20
0.0
 30
0.0
 40
105.0
100
AcDbArc
 50
-107.4757281553398
 51
-106.6019417475728
  0
ARC
  5
111
330
17
100
AcDbEntity
  8
0
100
AcDbCircle
 10
0.0
 20
0.0
 30
0.0
 40
105.0
100
AcDbArc
 50
-108.3495145631068
 51
-107.4757281553398
  0
ARC
  5
112
330
17
100
AcDbEntity
  8
0
100
AcDbCircle
 10
0.0
 20
0.0
 30
0.0
 40
105.0
100
AcDbArc
 50
-109.2233009708738
 51
-108.3495145631068
  0
ARC
  5
113
330
17
100
AcDbEntity
  8
0
100
AcDbCircle
 10
0.0
 20
0.0
 30
0.0
 40
105.0
100
AcDbArc
 50
-110.09708737864077
 51
-109.22330097087377
  0
ARC
  5
114
330
17
100
AcDbEntity
  8
0
100
AcDbCircle
 10
0.0
 20
0.0
 30
0.0
 40
105.0
100
AcDbArc
 50
-110.97087378640776
 51
-110.09708737864077
  0
ARC
  5
115
330
17
100
AcDbEntity
  8
0
100
AcDbCircle
 10
0.0
 20
0.0
 30
0.0
 40
105.0
100
AcDbArc
 50
-111.84466019417476
 51
-110.97087378640776
  0
ARC
  5
116
330
17
100
AcDbEntity
  8
0
100
AcDbCircle
 10
0.0
 20
0.0
 30
0.0
 40
105.0
100
AcDbArc
 50
-112.71844660194174
 51
-111.84466019417474
  0
ARC
  5
117
330
17
100
AcDbEntity
  8
0
100
AcDbCircle
 10
0.0
 20
0.0
 30
0.0
 40
105.0
100
AcDbArc
 50
-113.59223300970874
 51
-112.71844660194174
  0
ARC
  5
118
330
17
100
AcDbEntity
  8
0
100
AcDbCircle
 10
0.0
 20
0.0
 30
0.0
 40
105.0
100
AcDbArc
 50
-114.46601941747574
 51
-113.59223300970874
  0
ARC
  5
119
330
17
100
AcDbEntity
  8
0
100
AcDbCircle
 10
0.0
 20
0.0
 30
0.0
 40
105.0
100
AcDbArc
 50
-115.3398058252427
 51
-114.4660194174757
  0
ARC
  5
11A
330
17
100
AcDbEntity
  8
0
100
AcDbCircle
 10
0.0
 20
0.0
 30
0.0
 40
105.0
100
AcDbArc
 50
-116.2135922330097
 51
-115.3398058252427
  0
ARC
  5
11B
330
17
100
AcDbEntity
  8
0
100
AcDbCircle
 10
0.0
 20
0.0
 30
0.0
 40
105.0
100
AcDbArc
 50
-117.0873786407767
 51
-116.2135922330097
  0
ARC
  5
11C
330
17
100
AcDbEntity
  8
0
100
AcDbCircle
 10
0.0
 20
0.0
 30
0.0
 40
105.0
100
AcDbArc
 50
-117.96116504854368
 51
-117.08737864077668
  0
ARC
  5
11D
330
17
100
AcDbEntity
  8
0
100
AcDbCircle
 10
0.0
 20
0.0
 30
0.0
 40
105.0
100
AcDbArc
 50
-118.83495145631068
 51
-117.96116504854368
  0
ARC
  5
11E
330
17
100
AcDbEntity
  8
0
100
AcDbCircle
 10
0.0
 20
0.0
 30
0.0
 40
105.0
100
AcDbArc
 50
-119.70873786407768
 51
-118.83495145631068
  0
ARC
  5
11F
330
17
100
AcDbEntity
  8
0
100
AcDbCircle
 10
0.0
 20
0.0
 30
0.0
 40
105.0
100
AcDbArc
 50
-120.58252427184465
 51
-119.70873786407765
  0
ARC
  5
120
330
17
100
AcDbEntity
  8
0
100
AcDbCircle
 10
0.0
 20
0.0
 30
0.0
 40
105.0
100
AcDbArc
 50
-121.45631067961165
 51
-120.58252427184465
  0
ARC
  5
121
330
17
100
AcDbEntity
  8
0
100
AcDbCircle
 10
0.0
 20
0.0
 30
0.0
 40
105.0
100
AcDbArc
 50
-122.33009708737865
 51
-121.45631067961165
  0
ARC
  5
122
330
17
100
AcDbEntity
  8
0
100
AcDbCircle
 10
0.0
 20
0.0
 30
0.0
 40
105.0
100
AcDbArc
 50
-123.20388349514562
 51
-122.33009708737862
  0
ARC
  5
123
330
17
100
AcDbEntity
  8
0
100
AcDbCircle
 10
0.0
 20
0.0
 30
0.0
 40
105.0
100
AcDbArc
 50
-124.07766990291262
 51
-123.20388349514562
  0
ARC
  5
124
330
17
100
AcDbEntity
  8
0
100
AcDbCircle
 10
0.0
 20
0.0
 30
0.0
 40
105.0
100
AcDbArc
 50
-124.95145631067962
 51
-124.07766990291262
  0
ARC
  5
125
330
17
100
AcDbEntity
  8
0
100
AcDbCircle
 10
0.0
 20
0.0
 30
0.0
 40
105.0
100
AcDbArc
 50
-125.82524271844659
 51
-124.95145631067959
  0
ARC
  5
126
330
17
100
AcDbEntity
  8
0
100
AcDbCircle
 10
0.0
 20
0.0
 30
0.0
 40
105.0
100
AcDbArc
 50
-126.69902912621359
 51
-125.82524271844659
  0
ARC
  5
127
330
17
100
AcDbEntity
  8
0
100
AcDbCircle
 10
0.0
 20
0.0
 30
0.0
 40
105.0
100
AcDbArc
 50
-127.57281553398059
 51
-126.69902912621359
  0
ARC
  5
128
330
17
100
AcDbEntity
  8
0
100
AcDbCircle
 10
0.0
 20
0.0
 30
0.0
 40
105.0
100
AcDbArc
 50
-128.44660194174756
 51
-127.57281553398056
  0
ARC
  5
129
330
17
100
AcDbEntity
  8
0
100
AcDbCircle
 10
0.0
 20
0.0
 30
0.0
 40
105.0
100
AcDbArc
 50
-129.32038834951456
 51
-128.44660194174756
  0
ARC
  5
12A
330
17
100
AcDbEntity
  8
0
100
AcDbCircle
 10
0.0
 20
0.0
 30
0.0
 40
105.0
100
AcDbArc
 50
-130.19417475728156
 51
-129.32038834951456
  0
ARC
  5
12B
330
17
100
AcDbEntity
  8
0
100
AcDbCircle
 10
0.0
 20
0.0
 30
0.0
 40
105.0
100
AcDbArc
 50
-131.06796116504853
 51
-130.19417475728153
  0
ARC
  5
12C
330
17
100
AcDbEntity
  8
0
100
AcDbCircle
 10
0.0
 20
0.0
 30
0.0
 40
105.0
100
AcDbArc
 50
-131.94174757281553
 51
-131.06796116504853
  0
ARC
  5
12D
330
17
100
AcDbEntity
  8
0
100
AcDbCircle
 10
0.0
 20
0.0
 30
0.0
 40
105.0
100
AcDbArc
 50
-132.81553398058253
 51
-131.94174757281553
  0
ARC
  5
12E
330
17
100
AcDbEntity
  8
0
100
AcDbCircle
 10
0.0
 20
0.0
 30
0.0
 40
105.0
100
AcDbArc
 50
-133.6893203883495
 51
-132.8155339805825
  0
ARC
  5
12F
330
17
100
AcDbEntity
  8
0
100
AcDbCircle
 10
0.0
 20
0.0
 30
0.0
 40
105.0
100
AcDbArc
 50
-134.5631067961165
 51
-133.6893203883495
  0
ARC
  5
130
330
17
100
AcDbEntity
  8
0
100
AcDbCircle
 10
0.0
 20
0.0
 30
0.0
 40
105.0
100
AcDbArc
 50
-135.4368932038835
 51
-134.5631067961165
  0
ARC
  5
131
330
17
100
AcDbEntity
  8
0
100
AcDbCircle
 10
0.0
 20
0.0
 30
0.0
 40
105.0
100
AcDbArc
 50
-136.31067961165047
 51
-135.43689320388347
  0
ARC
  5
132
330
17
100
AcDbEntity
  8
0
100
AcDbCircle
 10
0.0
 20
0.0
 30
0.0
 40
105.0
100
AcDbArc
 50
-137.18446601941747
 51
-136.31067961165047
  0
ARC
  5
133
330
17
100
AcDbEntity
  8
0
100
AcDbCircle
 10
0.0
 20
0.0
 30
0.0
 40
105.0
100
AcDbArc
 50
-138.05825242718447
 51
-137.18446601941747
  0
ARC
  5
134
330
17
100
AcDbEntity
  8
0
100
AcDbCircle
 10
0.0
 20
0.0
 30
0.0
 40
105.0
100
AcDbArc
 50
-138.93203883495144
 51
-138.05825242718444
  0
ARC
  5
135
330
17
100
AcDbEntity
  8
0
100
AcDbCircle
 10
0.0
 20
0.0
 30
0.0
 40
105.0
100
AcDbArc
 50
-139.80582524271844
 51
-138.93203883495144
  0
ARC
  5
136
330
17
100
AcDbEntity
  8
0
100
AcDbCircle
 10
0.0
 20
0.0
 30
0.0
 40
105.0
100
AcDbArc
 50
-140.67961165048544
 51
-139.80582524271844
  0
ARC
  5
137
330
17
100
AcDbEntity
  8
0
100
AcDbCircle
 10
0.0
 20
0.0
 30
0.0
 40
105.0
100
AcDbArc
 50
-141.5533980582524
 51
-140.6796116504854
  0
ARC
  5
138
330
17
100
AcDbEntity
  8
0
100
AcDbCircle
 10
0.0
 20
0.0
 30
0.0
 40
105.0
100
AcDbArc
 50
-142.4271844660194
 51
-141.5533980582524
  0
ARC
  5
139
330
17
100
AcDbEntity
  8
0
100
AcDbCircle
 10
0.0
 20
0.0
 30
0.0
 40
105.0
100
AcDbArc
 50
-143.3009708737864
 51
-142.4271844660194
  0
ARC
  5
13A
330
17
100
AcDbEntity
  8
0
100
AcDbCircle
 10
0.0
 20
0.0
 30
0.0
 40
105.0
100
AcDbArc
 50
-144.17475728155338
 51
-143.30097087378638
  0
ARC
  5
13B
330
17
100
AcDbEntity
  8
0
100
AcDbCircle
 10
0.0
 20
0.0
 30
0.0
 40
105.0
100
AcDbArc
 50
-145.04854368932038
 51
-144.17475728155338
  0
ARC
  5
13C
330
17
100
AcDbEntity
  8
0
100
AcDbCircle
 10
0.0
 20
0.0
 30
0.0
 40
105.0
100
AcDbArc
 50
-145.92233009708738
 51
-145.04854368932038
  0
ARC
  5
13D
330
17
100
AcDbEntity
  8
0
100
AcDbCircle
 10
0.0
 20
0.0
 30
0.0
 40
105.0
100
AcDbArc
 50
-146.79611650485435
 51
-145.92233009708735
  0
ARC
  5
13E
330
17
100
AcDbEntity
  8
0
100
AcDbCircle
 10
0.0
 20
0.0
 30
0.0
 40
105.0
100
AcDbArc
 50
-147.66990291262135
 51
-146.79611650485435
  0
ARC
  5
13F
330
17
100
AcDbEntity
  8
0
100
AcDbCircle
 10
0.0
 20
0.0
 30
0.0
 40
105.0
100
AcDbArc
 50
-148.54368932038835
 51
-147.66990291262135
  0
ARC
  5
140
330
17
100
AcDbEntity
  8
0
100
AcDbCircle
 10
0.0
 20
0.0
 30
0.0
 40
105.0
100
AcDbArc
 50
-149.41747572815532
 51
-148.54368932038832
  0
ARC
  5
141
330
17
100
AcDbEntity
  8
0
100
AcDbCircle
 10
0.0
 20
0.0
 30
0.0
 40
105.0
100
AcDbArc
 50
-150.29126213592232
 51
-149.41747572815532
  0
ARC
  5
142
330
17
100
AcDbEntity
  8
0
100
AcDbCircle
 10
0.0
 20
0.0
 30
0.0
 40
105.0
100
AcDbArc
 50
-151.16504854368932
 51
-150.29126213592232
  0
ARC
  5
143
330
17
100
AcDbEntity
  8
0
100
AcDbCircle
 10
0.0
 20
0.0
 30
0.0
 40
105.0
100
AcDbArc
 50
-152.0388349514563
 51
-151.1650485436893
  0
ARC
  5
144
330
17
100
AcDbEntity
  8
0
100
AcDbCircle
 10
0.0
 20
0.0
 30
0.0
 40
105.0
100
AcDbArc
 50
-152.9126213592233
 51
-152.0388349514563
  0
ARC
  5
145
330
17
100
AcDbEntity
  8
0
100
AcDbCircle
 10
0.0
 20
0.0
 30
0.0
 40
105.0
100
AcDbArc
 50
-153.7864077669903
 51
-152.9126213592233
  0
ARC
  5
146
330
17
100
AcDbEntity
  8
0
100
AcDbCircle
 10
0.0
 20
0.0
 30
0.0
 40
105.0
100
AcDbArc
 50
-154.66019417475727
 51
-153.78640776699027
  0
ARC
  5
147
330
17
100
AcDbEntity
  8
0
100
AcDbCircle
 10
0.0
 20
0.0
 30
0.0
 40
105.0
100
AcDbArc
 50
-155.53398058252426
 51
-154.66019417475727
  0
ARC
  5
148
330
17
100
AcDbEntity
  8
0
100
AcDbCircle
 10
0.0
 20
0.0
 30
0.0
 40
105.0
100
AcDbArc
 50
-156.40776699029126
 51
-155.53398058252426
  0
ARC
  5
149
330
17
100
AcDbEntity
  8
0
100
AcDbCircle
 10
0.0
 20
0.0
 30
0.0
 40
105.0
100
AcDbArc
 50
-157.28155339805824
 51
-156.40776699029124
  0
ARC
  5
14A
330
17
100
AcDbEntity
  8
0
100
AcDbCircle
 10
0.0
 20
0.0
 30
0.0
 40
105.0
100
AcDbArc
 50
-158.15533980582524
 51
-157.28155339805824
  0
ARC
  5
14B
330
17
100
AcDbEntity
  8
0
100
AcDbCircle
 10
0.0
 20
0.0
 30
0.0
 40
105.0
100
AcDbArc
 50
-159.02912621359224
 51
-158.15533980582524
  0
ARC
  5
14C
330
17
100
AcDbEntity
  8
0
100
AcDbCircle
 10
0.0
 20
0.0
 30
0.0
 40
105.0
100
AcDbArc
 50
-159.9029126213592
 51
-159.0291262135922
  0
ARC
  5
14D
330
17
100
AcDbEntity
  8
0
100
AcDbCircle
 10
0.0
 20
0.0
 30
0.0
 40
105.0
100
AcDbArc
 50
-160.7766990291262
 51
-159.9029126213592
  0
ARC
  5
14E
330
17
100
AcDbEntity
  8
0
100
AcDbCircle
 10
0.0
 20
0.0
 30
0.0
 40
105.0
100
AcDbArc
 50
-161.6504854368932
 51
-160.7766990291262
  0
ARC
  5
14F
330
17
100
AcDbEntity
  8
0
100
AcDbCircle
 10
0.0
 20
0.0
 30
0.0
 40
105.0
100
AcDbArc
 50
-162.52427184466018
 51
-161.65048543689318
  0
ARC
  5
150
330
17
100
AcDbEntity
  8
0
100
AcDbCircle
 10
0.0
 20
0.0
 30
0.0
 40
105.0
100
AcDbArc
 50
-163.39805825242718
 51
-162.52427184466018
  0
ARC
  5
151
330
17
100
AcDbEntity
  8
0
100
AcDbCircle
 10
0.0
 20
0.0
 30
0.0
 40
105.0
100
AcDbArc
 50
-164.27184466019418
 51
-163.39805825242718
  0
ARC
  5
152
330
17
100
AcDbEntity
  8
0
100
AcDbCircle
 10
0.0
 20
0.0
 30
0.0
 40
105.0
100
AcDbArc
 50
-165.14563106796115
 51
-164.27184466019415
  0
ARC
  5
153
330
17
100
AcDbEntity
  8
0
100
AcDbCircle
 10
0.0
 20
0.0
 30
0.0
 40
105.0
100
AcDbArc
 50
-166.01941747572812
 51
-165.14563106796115
  0
ARC
  5
154
330
17
100
AcDbEntity
  8
0
100
AcDbCircle
 10
0.0
 20
0.0
 30
0.0
 40
105.0
100
AcDbArc
 50
-166.89320388349512
 51
-166.01941747572812
  0
ARC
  5
155
330
17
100
AcDbEntity
  8
0
100
AcDbCircle
 10
0.0
 20
0.0
 30
0.0
 40
105.0
100
AcDbArc
 50
-167.76699029126212
 51
-166.89320388349512
  0
ARC
  5
156
330
17
100
AcDbEntity
  8
0
100
AcDbCircle
 10
0.0
 20
0.0
 30
0.0
 40
105.0
100
AcDbArc
 50
-168.64077669902912
 51
-167.76699029126212
  0
ARC
  5
157
330
17
100
AcDbEntity
  8
0
100
AcDbCircle
 10
0.0
 20
0.0
 30
0.0
 40
105.0
100
AcDbArc
 50
-169.51456310679612
 51
-168.64077669902912
  0
ARC
  5
158
330
17
100
AcDbEntity
  8
0
100
AcDbCircle
 10
0.0
 20
0.0
 30
0.0
 40
105.0
100
AcDbArc
 50
-170.38834951456312
 51
-169.51456310679612
  0
ARC
  5
159
330
17
100
AcDbEntity
  8
0
100
AcDbCircle
 10
0.0
 20
0.0
 30
0.0
 40
105.0
100
AcDbArc
 50
-171.26213592233012
 51
-170.38834951456312
  0
ARC
  5
15A
330
17
100
AcDbEntity
  8
0
100
AcDbCircle
 10
0.0
 20
0.0
 30
0.0
 40
105.0
100
AcDbArc
 50
-172.13592233009706
 51
-171.26213592233006
  0
ARC
  5
15B
330
17
100
AcDbEntity
  8
0
100
AcDbCircle
 10
0.0
 20
0.0
 30
0.0
 40
105.0
100
AcDbArc
 50
-173.00970873786406
 51
-172.13592233009706
  0
ARC
  5
15C
330
17
100
AcDbEntity
  8
0
100
AcDbCircle
 10
0.0
 20
0.0
 30
0.0
 40
105.0
100
AcDbArc
 50
-173.88349514563106
 51
-173.00970873786406
  0
ARC
  5
15D
330
17
100
AcDbEntity
  8
0
100
AcDbCircle
 10
0.0
 20
0.0
 30
0.0
 40
105.0
100
AcDbArc
 50
-174.75728155339806
 51
-173.88349514563106
  0
ARC
  5
15E
330
17
100
AcDbEntity
  8
0
100
AcDbCircle
 10
0.0
 20
0.0
 30
0.0
 40
105.0
100
AcDbArc
 50
-175.63106796116506
 51
-174.75728155339806
  0
ARC
  5
15F
330
17
100
AcDbEntity
  8
0
100
AcDbCircle
 10
0.0
 20
0.0
 30
0.0
 40
105.0
100
AcDbArc
 50
-176.50485436893206
 51
-175.63106796116506
  0
ARC
  5
160
330
17
100
AcDbEntity
  8
0
100
AcDbCircle
 10
0.0
 20
0.0
 30
0.0
 40
105.0
100
AcDbArc
 50
-177.378640776699
 51
-176.504854368932
  0
ARC
  5
161
330
17
100
AcDbEntity
  8
0
100
AcDbCircle
 10
0.0
 20
0.0
 30
0.0
 40
105.0
100
AcDbArc
 50
-178.252427184466
 51
-177.378640776699
  0
ARC
  5
162
330
17
100
AcDbEntity
  8
0
100
AcDbCircle
 10
0.0
 20
0.0
 30
0.0
 40
105.0
100
AcDbArc
 50
-179.126213592233
 51
-178.252427184466
  0
ARC
  5
163
330
17
100
AcDbEntity
  8
0
100
AcDbCircle
 10
0.0
 20
0.0
 30
0.0
 40
105.0
100
AcDbArc
 50
-180.0
 51
-179.126213592233
  0
ARC
  5
164
330
17
100
AcDbEntity
  8
0
100
AcDbCircle
 10
0.0
 20
0.0
 30
0.0
 40
105.0
100
AcDbArc
 50
-180.873786407767
 51
-180.0
  0
ARC
  5
165
330
17
100
AcDbEntity
  8
0
100
AcDbCircle
 10
0.0
 20
0.0
 30
0.0
 40
105.0
100
AcDbArc
 50
-181.747572815534
 51
-180.873786407767
  0
ARC
  5
166
330
17
100
AcDbEntity
  8
0
100
AcDbCircle
 10
0.0
 20
0.0
 30
0.0
 40
105.0
100
AcDbArc
 50
-182.62135922330094
 51
-181.74757281553394
  0
ARC
  5
167
330
17
100
AcDbEntity
  8
0
100
AcDbCircle
 10
0.0
 20
0.0
 30
0.0
 40
105.0
100
AcDbArc
 50
-183.49514563106794
 51
-182.62135922330094
  0
ARC
  5
168
330
17
100
AcDbEntity
  8
0
100
AcDbCircle
 10
0.0
 20
0.0
 30
0.0
 40
105.0
100
AcDbArc
 50
-184.36893203883494
 51
-183.49514563106794
  0
ARC
  5
169
330
17
100
AcDbEntity
  8
0
100
AcDbCircle
 10
0.0
 20
0.0
 30
0.0
 40
105.0
100
AcDbArc
 50
-185.24271844660194
 51
-184.36893203883494
  0
ARC
  5
16A
330
17
100
AcDbEntity
  8
0
100
AcDbCircle
 10
0.0
 20
0.0
 30
0.0
 40
105.0
100
AcDbArc
 50
-186.11650485436894
 51
-185.24271844660194
  0
ARC
  5
16B
330
17
100
AcDbEntity
  8
0
100
AcDbCircle
 10
0.0
 20
0.0
 30
0.0
 40
105.0
100
AcDbArc
 50
-186.99029126213594
 51
-186.11650485436894
  0
ARC
  5
16C
330
17
100
AcDbEntity
  8
0
100
AcDbCircle
 10
0.0
 20
0.0
 30
0.0
 40
105.0
100
AcDbArc
 50
-187.86407766990288
 51
-186.99029126213588
  0
ARC
  5
16D
330
17
100
AcDbEntity
  8
0
100
AcDbCircle
 10
0.0
 20
0.0
 30
0.0
 40
105.0
100
AcDbArc
 50
-188.73786407766988
 51
-187.86407766990288
  0
ARC
  5
16E
330
17
100
AcDbEntity
  8
0
100
AcDbCircle
 10
0.0
 20
0.0
 30
0.0
 40
105.0
100
AcDbArc
 50
-189.61165048543688
 51
-188.73786407766988
  0
ARC
  5
16F
330
17
100
AcDbEntity
  8
0
100
AcDbCircle
 10
0.0
 20
0.0
 30
0.0
 40
105.0
100
AcDbArc
 50
-190.48543689320388
 51
-189.61165048543688
  0
ARC
  5
170
330
17
100
AcDbEntity
  8
0
100
AcDbCircle
 10
0.0
 20
0.0
 30
0.0
 40
105.0
100
AcDbArc
 50
-191.35922330097088
 51
-190.48543689320388
  0
ARC
  5
171
330
17
100
AcDbEntity
  8
0
100
AcDbCircle
 10
0.0
 20
0.0
 30
0.0
 40
105.0
100
AcDbArc
 50
-192.23300970873788
 51
-191.35922330097088
  0
ARC
  5
172
330
17
100
AcDbEntity
  8
0
100
AcDbCircle
 10
0.0
 20
0.0
 30
0.0
 40
105.0
100
AcDbArc
 50
-193.10679611650482
 51
-192.23300970873782
  0
ARC
  5
173
330
17
100
AcDbEntity
  8
0
100
AcDbCircle
 10
0.0
 20
0.0
 30
0.0
 40
105.0
100
AcDbArc
 50
-193.98058252427182
 51
-193.10679611650482
  0
ARC
  5
174
330
17
100
AcDbEntity
  8
0
100
AcDbCircle
 10
0.0
 20
0.0
 30
0.0
 40
105.0
100
AcDbArc
 50
-194.85436893203882
 51
-193.98058252427182
  0
ARC
  5
175
330
17
100
AcDbEntity
  8
0
100
AcDbCircle
 10
0.0
 20
0.0
 30
0.0
 40
105.0
100
AcDbArc
 50
-195.72815533980582
 51
-194.85436893203882
  0
ARC
  5
176
330
17
100
AcDbEntity
  8
0
100
AcDbCircle
 10
0.0
 20
0.0
 30
0.0
 40
105.0
100
AcDbArc
 50
-196.60194174757282
 51
-195.72815533980582
  0
ARC
  5
177
330
17
100
AcDbEntity
  8
0
100
AcDbCircle
 10
0.0
 20
0.0
 30
0.0
 40
105.0
100
AcDbArc
 50
-197.47572815533982
 51
-196.60194174757282
  0
ARC
  5
178
330
17
100
AcDbEntity
  8
0
100
AcDbCircle
 10
0.0
 20
0.0
 30
0.0
 40
105.0
100
AcDbArc
 50
-198.34951456310677
 51
-197.47572815533977
  0
ARC
  5
179
330
17
100
AcDbEntity
  8
0
100
AcDbCircle
 10
0.0
 20
0.0
 30
0.0
 40
105.0
100
AcDbArc
 50
-199.22330097087377
 51
-198.34951456310677
  0
ARC
  5
17A
330
17
100
AcDbEntity
  8
0
100
AcDbCircle
 10
0.0
 20
0.0
 30
0.0
 40
105.0
100
AcDbArc
 50
-200.09708737864077
 51
-199.22330097087377
  0
ARC
  5
17B
330
17
100
AcDbEntity
  8
0
100
AcDbCircle
 10
0.0
 20
0.0
 30
0.0
 40
105.0
100
AcDbArc
 50
-200.97087378640776
 51
-200.09708737864077
  0
ARC
  5
17C
330
17
100
AcDbEntity
  8
0
100
AcDbCircle
 10
0.0
 20
0.0
 30
0.0
 40
105.0
100
AcDbArc
 50
-201.84466019417476
 51
-200.97087378640776
  0
ARC
  5
17D
330
17
100
AcDbEntity
  8
0
100
AcDbCircle
 10
0.0
 20
0.0
 30
0.0
 40
105.0
100
AcDbArc
 50
-202.71844660194176
 51
-201.84466019417476
  0
ARC
  5
17E
330
17
100
AcDbEntity
  8
0
100
AcDbCircle
 10
0.0
 20
0.0
 30
0.0
 40
105.0
100
AcDbArc
 50
-203.5922330097087
 51
-202.7184466019417
  0
ARC
  5
17F
330
17
100
AcDbEntity
  8
0
100
AcDbCircle
 10
0.0
 20
0.0
 30
0.0
 40
105.0
100
AcDbArc
 50
-204.4660194174757
 51
-203.5922330097087
  0
ARC
  5
180
330
17
100
AcDbEntity
  8
0
100
AcDbCircle
 10
0.0
 20
0.0
 30
0.0
 40
105.0
100
AcDbArc
 50
-205.3398058252427
 51
-204.4660194174757
  0
ARC
  5
181
330
17
100
AcDbEntity
  8
0
100
AcDbCircle
 10
0.0
 20
0.0
 30
0.0
 40
105.0
100
AcDbArc
 50
-206.2135922330097
 51
-205.3398058252427
  0
ARC
  5
182
330
17
100
AcDbEntity
  8
0
100
AcDbCircle
 10
0.0
 20
0.0
 30
0.0
 40
105.0
100
AcDbArc
 50
-207.0873786407767
 51
-206.2135922330097
  0
ARC
  5
183
330
17
100
AcDbEntity
  8
0
100
AcDbCircle
 10
0.0
 20
0.0
 30
0.0
 40
105.0
100
AcDbArc
 50
-207.9611650485437
 51
-207.0873786407767
  0
ARC
  5
184
330
17
100
AcDbEntity
  8
0
100
AcDbCircle
 10
0.0
 20
0.0
 30
0.0
 40
105.0
100
AcDbArc
 50
-208.83495145631065
 51
-207.96116504854365
  0
ARC
  5
185
330
17
100
AcDbEntity
  8
0
100
AcDbCircle
 10
0.0
 20
0.0
 30
0.0
 40
105.0
100
AcDbArc
 50
-209.70873786407765
 51
-208.83495145631065
  0
ARC
  5
186
330
17
100
AcDbEntity
  8
0
100
AcDbCircle
 10
0.0
 20
0.0
 30
0.0
 40
105.0
100
AcDbArc
 50
-210.58252427184465
 51
-209.70873786407765
  0
ARC
  5
187
330
17
100
AcDbEntity
  8
0
100
AcDbCircle
 10
0.0
 20
0.0
 30
0.0
 40
105.0
100
AcDbArc
 50
-211.45631067961165
 51
-210.58252427184465
  0
ARC
  5
188
330
17
100
AcDbEntity
  8
0
100
AcDbCircle
 10
0.0
 20
0.0
 30
0.0
 40
105.0
100
AcDbArc
 50
-212.33009708737865
 51
-211.45631067961165
  0
ARC
  5
189
330
17
100
AcDbEntity
  8
0
100
AcDbCircle
 10
0.0
 20
0.0
 30
0.0
 40
105.0
100
AcDbArc
 50
-213.20388349514565
 51
-212.33009708737865
  0
ARC
  5
18A
330
17
100
AcDbEntity
  8
0
100
AcDbCircle
 10
0.0
 20
0.0
 30
0.0
 40
105.0
100
AcDbArc
 50
-214.0776699029126
 51
-213.2038834951456
  0
ARC
  5
18B
330
17
100
AcDbEntity
  8
0
100
AcDbCircle
 10
0.0
 20
0.0
 30
0.0
 40
105.0
100
AcDbArc
 50
-214.9514563106796
 51
-214.0776699029126
  0
ARC
  5
18C
330
17
100
AcDbEntity
  8
0
100
AcDbCircle
 10
0.0
 20
0.0
 30
0.0
 40
105.0
100
AcDbArc
 50
-215.8252427184466
 51
-214.9514563106796
  0
ARC
  5
18D
330
17
100
AcDbEntity
  8
0
100
AcDbCircle
 10
0.0
 20
0.0
 30
0.0
 40
105.0
100
AcDbArc
 50
-216.6990291262136
 51
-215.8252427184466
  0
ARC
  5
18E
330
17
100
AcDbEntity
  8
0
100
AcDbCircle
 10
0.0
 20
0.0
 30
0.0
 40
105.0
100
AcDbArc
 50
-217.5728155339806
 51
-216.6990291262136
  0
ARC
  5
18F
330
17
100
AcDbEntity
  8
0
100
AcDbCircle
 10
0.0
 20
0.0
 30
0.0
 40
105.0
100
AcDbArc
 50
-218.4466019417476
 51
-217.5728155339806
  0
ARC
  5
190
330
17
100
AcDbEntity
  8
0
100
AcDbCircle
 10
0.0
 20
0.0
 30
0.0
 40
105.0
100
AcDbArc
 50
-219.32038834951453
 51
-218.44660194174753
  0
ARC
  5
191
330
17
100
AcDbEntity
  8
0
100
AcDbCircle
 10
0.0
 20
0.0
 30
0.0
 40
105.0
100
AcDbArc
 50
-220.19417475728153
 51
-219.32038834951453
  0
ARC
  5
192
330
17
100
AcDbEntity
  8
0
100
AcDbCircle
 10
0.0
 20
0.0
 30
0.0
 40
105.0
100
AcDbArc
 50
-221.06796116504853
 51
-220.19417475728153
  0
ARC
  5
193
330
17
100
AcDbEntity
  8
0
100
AcDbCircle
 10
0.0
 20
0.0
 30
0.0
 40
105.0
100
AcDbArc
 50
-221.94174757281553
 51
-221.06796116504853
  0
ARC
  5
194
330
17
100
AcDbEntity
  8
0
100
AcDbCircle
 10
0.0
 20
0.0
 30
0.0
 40
105.0
100
AcDbArc
 50
-222.81553398058253
 51
-221.94174757281553
  0
ARC
  5
195
330
17
100
AcDbEntity
  8
0
100
AcDbCircle
 10
0.0
 20
0.0
 30
0.0
 40
105.0
100
AcDbArc
 50
-223.68932038834953
 51
-222.81553398058253
  0
ARC
  5
196
330
17
100
AcDbEntity
  8
0
100
AcDbCircle
 10
0.0
 20
0.0
 30
0.0
 40
105.0
100
AcDbArc
 50
-224.56310679611647
 51
-223.68932038834947
  0
ARC
  5
197
330
17
100
AcDbEntity
  8
0
100
AcDbCircle
 10
0.0
 20
0.0
 30
0.0
 40
105.0
100
AcDbArc
 50
-225.43689320388347
 51
-224.56310679611647
  0
ARC
  5
198
330
17
100
AcDbEntity
  8
0
100
AcDbCircle
 10
0.0
 20
0.0
 30
0.0
 40
105.0
100
AcDbArc
 50
-226.31067961165047
 51
-225.43689320388347
  0
ARC
  5
199
330
17
100
AcDbEntity
  8
0
100
AcDbCircle
 10
0.0
 20
0.0
 30
0.0
 40
105.0
100
AcDbArc
 50
-227.18446601941747
 51
-226.31067961165047
  0
ARC
  5
19A
330
17
100
AcDbEntity
  8
0
100
AcDbCircle
 10
0.0
 20
0.0
 30
0.0
 40
105.0
100
AcDbArc
 50
-228.05825242718447
 51
-227.18446601941747
  0
ARC
  5
19B
330
17
100
AcDbEntity
  8
0
100
AcDbCircle
 10
0.0
 20
0.0
 30
0.0
 40
105.0
100
AcDbArc
 50
-228.93203883495147
 51
-228.05825242718447
  0
ARC
  5
19C
330
17
100
AcDbEntity
  8
0
100
AcDbCircle
 10
0.0
 20
0.0
 30
0.0
 40
105.0
100
AcDbArc
 50
-229.8058252427184
 51
-228.9320388349514
  0
ARC
  5
19D
330
17
100
AcDbEntity
  8
0
100
AcDbCircle
 10
0.0
 20
0.0
 30
0.0
 40
105.0
100
AcDbArc
 50
-230.6796116504854
 51
-229.8058252427184
  0
ARC
  5
19E
330
17
100
AcDbEntity
  8
0
100
AcDbCircle
 10
0.0
 20
0.0
 30
0.0
 40
105.0
100
AcDbArc
 50
-231.5533980582524
 51
-230.6796116504854
  0
ARC
  5
19F
330
17
100
AcDbEntity
  8
0
100
AcDbCircle
 10
0.0
 20
0.0
 30
0.0
 40
105.0
100
AcDbArc
 50
-232.4271844660194
 51
-231.5533980582524
  0
ARC
  5
1A0
330
17
100
AcDbEntity
  8
0
100
AcDbCircle
 10
0.0
 20
0.0
 30
0.0
 40
105.0
100
AcDbArc
 50
-233.3009708737864
 51
-232.4271844660194
  0
ARC
  5
1A1
330
17
100
AcDbEntity
  8
0
100
AcDbCircle
 10
0.0
 20
0.0
 30
0.0
 40
105.0
100
AcDbArc
 50
-234.1747572815534
 51
-233.3009708737864
  0
ARC
  5
1A2
330
17
100
AcDbEntity
  8
0
100
AcDbCircle
 10
0.0
 20
0.0
 30
0.0
 40
105.0
100
AcDbArc
 50
-235.04854368932035
 51
-234.17475728155335
  0
ARC
  5
1A3
330
17
100
AcDbEntity
  8
0
100
AcDbCircle
 10
0.0
 20
0.0
 30
0.0
 40
105.0
100
AcDbArc
 50
-235.92233009708735
 51
-235.04854368932035
  0
ARC
  5
1A4
330
17
100
AcDbEntity
  8
0
100
AcDbCircle
 10
0.0
 20
0.0
 30
0.0
 40
105.0
100
AcDbArc
 50
-236.79611650485435
 51
-235.92233009708735
  0
ARC
  5
1A5
330
17
100
AcDbEntity
  8
0
100
AcDbCircle
 10
0.0
 20
0.0
 30
0.0
 40
105.0
100
AcDbArc
 50
-237.66990291262135
 51
-236.79611650485435
  0
ARC
  5
1A6
330
17
100
AcDbEntity
  8
0
100
AcDbCircle
 10
0.0
 20
0.0
 30
0.0
 40
105.0
100
AcDbArc
 50
-238.54368932038835
 51
-237.66990291262135
  0
ARC
  5
1A7
330
17
100
AcDbEntity
  8
0
100
AcDbCircle
 10
0.0
 20
0.0
 30
0.0
 40
105.0
100
AcDbArc
 50
-239.41747572815535
 51
-238.54368932038835
  0
ARC
  5
1A8
330
17
100
AcDbEntity
  8
0
100
AcDbCircle
 10
0.0
 20
0.0
 30
0.0
 40
105.0
100
AcDbArc
 50
-240.2912621359223
 51
-239.4174757281553
  0
ARC
  5
1A9
330
17
100
AcDbEntity
  8
0
100
AcDbCircle
 10
0.0
 20
0.0
 30
0.0
 40
105.0
100
AcDbArc
 50
-241.1650485436893
 51
-240.2912621359223
  0
ARC
  5
1AA
330
17
100
AcDbEntity
  8
0
100
AcDbCircle
 10
0.0
 20
0.0
 30
0.0
 40
105.0
100
AcDbArc
 50
-242.0388349514563
 51
-241.1650485436893
  0
ARC
  5
1AB
330
17
100
AcDbEntity
  8
0
100
AcDbCircle
 10
0.0
 20
0.0
 30
0.0
 40
105.0
100
AcDbArc
 50
-242.9126213592233
 51
-242.0388349514563
  0
ARC
  5
1AC
330
17
100
AcDbEntity
  8
0
100
AcDbCircle
 10
0.0
 20
0.0
 30
0.0
 40
105.0
100
AcDbArc
 50
-243.7864077669903
 51
-242.9126213592233
  0
ARC
  5
1AD
330
17
100
AcDbEntity
  8
0
100
AcDbCircle
 10
0.0
 20
0.0
 30
0.0
 40
105.0
100
AcDbArc
 50
-244.6601941747573
 51
-243.7864077669903
  0
ARC
  5
1AE
330
17
100
AcDbEntity
  8
0
100
AcDbCircle
 10
0.0
 20
0.0
 30
0.0
 40
105.0
100
AcDbArc
 50
-245.53398058252424
 51
-244.66019417475724
  0
ARC
  5
1AF
330
17
100
AcDbEntity
  8
0
100
AcDbCircle
 10
0.0
 20
0.0
 30
0.0
 40
105.0
100
AcDbArc
 50
-246.40776699029124
 51
-245.53398058252424
  0
ARC
  5
1B0
330
17
100
AcDbEntity
  8
0
100
AcDbCircle
 10
0.0
 20
0.0
 30
0.0
 40
105.0
100
AcDbArc
 50
-247.28155339805824
 51
-246.40776699029124
  0
ARC
  5
1B1
330
17
100
AcDbEntity
  8
0
100
AcDbCircle
 10
0.0
 20
0.0
 30
0.0
 40
105.0
100
AcDbArc
 50
-248.15533980582524
 51
-247.28155339805824
  0
ARC
  5
1B2
330
17
100
AcDbEntity
  8
0
100
AcDbCircle
 10
0.0
 20
0.0
 30
0.0
 40
105.0
100
AcDbArc
 50
-249.02912621359224
 51
-248.15533980582524
  0
ARC
  5
1B3
330
17
100
AcDbEntity
  8
0
100
AcDbCircle
 10
0.0
 20
0.0
 30
0.0
 40
105.0
100
AcDbArc
 50
-249.90291262135923
 51
-249.02912621359224
  0
ARC
  5
1B4
330
17
100
AcDbEntity
  8
0
100
AcDbCircle
 10
0.0
 20
0.0
 30
0.0
 40
105.0
100
AcDbArc
 50
-250.77669902912618
 51
-249.90291262135918
  0
ARC
  5
1B5
330
17
100
AcDbEntity
  8
0
100
AcDbCircle
 10
0.0
 20
0.0
 30
0.0
 40
105.0
100
AcDbArc
 50
-251.65048543689318
 51
-250.77669902912618
  0
ARC
  5
1B6
330
17
100
AcDbEntity
  8
0
100
AcDbCircle
 10
0.0
 20
0.0
 30
0.0
 40
105.0
100
AcDbArc
 50
-252.52427184466018
 51
-251.65048543689318
  0
ARC
  5
1B7
330
17
100
AcDbEntity
  8
0
100
AcDbCircle
 10
0.0
 20
0.0
 30
0.0
 40
105.0
100
AcDbArc
 50
-253.39805825242718
 51
-252.52427184466018
  0
ARC
  5
1B8
330
17
100
AcDbEntity
  8
0
100
AcDbCircle
 10
0.0
 20
0.0
 30
0.0
 40
105.0
100
AcDbArc
 50
-254.27184466019418
 51
-253.39805825242718
  0
ARC
  5
1B9
330
17
100
AcDbEntity
  8
0
100
AcDbCircle
 10
0.0
 20
0.0
 30
0.0
 40
105.0
100
AcDbArc
 50
-255.14563106796118
 51
-254.27184466019418
  0
ARC
  5
1BA
330
17
100
AcDbEntity
  8
0
100
AcDbCircle
 10
0.0
 20
0.0
 30
0.0
 40
105.0
100
AcDbArc
 50
-256.0194174757281
 51
-255.14563106796112
  0
ARC
  5
1BB
330
17
100
AcDbEntity
  8
0
100
AcDbCircle
 10
0.0
 20
0.0
 30
0.0
 40
105.0
100
AcDbArc
 50
-256.8932038834951
 51
-256.0194174757281
  0
ARC
  5
1BC
330
17
100
AcDbEntity
  8
0
100
AcDbCircle
 10
0.0
 20
0.0
 30
0.0
 40
105.0
100
AcDbArc
 50
-257.7669902912621
 51
-256.8932038834951
  0
ARC
  5
1BD
330
17
100
AcDbEntity
  8
0
100
AcDbCircle
 10
0.0
 20
0.0
 30
0.0
 40
105.0
100
AcDbArc
 50
-258.6407766990291
 51
-257.7669902912621
  0
ARC
  5
1BE
330
17
100
AcDbEntity
  8
0
100
AcDbCircle
 10
0.0
 20
0.0
 30
0.0
 40
105.0
100
AcDbArc
 50
-259.5145631067961
 51
-258.6407766990291
  0
ARC
  5
1BF
330
17
100
AcDbEntity
  8
0
100
AcDbCircle
 10
0.0
 20
0.0
 30
0.0
 40
105.0
100
AcDbArc
 50
-260.3883495145631
 51
-259.5145631067961
  0
ARC
  5
1C0
330
17
100
AcDbEntity
  8
0
100
AcDbCircle
 10
0.0
 20
0.0
 30
0.0
 40
105.0
100
AcDbArc
 50
-261.26213592233006
 51
-260.38834951456306
  0
ARC
  5
1C1
330
17
100
AcDbEntity
  8
0
100
AcDbCircle
 10
0.0
 20
0.0
 30
0.0
 40
105.0
100
AcDbArc
 50
-262.13592233009706
 51
-261.26213592233006
  0
ARC
  5
1C2
330
17
100
AcDbEntity
  8
0
100
AcDbCircle
 10
0.0
 20
0.0
 30
0.0
 40
105.0
100
AcDbArc
 50
-263.00970873786406
 51
-262.13592233009706
  0
ARC
  5
1C3
330
17
100
AcDbEntity
  8
0
100
AcDbCircle
 10
0.0
 20
0.0
 30
0.0
 40
105.0
100
AcDbArc
 50
-263.88349514563106
 51
-263.00970873786406
  0
ARC
  5
1C4
330
17
100
AcDbEntity
  8
0
100
AcDbCircle
 10
0.0
 20
0.0
 30
0.0
 40
105.0
100
AcDbArc
 50
-264.75728155339806
 51
-263.88349514563106
  0
ARC
  5
1C5
330
17
100
AcDbEntity
  8
0
100
AcDbCircle
 10
0.0
 20
0.0
 30
0.0
 40
105.0
100
AcDbArc
 50
-265.63106796116506
 51
-264.75728155339806
  0
ARC
  5
1C6
330
17
100
AcDbEntity
  8
0
100
AcDbCircle
 10
0.0
 20
0.0
 30
0.0
 40
105.0
100
AcDbArc
 50
-266.504854368932
 51
-265.631067961165
  0
ARC
  5
1C7
330
17
100
AcDbEntity
  8
0
100
AcDbCircle
 10
0.0
 20
0.0
 30
0.0
 40
105.0
100
AcDbArc
 50
-267.378640776699
 51
-266.504854368932
  0
ARC
  5
1C8
330
17
100
AcDbEntity
  8
0
100
AcDbCircle
 10
0.0
 20
0.0
 30
0.0
 40
105.0
100
AcDbArc
 50
-268.252427184466
 51
-267.378640776699
  0
ARC
  5
1C9
330
17
100
AcDbEntity
  8
0
100
AcDbCircle
 10
0.0
 20
0.0
 30
0.0
 40
105.0
100
AcDbArc
 50
-269.126213592233
 51
-268.252427184466
  0
ARC
  5
1CA
330
17
100
AcDbEntity
  8
0
100
AcDbCircle
 10
0.0
 20
0.0
 30
0.0
 40
105.0
100
AcDbArc
 50
-270.0
 51
-269.126213592233
  0
ENDSEC
  0
SECTION
  2
OBJECTS
  0
DICTIONARY
  5
A
330
0
100
AcDbDictionary
281
1
  3
ACAD_COLOR
350
B
  3
ACAD_GROUP
350
C
  3
ACAD_LAYOUT
350
D
  3
ACAD_MATERIAL
350
E
  3
ACAD_MLEADERSTYLE
350
F
  3
ACAD_MLINESTYLE
350
10
  3
ACAD_PLOTSETTINGS
350
11
  3
ACAD_PLOTSTYLENAME
350
12
  3
ACAD_SCALELIST
350
14
  3
ACAD_TABLESTYLE
350
15
  3
ACAD_VISUALSTYLE
350
16
  3
EZDXF_META
350
2D
  0
DICTIONARY
  5
B
330
A
100
AcDbDictionary
281
1
  0
DICTIONARY
  5
C
330
A
100
AcDbDictionary
281
1
  0
DICTIONARY
  5
D
330
A
100
AcDbDictionary
281
1
  3
Model
350
1A
  3
Layout1
350
1E
  0
DICTIONARY
  5
E
330
A
100
AcDbDictionary
281
1
  3
ByBlock
350
1F
  3
ByLayer
350
20
  3
Global
350
21
  0
DICTIONARY
  5
F
330
A
100
AcDbDictionary
281
1
  3
Standard
350
2C
  0
DICTIONARY
  5
10
330
A
100
AcDbDictionary
281
1
  3
Standard
350
22
  0
DICTIONARY
  5
11
330
A
100
AcDbDictionary
281
1
  0
ACDBDICTIONARYWDFLT
  5
12
330
A
100
AcDbDictionary
281
1
  3
Normal
350
13
100
AcDbDictionaryWithDefault
340
13
  0
ACDBPLACEHOLDER
  5
13
330
12
  0
DICTIONARY
  5
14
330
A
100
AcDbDictionary
281
1
  0
DICTIONARY
  5
15
330
A
100
AcDbDictionary
281
1
  0
DICTIONARY
  5
16
330
A
100
AcDbDictionary
281
1
  0
LAYOUT
  5
1A
330
D
100
AcDbPlotSettings
  1

  4
A3
  6

 40
7.5
 41
20.0
 42
7.5
 43
20.0
 44
420.0
 45
297.0
 46
0.0
 47
0.0
 48
0.0
 49
0.0
140
0.0
141
0.0
142
1.0
143
1.0
 70
1024
 72
1
 73
0
 74
5
  7

 75
16
 76
0
 77
2
 78
300
147
1.0
148
0.0
149
0.0
100
AcDbLayout
  1
Model
 70
1
 71
0
 10
0.0
 20
0.0
 11
420.0
 21
297.0
 12
0.0
 22
0.0
 32
0.0
 14
1e+20
 24
1e+20
 34
1e+20
 15
-1e+20
 25
-1e+20
 35
-1e+20
146
0.0
 13
0.0
 23
0.0
 33
0.0
 16
1.0
 26
0.0
 36
0.0
 17
0.0
 27
1.0
 37
0.0
 76
1
330
17
  0
LAYOUT
  5
1E
330
D
100
AcDbPlotSettings
  1

  4
A3
  6

 40
7.5
 41
20.0
 42
7.5
 43
20.0
 44
420.0
 45
297.0
 46
0.0
 47
0.0
 48
0.0
 49
0.0
140
0.0
141
0.0
142
1.0
143
1.0
 70
0
 72
1
 73
0
 74
5
  7

 75
16
 76
0
 77
2
 78
300
147
1.0
148
0.0
149
0.0
100
AcDbLayout
  1
Layout1
 70
1
 71
1
 10
0.0
 20
0.0
 11
420.0
 21
297.0
 12
0.0
 22
0.0
 32
0.0
 14
1e+20
 24
1e+20
 34
1e+20
 15
-1e+20
 25
-1e+20
 35
-1e+20
146
0.0
 13
0.0
 23
0.0
 33
0.0
 16
1.0
 26
0.0
 36
0.0
 17
0.0
 27
1.0
 37
0.0
 76
1
330
1B
  0
MATERIAL
  5
1F
102
{ACAD_REACTORS
330
E
102
}
330
E
100
AcDbMaterial
  1
ByBlock
  2

 70
0
 40
1.0
 71
1
 41
1.0
 91
-1023410177
 42
1.0
 72
1
  3

 73
1
 74
1
 75
1
 44
0.5
 73
0
 45
1.0
 46
1.0
 77
1
  4

 78
1
 79
1
170
1
 48
1.0
171
1
  6

172
1
173
1
174
1
140
1.0
141
1.0
175
1
  7

176
1
177
1
178
1
143
1.0
179
1
  8

270
1
271
1
272
1
145
1.0
146
1.0
273
1
  9

274
1
275
1
276
1
 42
1.0
 72
1
  3

 73
1
 74
1
 75
1
 94
63
  0
MATERIAL
  5
20
102
{ACAD_REACTORS
330
E
102
}
330
E
100
AcDbMaterial
  1
ByLayer
  2

 70
0
 40
1.0
 71
1
 41
1.0
 91
-1023410177
 42
1.0
 72
1
  3

 73
1
 74
1
 75
1
 44
0.5
 73
0
 45
1.0
 46
1.0
 77
1
  4

 78
1
 79
1
170
1
 48
1.0
171
1
  6

172
1
173
1
174
1
140
1.0
141
1.0
175
1
  7

176
1
177
1
178
1
143
1.0
179
1
  8

270
1
271
1
272
1
145
1.0
146
1.0
273
1
  9

274
1
275
1
276
1
 42
1.0
 72
1
  3

 73
1
 74
1
 75
1
 94
63
  0
MATERIAL
  5
21
102
{ACAD_REACTORS
330
E
102
}
330
E
100
AcDbMaterial
  1
Global
  2

 70
0
 40
1.0
 71
1
 41
1.0
 91
-1023410177
 42
1.0
 72
1
  3

 73
1
 74
1
 75
1
 44
0.5
 73
0
 45
1.0
 46
1.0
 77
1
  4

 78
1
 79
1
170
1
 48
1.0
171
1
  6

172
1
173
1
174
1
140
1.0
141
1.0
175
1
  7

176
1
177
1
178
1
143
1.0
179
1
  8

270
1
271
1
272
1
145
1.0
146
1.0
273
1
  9

274
1
275
1
276
1
 42
1.0
 72
1
  3

 73
1
 74
1
 75
1
 94
63
  0
MLINESTYLE
  5
22
102
{ACAD_REACTORS
330
10
102
}
330
10
100
AcDbMlineStyle
  2
Standard
 70
0
  3

 62
256
 51
90.0
 52
90.0
 71
2
 49
0.5
 62
256
  6
BYLAYER
 49
-0.5
 62
256
  6
BYLAYER
  0
MLEADERSTYLE
  5
2C
102
{ACAD_REACTORS
330
F
102
}
330
F
100
AcDbMLeaderStyle
179
2
170
2
171
1
172
0
 90
2
 40
0.0
 41
0.0
173
1
 91
-1056964608
 92
-2
290
1
 42
2.0
291
1
 43
8.0
  3
Standard
 44
4.0
300

342
29
174
1
175
1
176
0
178
1
 93
-1056964608
 45
4.0
292
0
297
0
 46
4.0
 94
-1056964608
 47
1.0
 49
1.0
140
1.0
294
1
141
0.0
177
0
142
1.0
295
0
296
0
143
3.75
271
0
272
9
273
9
  0
DICTIONARY
  5
2D
330
A
100
AcDbDictionary
280
1
281
1
  3
CREATED_BY_EZDXF
350
2E
  3
WRITTEN_BY_EZDXF
350
1CD
  0
DICTIONARYVAR
  5
2E
330
2D
100
DictionaryVariables
280
0
  1
1.4.3 @ 2026-05-14T19:13:16.359361+00:00
  0
DICTIONARYVAR
  5
1CD
330
2D
100
DictionaryVariables
280
0
  1
1.4.3 @ 2026-05-14T19:13:16.363803+00:00
  0
ENDSEC
  0
EOF
