  0
SECTION
  2
HEADER
  9
$ACADVER
  1
AC1027
  9
$ACADMAINTVER
 70
105
  9
$DWGCODEPAGE
  3
ANSI_1252
  9
$LASTSAVEDBY
  1
ezdxf
  9
$REQUIREDVERSIONS
160
0
  9
$INSBASE
 10
0.0
 20
0.0
 30
0.0
  9
$EXTMIN
 10
1e+20
 20
1e+20
 30
1e+20
  9
$EXTMAX
 10
-1e+20
 20
-1e+20
 30
-1e+20
  9
$LIMMIN
 10
0.0
 20
0.0
  9
$LIMMAX
 10
420.0
 20
297.0
  9
$ORTHOMODE
 70
0
  9
$REGENMODE
 70
1
  9
$FILLMODE
 70
1
  9
$QTEXTMODE
 70
0
  9
$MIRRTEXT
 70
1
  9
$LTSCALE
 40
1.0
  9
$ATTMODE
 70
1
  9
$TEXTSIZE
 40
2.5
  9
$TRACEWID
 40
1.0
  9
$TEXTSTYLE
  7
Standard
  9
$CLAYER
  8
0
  9
$CELTYPE
  6
ByLayer
  9
$CECOLOR
 62
256
  9
$CELTSCALE
 40
1.0
  9
$DISPSILH
 70
0
  9
$DIMSCALE
 40
1.0
  9
$DIMASZ
 40
2.5
  9
$DIMEXO
 40
0.625
  9
$DIMDLI
 40
3.75
  9
$DIMRND
 40
0.0
  9
$DIMDLE
 40
0.0
  9
$DIMEXE
 40
1.25
  9
$DIMTP
 40
0.0
  9
$DIMTM
 40
0.0
  9
$DIMTXT
 40
2.5
  9
$DIMCEN
 40
2.5
  9
$DIMTSZ
 40
0.0
  9
$DIMTOL
 70
0
  9
$DIMLIM
 70
0
  9
$DIMTIH
 70
0
  9
$DIMTOH
 70
0
  9
$DIMSE1
 70
0
  9
$DIMSE2
 70
0
  9
$DIMTAD
 70
1
  9
$DIMZIN
 70
8
  9
$DIMBLK
  1

  9
$DIMASO
 70
1
  9
$DIMSHO
 70
1
  9
$DIMPOST
  1

  9
$DIMAPOST
  1

  9
$DIMALT
 70
0
  9
$DIMALTD
 70
3
  9
$DIMALTF
 40
0.03937007874
  9
$DIMLFAC
 40
1.0
  9
$DIMTOFL
 70
1
  9
$DIMTVP
 40
0.0
  9
$DIMTIX
 70
0
  9
$DIMSOXD
 70
0
  9
$DIMSAH
 70
0
  9
$DIMBLK1
  1

  9
$DIMBLK2
  1

  9
$DIMSTYLE
  2
ISO-25
  9
$DIMCLRD
 70
0
  9
$DIMCLRE
 70
0
  9
$DIMCLRT
 70
0
  9
$DIMTFAC
 40
1.0
  9
$DIMGAP
 40
0.625
  9
$DIMJUST
 70
0
  9
$DIMSD1
 70
0
  9
$DIMSD2
 70
0
  9
$DIMTOLJ
 70
0
  9
$DIMTZIN
 70
8
  9
$DIMALTZ
 70
0
  9
$DIMALTTZ
 70
0
  9
$DIMUPT
 70
0
  9
$DIMDEC
 70
2
  9
$DIMTDEC
 70
2
  9
$DIMALTU
 70
2
  9
$DIMALTTD
 70
3
  9
$DIMTXSTY
  7
Standard
  9
$DIMAUNIT
 70
0
  9
$DIMADEC
 70
0
  9
$DIMALTRND
 40
0.0
  9
$DIMAZIN
 70
0
  9
$DIMDSEP
 70
44
  9
$DIMATFIT
 70
3
  9
$DIMFRAC
 70
0
  9
$DIMLDRBLK
  1

  9
$DIMLUNIT
 70
2
  9
$DIMLWD
 70
-2
  9
$DIMLWE
 70
-2
  9
$DIMTMOVE
 70
0
  9
$DIMFXL
 40
1.0
  9
$DIMFXLON
 70
0
  9
$DIMJOGANG
 40
0.785398163397
  9
$DIMTFILL
 70
0
  9
$DIMTFILLCLR
 70
0
  9
$DIMARCSYM
 70
0
  9
$DIMLTYPE
  6

  9
$DIMLTEX1
  6

  9
$DIMLTEX2
  6

  9
$DIMTXTDIRECTION
 70
0
  9
$LUNITS
 70
2
  9
$LUPREC
 70
4
  9
$SKETCHINC
 40
1.0
  9
$FILLETRAD
 40
10.0
  9
$AUNITS
 70
0
  9
$AUPREC
 70
2
  9
$MENU
  1
.
  9
$ELEVATION
 40
0.0
  9
$PELEVATION
 40
0.0
  9
$THICKNESS
 40
0.0
  9
$LIMCHECK
 70
0
  9
$CHAMFERA
 40
0.0
  9
$CHAMFERB
 40
0.0
  9
$CHAMFERC
 40
0.0
  9
$CHAMFERD
 40
0.0
  9
$SKPOLY
 70
0
  9
$TDCREATE
 40
2461175.929525463
  9
$TDUCREATE
 40
2458532.153996898
  9
$TDUPDATE
 40
2461175.929525463
  9
$TDUUPDATE
 40
2458532.1544311
  9
$TDINDWG
 40
0.0
  9
$TDUSRTIMER
 40
0.0
  9
$USRTIMER
 70
1
  9
$ANGBASE
 50
0.0
  9
$ANGDIR
 70
0
  9
$PDMODE
 70
0
  9
$PDSIZE
 40
0.0
  9
$PLINEWID
 40
0.0
  9
$SPLFRAME
 70
0
  9
$SPLINETYPE
 70
6
  9
$SPLINESEGS
 70
8
  9
$HANDSEED
  5
2A8
  9
$SURFTAB1
 70
6
  9
$SURFTAB2
 70
6
  9
$SURFTYPE
 70
6
  9
$SURFU
 70
6
  9
$SURFV
 70
6
  9
$UCSBASE
  2

  9
$UCSNAME
  2

  9
$UCSORG
 10
0.0
 20
0.0
 30
0.0
  9
$UCSXDIR
 10
1.0
 20
0.0
 30
0.0
  9
$UCSYDIR
 10
0.0
 20
1.0
 30
0.0
  9
$UCSORTHOREF
  2

  9
$UCSORTHOVIEW
 70
0
  9
$UCSORGTOP
 10
0.0
 20
0.0
 30
0.0
  9
$UCSORGBOTTOM
 10
0.0
 20
0.0
 30
0.0
  9
$UCSORGLEFT
 10
0.0
 20
0.0
 30
0.0
  9
$UCSORGRIGHT
 10
0.0
 20
0.0
 30
0.0
  9
$UCSORGFRONT
 10
0.0
 20
0.0
 30
0.0
  9
$UCSORGBACK
 10
0.0
 20
0.0
 30
0.0
  9
$PUCSBASE
  2

  9
$PUCSNAME
  2

  9
$PUCSORG
 10
0.0
 20
0.0
 30
0.0
  9
$PUCSXDIR
 10
1.0
 20
0.0
 30
0.0
  9
$PUCSYDIR
 10
0.0
 20
1.0
 30
0.0
  9
$PUCSORTHOREF
  2

  9
$PUCSORTHOVIEW
 70
0
  9
$PUCSORGTOP
 10
0.0
 20
0.0
 30
0.0
  9
$PUCSORGBOTTOM
 10
0.0
 20
0.0
 30
0.0
  9
$PUCSORGLEFT
 10
0.0
 20
0.0
 30
0.0
  9
$PUCSORGRIGHT
 10
0.0
 20
0.0
 30
0.0
  9
$PUCSORGFRONT
 10
0.0
 20
0.0
 30
0.0
  9
$PUCSORGBACK
 10
0.0
 20
0.0
 30
0.0
  9
$USERI1
 70
0
  9
$USERI2
 70
0
  9
$USERI3
 70
0
  9
$USERI4
 70
0
  9
$USERI5
 70
0
  9
$USERR1
 40
0.0
  9
$USERR2
 40
0.0
  9
$USERR3
 40
0.0
  9
$USERR4
 40
0.0
  9
$USERR5
 40
0.0
  9
$WORLDVIEW
 70
1
  9
$SHADEDGE
 70
3
  9
$SHADEDIF
 70
70
  9
$TILEMODE
 70
1
  9
$MAXACTVP
 70
64
  9
$PINSBASE
 10
0.0
 20
0.0
 30
0.0
  9
$PLIMCHECK
 70
0
  9
$PEXTMIN
 10
1e+20
 20
1e+20
 30
1e+20
  9
$PEXTMAX
 10
-1e+20
 20
-1e+20
 30
-1e+20
  9
$PLIMMIN
 10
0.0
 20
0.0
  9
$PLIMMAX
 10
420.0
 20
297.0
  9
$UNITMODE
 70
0
  9
$VISRETAIN
 70
1
  9
$PLINEGEN
 70
0
  9
$PSLTSCALE
 70
1
  9
$TREEDEPTH
 70
3020
  9
$CMLSTYLE
  2
Standard
  9
$CMLJUST
 70
0
  9
$CMLSCALE
 40
20.0
  9
$PROXYGRAPHICS
 70
1
  9
$MEASUREMENT
 70
1
  9
$CELWEIGHT
370
-1
  9
$ENDCAPS
280
0
  9
$JOINSTYLE
280
0
  9
$LWDISPLAY
290
0
  9
$INSUNITS
 70
6
  9
$HYPERLINKBASE
  1

  9
$STYLESHEET
  1

  9
$XEDIT
290
1
  9
$CEPSNTYPE
380
0
  9
$PSTYLEMODE
290
1
  9
$FINGERPRINTGUID
  2
{32F78B03-7A7E-42B7-A9EE-F58138EF68D8}
  9
$VERSIONGUID
  2
{0D1EEE58-4C49-44D0-9AD1-8759D756DD6C}
  9
$EXTNAMES
290
1
  9
$PSVPSCALE
 40
0.0
  9
$OLESTARTUP
290
0
  9
$SORTENTS
280
127
  9
$INDEXCTL
280
0
  9
$HIDETEXT
280
1
  9
$XCLIPFRAME
280
1
  9
$HALOGAP
280
0
  9
$OBSCOLOR
 70
257
  9
$OBSLTYPE
280
0
  9
$INTERSECTIONDISPLAY
280
0
  9
$INTERSECTIONCOLOR
 70
257
  9
$DIMASSOC
280
2
  9
$PROJECTNAME
  1

  9
$CAMERADISPLAY
290
0
  9
$LENSLENGTH
 40
50.0
  9
$CAMERAHEIGHT
 40
0.0
  9
$STEPSPERSEC
 40
24.0
  9
$STEPSIZE
 40
100.0
  9
$3DDWFPREC
 40
2.0
  9
$PSOLWIDTH
 40
0.005
  9
$PSOLHEIGHT
 40
0.08
  9
$LOFTANG1
 40
1.570796326795
  9
$LOFTANG2
 40
1.570796326795
  9
$LOFTMAG1
 40
0.0
  9
$LOFTMAG2
 40
0.0
  9
$LOFTPARAM
 70
7
  9
$LOFTNORMALS
280
1
  9
$LATITUDE
 40
37.795
  9
$LONGITUDE
 40
-122.394
  9
$NORTHDIRECTION
 40
0.0
  9
$TIMEZONE
 70
-8000
  9
$LIGHTGLYPHDISPLAY
280
1
  9
$TILEMODELIGHTSYNCH
280
1
  9
$CMATERIAL
347
20
  9
$SOLIDHIST
280
0
  9
$SHOWHIST
280
1
  9
$DWFFRAME
280
2
  9
$DGNFRAME
280
2
  9
$REALWORLDSCALE
290
1
  9
$INTERFERECOLOR
 62
256
  9
$CSHADOW
280
0
  9
$SHADOWPLANELOCATION
 40
0.0
  0
ENDSEC
  0
SECTION
  2
CLASSES
  0
CLASS
  1
ACDBDICTIONARYWDFLT
  2
AcDbDictionaryWithDefault
  3
ObjectDBX Classes
 90
0
 91
0
280
0
281
0
  0
CLASS
  1
SUN
  2
AcDbSun
  3
SCENEOE
 90
1153
 91
0
280
0
281
0
  0
CLASS
  1
VISUALSTYLE
  2
AcDbVisualStyle
  3
ObjectDBX Classes
 90
4095
 91
0
280
0
281
0
  0
CLASS
  1
MATERIAL
  2
AcDbMaterial
  3
ObjectDBX Classes
 90
1153
 91
0
280
0
281
0
  0
CLASS
  1
SCALE
  2
AcDbScale
  3
ObjectDBX Classes
 90
1153
 91
0
280
0
281
0
  0
CLASS
  1
TABLESTYLE
  2
AcDbTableStyle
  3
ObjectDBX Classes
 90
4095
 91
0
280
0
281
0
  0
CLASS
  1
MLEADERSTYLE
  2
AcDbMLeaderStyle
  3
ACDB_MLEADERSTYLE_CLASS
 90
4095
 91
0
280
0
281
0
  0
CLASS
  1
DICTIONARYVAR
  2
AcDbDictionaryVar
  3
ObjectDBX Classes
 90
0
 91
0
280
0
281
0
  0
CLASS
  1
CELLSTYLEMAP
  2
AcDbCellStyleMap
  3
ObjectDBX Classes
 90
1152
 91
0
280
0
281
0
  0
CLASS
  1
MENTALRAYRENDERSETTINGS
  2
AcDbMentalRayRenderSettings
  3
SCENEOE
 90
1024
 91
0
280
0
281
0
  0
CLASS
  1
ACDBDETAILVIEWSTYLE
  2
AcDbDetailViewStyle
  3
ObjectDBX Classes
 90
1025
 91
0
280
0
281
0
  0
CLASS
  1
ACDBSECTIONVIEWSTYLE
  2
AcDbSectionViewStyle
  3
ObjectDBX Classes
 90
1025
 91
0
280
0
281
0
  0
CLASS
  1
RASTERVARIABLES
  2
AcDbRasterVariables
  3
ISM
 90
0
 91
0
280
0
281
0
  0
CLASS
  1
ACDBPLACEHOLDER
  2
AcDbPlaceHolder
  3
ObjectDBX Classes
 90
0
 91
0
280
0
281
0
  0
CLASS
  1
LAYOUT
  2
AcDbLayout
  3
ObjectDBX Classes
 90
0
 91
0
280
0
281
0
  0
ENDSEC
  0
SECTION
  2
TABLES
  0
TABLE
  2
VPORT
  5
8
330
0
100
AcDbSymbolTable
 70
1
  0
VPORT
  5
23
330
8
100
AcDbSymbolTableRecord
100
AcDbViewportTableRecord
  2
*Active
 70
0
 10
0.0
 20
0.0
 11
1.0
 21
1.0
 12
0.0
 22
0.0
 13
0.0
 23
0.0
 14
0.5
 24
0.5
 15
0.5
 25
0.5
 16
0.0
 26
0.0
 36
1.0
 17
0.0
 27
0.0
 37
0.0
 40
1000.0
 41
1.34
 42
50.0
 43
0.0
 44
0.0
 50
0.0
 51
0.0
 71
0
 72
1000
 73
1
 74
3
 75
0
 76
0
 77
0
 78
0
281
0
 65
0
146
0.0
  0
ENDTAB
  0
TABLE
  2
LTYPE
  5
2
330
0
100
AcDbSymbolTable
 70
3
  0
LTYPE
  5
24
330
2
100
AcDbSymbolTableRecord
100
AcDbLinetypeTableRecord
  2
ByBlock
 70
0
  3

 72
65
 73
0
 40
0.0
  0
LTYPE
  5
25
330
2
100
AcDbSymbolTableRecord
100
AcDbLinetypeTableRecord
  2
ByLayer
 70
0
  3

 72
65
 73
0
 40
0.0
  0
LTYPE
  5
26
330
2
100
AcDbSymbolTableRecord
100
AcDbLinetypeTableRecord
  2
Continuous
 70
0
  3

 72
65
 73
0
 40
0.0
  0
ENDTAB
  0
TABLE
  2
LAYER
  5
1
330
0
100
AcDbSymbolTable
 70
2
  0
LAYER
  5
27
330
1
100
AcDbSymbolTableRecord
100
AcDbLayerTableRecord
  2
0
 70
0
 62
7
  6
Continuous
370
-3
390
13
347
21
  0
LAYER
  5
28
330
1
100
AcDbSymbolTableRecord
100
AcDbLayerTableRecord
  2
Defpoints
 70
0
 62
7
  6
Continuous
290
0
370
-3
390
13
347
21
  0
ENDTAB
  0
TABLE
  2
STYLE
  5
5
330
0
100
AcDbSymbolTable
 70
1
  0
STYLE
  5
29
330
5
100
AcDbSymbolTableRecord
100
AcDbTextStyleTableRecord
  2
Standard
 70
0
 40
0.0
 41
1.0
 50
0.0
 71
0
 42
2.5
  3
txt
  4

  0
ENDTAB
  0
TABLE
  2
VIEW
  5
7
330
0
100
AcDbSymbolTable
 70
0
  0
ENDTAB
  0
TABLE
  2
UCS
  5
6
330
0
100
AcDbSymbolTable
 70
0
  0
ENDTAB
  0
TABLE
  2
APPID
  5
3
330
0
100
AcDbSymbolTable
 70
3
  0
APPID
  5
2A
330
3
100
AcDbSymbolTableRecord
100
AcDbRegAppTableRecord
  2
ACAD
 70
0
  0
APPID
  5
2A5
330
3
100
AcDbSymbolTableRecord
100
AcDbRegAppTableRecord
  2
HATCHBACKGROUNDCOLOR
 70
0
  0
APPID
  5
2A6
330
3
100
AcDbSymbolTableRecord
100
AcDbRegAppTableRecord
  2
EZDXF
 70
0
  0
ENDTAB
  0
TABLE
  2
DIMSTYLE
  5
4
330
0
100
AcDbSymbolTable
 70
1
100
AcDbDimStyleTable
  0
DIMSTYLE
105
2B
330
4
100
AcDbSymbolTableRecord
100
AcDbDimStyleTableRecord
  2
Standard
 70
0
 40
1.0
 41
2.5
 42
0.625
 43
3.75
 44
1.25
 45
0.0
 46
0.0
 47
0.0
 48
0.0
 49
2.5
140
2.5
141
2.5
142
0.0
143
0.03937007874
144
1.0
145
0.0
146
1.0
147
0.625
148
0.0
 69
0
 70
0
 71
0
 72
0
 73
0
 74
0
 75
0
 76
0
 77
1
 78
8
 79
3
170
0
171
3
172
1
173
0
174
0
175
0
176
0
177
0
178
0
179
2
271
2
272
2
273
2
274
3
275
0
276
0
277
2
278
44
279
0
280
0
281
0
282
0
283
0
284
8
285
0
286
0
288
0
289
3
290
0
371
-2
372
-2
  0
ENDTAB
  0
TABLE
  2
BLOCK_RECORD
  5
9
330
0
100
AcDbSymbolTable
 70
2
  0
BLOCK_RECORD
  5
17
330
9
100
AcDbSymbolTableRecord
100
AcDbBlockTableRecord
  2
*Model_Space
340
1A
 70
0
280
1
281
0
  0
BLOCK_RECORD
  5
1B
330
9
100
AcDbSymbolTableRecord
100
AcDbBlockTableRecord
  2
*Paper_Space
340
1E
 70
0
280
1
281
0
  0
ENDTAB
  0
ENDSEC
  0
SECTION
  2
BLOCKS
  0
BLOCK
  5
18
330
17
100
AcDbEntity
  8
0
100
AcDbBlockBegin
  2
*Model_Space
 70
0
 10
0.0
 20
0.0
 30
0.0
  3
*Model_Space
  1

  0
ENDBLK
  5
19
330
17
100
AcDbEntity
  8
0
100
AcDbBlockEnd
  0
BLOCK
  5
1C
330
1B
100
AcDbEntity
  8
0
100
AcDbBlockBegin
  2
*Paper_Space
 70
0
 10
0.0
 20
0.0
 30
0.0
  3
*Paper_Space
  1

  0
ENDBLK
  5
1D
330
1B
100
AcDbEntity
  8
0
100
AcDbBlockEnd
  0
ENDSEC
  0
SECTION
  2
ENTITIES
  0
ARC
  5
2F
330
17
100
AcDbEntity
  8
0
100
AcDbCircle
 10
0.0
 20
0.0
 30
0.0
 40
100.0
100
AcDbArc
 50
89.12621359223301
 51
90.0
  0
LINE
  5
30
330
17
100
AcDbEntity
  8
0
100
AcDbLine
 10
1.524985863292599
 20
99.98837141446378
 30
0.0
 11
1.6012351564572291
 21
104.98778998518698
 31
0.0
  0
ARC
  5
31
330
17
100
AcDbEntity
  8
0
100
AcDbCircle
 10
0.0
 20
0.0
 30
0.0
 40
105.0
100
AcDbArc
 50
88.25242718446601
 51
89.12621359223301
  0
ARC
  5
32
330
17
100
AcDbEntity
  8
0
100
AcDbCircle
 10
0.0
 20
0.0
 30
0.0
 40
105.0
100
AcDbArc
 50
87.37864077669903
 51
88.25242718446601
  0
ARC
  5
33
330
17
100
AcDbEntity
  8
0
100
AcDbCircle
 10
0.0
 20
0.0
 30
0.0
 40
105.0
100
AcDbArc
 50
86.50485436893204
 51
87.37864077669903
  0
ARC
  5
34
330
17
100
AcDbEntity
  8
0
100
AcDbCircle
 10
0.0
 20
0.0
 30
0.0
 40
105.0
100
AcDbArc
 50
85.63106796116504
 51
86.50485436893204
  0
LINE
  5
35
330
17
100
AcDbEntity
  8
0
100
AcDbLine
 10
7.998729560946391
 20
104.69489159176221
 30
0.0
 11
7.6178376770918
 21
99.70942056358307
 31
0.0
  0
ARC
  5
36
330
17
100
AcDbEntity
  8
0
100
AcDbCircle
 10
0.0
 20
0.0
 30
0.0
 40
100.0
100
AcDbArc
 50
84.75728155339806
 51
85.63106796116504
  0
LINE
  5
37
330
17
100
AcDbEntity
  8
0
100
AcDbLine
 10
9.137506398287108
 20
99.58165482066093
 30
0.0
 11
9.594381718201463
 21
104.56073756169397
 31
0.0
  0
ARC
  5
38
330
17
100
AcDbEntity
  8
0
100
AcDbCircle
 10
0.0
 20
0.0
 30
0.0
 40
105.0
100
AcDbArc
 50
83.88349514563107
 51
84.75728155339806
  0
LINE
  5
39
330
17
100
AcDbEntity
  8
0
100
AcDbLine
 10
11.187802493686991
 20
104.4022656620164
 30
0.0
 11
10.655049993987612
 21
99.43072920192039
 31
0.0
  0
ARC
  5
3A
330
17
100
AcDbEntity
  8
0
100
AcDbCircle
 10
0.0
 20
0.0
 30
0.0
 40
100.0
100
AcDbArc
 50
83.00970873786407
 51
83.88349514563107
  0
ARC
  5
3B
330
17
100
AcDbEntity
  8
0
100
AcDbCircle
 10
0.0
 20
0.0
 30
0.0
 40
100.0
100
AcDbArc
 50
82.13592233009709
 51
83.00970873786407
  0
ARC
  5
3C
330
17
100
AcDbEntity
  8
0
100
AcDbCircle
 10
0.0
 20
0.0
 30
0.0
 40
100.0
100
AcDbArc
 50
81.2621359223301
 51
82.13592233009709
  0
LINE
  5
3D
330
17
100
AcDbEntity
  8
0
100
AcDbLine
 10
15.191403614605093
 20
98.8393709825096
 30
0.0
 11
15.950973795335347
 21
103.7813395316351
 31
0.0
  0
ARC
  5
3E
330
17
100
AcDbEntity
  8
0
100
AcDbCircle
 10
0.0
 20
0.0
 30
0.0
 40
105.0
100
AcDbArc
 50
80.3883495145631
 51
81.2621359223301
  0
ARC
  5
3F
330
17
100
AcDbEntity
  8
0
100
AcDbCircle
 10
0.0
 20
0.0
 30
0.0
 40
105.0
100
AcDbArc
 50
79.51456310679612
 51
80.3883495145631
  0
ARC
  5
40
330
17
100
AcDbEntity
  8
0
100
AcDbCircle
 10
0.0
 20
0.0
 30
0.0
 40
105.0
100
AcDbArc
 50
78.64077669902913
 51
79.51456310679612
  0
ARC
  5
41
330
17
100
AcDbEntity
  8
0
100
AcDbCircle
 10
0.0
 20
0.0
 30
0.0
 40
105.0
100
AcDbArc
 50
77.76699029126213
 51
78.64077669902913
  0
LINE
  5
42
330
17
100
AcDbEntity
  8
0
100
AcDbLine
 10
22.24822720228724
 20
102.61586810213811
 30
0.0
 11
21.18878781170213
 21
97.72939819251249
 31
0.0
  0
ARC
  5
43
330
17
100
AcDbEntity
  8
0
100
AcDbCircle
 10
0.0
 20
0.0
 30
0.0
 40
100.0
100
AcDbArc
 50
76.89320388349515
 51
77.76699029126213
  0
ARC
  5
44
330
17
100
AcDbEntity
  8
0
100
AcDbCircle
 10
0.0
 20
0.0
 30
0.0
 40
100.0
100
AcDbArc
 50
76.01941747572816
 51
76.89320388349515
  0
LINE
  5
45
330
17
100
AcDbEntity
  8
0
100
AcDbLine
 10
24.159304957462993
 20
97.03776576144107
 30
0.0
 11
25.367270205336144
 21
101.88965404951311
 31
0.0
  0
ARC
  5
46
330
17
100
AcDbEntity
  8
0
100
AcDbCircle
 10
0.0
 20
0.0
 30
0.0
 40
105.0
100
AcDbArc
 50
75.14563106796116
 51
76.01941747572816
  0
ARC
  5
47
330
17
100
AcDbEntity
  8
0
100
AcDbCircle
 10
0.0
 20
0.0
 30
0.0
 40
105.0
100
AcDbArc
 50
74.27184466019418
 51
75.14563106796116
  0
LINE
  5
48
330
17
100
AcDbEntity
  8
0
100
AcDbLine
 10
28.462715742778332
 20
101.06865890346917
 30
0.0
 11
27.107348326455554
 21
96.25586562235159
 31
0.0
  0
ARC
  5
49
330
17
100
AcDbEntity
  8
0
100
AcDbCircle
 10
0.0
 20
0.0
 30
0.0
 40
100.0
100
AcDbArc
 50
73.39805825242719
 51
74.27184466019418
  0
LINE
  5
4A
330
17
100
AcDbEntity
  8
0
100
AcDbLine
 10
28.572084468599567
 20
95.83128919679214
 30
0.0
 11
30.000688692029545
 21
100.62285365663175
 31
0.0
  0
ARC
  5
4B
330
17
100
AcDbEntity
  8
0
100
AcDbCircle
 10
0.0
 20
0.0
 30
0.0
 40
105.0
100
AcDbArc
 50
72.52427184466019
 51
73.39805825242718
  0
ARC
  5
4C
330
17
100
AcDbEntity
  8
0
100
AcDbCircle
 10
0.0
 20
0.0
 30
0.0
 40
105.0
100
AcDbArc
 50
71.6504854368932
 51
72.52427184466019
  0
ARC
  5
4D
330
17
100
AcDbEntity
  8
0
100
AcDbCircle
 10
0.0
 20
0.0
 30
0.0
 40
105.0
100
AcDbArc
 50
70.77669902912622
 51
71.6504854368932
  0
ARC
  5
4E
330
17
100
AcDbEntity
  8
0
100
AcDbCircle
 10
0.0
 20
0.0
 30
0.0
 40
105.0
100
AcDbArc
 50
69.90291262135922
 51
70.7766990291262
  0
LINE
  5
4F
330
17
100
AcDbEntity
  8
0
100
AcDbLine
 10
36.079255321463876
 20
98.60673068025642
 30
0.0
 11
34.36119554425131
 21
93.91117207643468
 31
0.0
  0
ARC
  5
50
330
17
100
AcDbEntity
  8
0
100
AcDbCircle
 10
0.0
 20
0.0
 30
0.0
 40
100.0
100
AcDbArc
 50
69.02912621359224
 51
69.90291262135922
  0
ARC
  5
51
330
17
100
AcDbEntity
  8
0
100
AcDbCircle
 10
0.0
 20
0.0
 30
0.0
 40
100.0
100
AcDbArc
 50
68.15533980582525
 51
69.02912621359224
  0
LINE
  5
52
330
17
100
AcDbEntity
  8
0
100
AcDbLine
 10
37.209144712506415
 20
92.8196075716966
 30
0.0
 11
39.069601948131734
 21
97.46058795028142
 31
0.0
  0
ARC
  5
53
330
17
100
AcDbEntity
  8
0
100
AcDbCircle
 10
0.0
 20
0.0
 30
0.0
 40
105.0
100
AcDbArc
 50
67.28155339805825
 51
68.15533980582524
  0
LINE
  5
54
330
17
100
AcDbEntity
  8
0
100
AcDbLine
 10
40.551318894574194
 20
96.85344875589382
 30
0.0
 11
38.62030370911828
 21
92.24137976751793
 31
0.0
  0
ARC
  5
55
330
17
100
AcDbEntity
  8
0
100
AcDbCircle
 10
0.0
 20
0.0
 30
0.0
 40
100.0
100
AcDbArc
 50
66.40776699029126
 51
67.28155339805825
  0
ARC
  5
56
330
17
100
AcDbEntity
  8
0
100
AcDbCircle
 10
0.0
 20
0.0
 30
0.0
 40
100.0
100
AcDbArc
 50
65.53398058252428
 51
66.40776699029126
  0
LINE
  5
57
330
17
100
AcDbEntity
  8
0
100
AcDbLine
 10
41.41534962532983
 20
91.02070542141327
 30
0.0
 11
43.486117106596325
 21
95.57174069248394
 31
0.0
  0
ARC
  5
58
330
17
100
AcDbEntity
  8
0
100
AcDbCircle
 10
0.0
 20
0.0
 30
0.0
 40
105.0
100
AcDbArc
 50
64.66019417475728
 51
65.53398058252426
  0
ARC
  5
59
330
17
100
AcDbEntity
  8
0
100
AcDbCircle
 10
0.0
 20
0.0
 30
0.0
 40
105.0
100
AcDbArc
 50
63.786407766990294
 51
64.66019417475728
  0
ARC
  5
5A
330
17
100
AcDbEntity
  8
0
100
AcDbCircle
 10
0.0
 20
0.0
 30
0.0
 40
105.0
100
AcDbArc
 50
62.91262135922331
 51
63.786407766990294
  0
ARC
  5
5B
330
17
100
AcDbEntity
  8
0
100
AcDbCircle
 10
0.0
 20
0.0
 30
0.0
 40
105.0
100
AcDbArc
 50
62.03883495145631
 51
62.9126213592233
  0
LINE
  5
5C
330
17
100
AcDbEntity
  8
0
100
AcDbLine
 10
49.231664483851844
 20
92.74288766341837
 30
0.0
 11
46.88729950843033
 21
88.32655967944606
 31
0.0
  0
ARC
  5
5D
330
17
100
AcDbEntity
  8
0
100
AcDbCircle
 10
0.0
 20
0.0
 30
0.0
 40
100.0
100
AcDbArc
 50
61.16504854368932
 51
62.03883495145631
  0
ARC
  5
5E
330
17
100
AcDbEntity
  8
0
100
AcDbCircle
 10
0.0
 20
0.0
 30
0.0
 40
100.0
100
AcDbArc
 50
60.29126213592234
 51
61.16504854368932
  0
ARC
  5
5F
330
17
100
AcDbEntity
  8
0
100
AcDbCircle
 10
0.0
 20
0.0
 30
0.0
 40
100.0
100
AcDbArc
 50
59.41747572815534
 51
60.29126213592233
  0
LINE
  5
60
330
17
100
AcDbEntity
  8
0
100
AcDbLine
 10
50.87788580152205
 20
86.08972491747944
 30
0.0
 11
53.42178009159815
 21
90.39421116335342
 31
0.0
  0
ARC
  5
61
330
17
100
AcDbEntity
  8
0
100
AcDbCircle
 10
0.0
 20
0.0
 30
0.0
 40
105.0
100
AcDbArc
 50
58.54368932038835
 51
59.41747572815534
  0
LINE
  5
62
330
17
100
AcDbEntity
  8
0
100
AcDbLine
 10
54.79406683568122
 20
89.56902500087237
 30
0.0
 11
52.18482555779163
 21
85.30383333416415
 31
0.0
  0
ARC
  5
63
330
17
100
AcDbEntity
  8
0
100
AcDbCircle
 10
0.0
 20
0.0
 30
0.0
 40
100.0
100
AcDbArc
 50
57.66990291262136
 51
58.54368932038835
  0
LINE
  5
64
330
17
100
AcDbEntity
  8
0
100
AcDbLine
 10
53.47962859990743
 20
84.49810249239898
 30
0.0
 11
56.153610029902794
 21
88.72300761701894
 31
0.0
  0
ARC
  5
65
330
17
100
AcDbEntity
  8
0
100
AcDbCircle
 10
0.0
 20
0.0
 30
0.0
 40
105.0
100
AcDbArc
 50
56.79611650485437
 51
57.66990291262136
  0
ARC
  5
66
330
17
100
AcDbEntity
  8
0
100
AcDbCircle
 10
0.0
 20
0.0
 30
0.0
 40
105.0
100
AcDbArc
 50
55.922330097087375
 51
56.79611650485437
  0
ARC
  5
67
330
17
100
AcDbEntity
  8
0
100
AcDbCircle
 10
0.0
 20
0.0
 30
0.0
 40
105.0
100
AcDbArc
 50
55.04854368932039
 51
55.92233009708738
  0
ARC
  5
68
330
17
100
AcDbEntity
  8
0
100
AcDbCircle
 10
0.0
 20
0.0
 30
0.0
 40
105.0
100
AcDbArc
 50
54.1747572815534
 51
55.04854368932039
  0
LINE
  5
69
330
17
100
AcDbEntity
  8
0
100
AcDbLine
 10
61.458069478600414
 20
85.13463276460129
 30
0.0
 11
58.531494741524206
 21
81.08060263295361
 31
0.0
  0
ARC
  5
6A
330
17
100
AcDbEntity
  8
0
100
AcDbCircle
 10
0.0
 20
0.0
 30
0.0
 40
100.0
100
AcDbArc
 50
53.300970873786405
 51
54.1747572815534
  0
ARC
  5
6B
330
17
100
AcDbEntity
  8
0
100
AcDbCircle
 10
0.0
 20
0.0
 30
0.0
 40
100.0
100
AcDbArc
 50
52.42718446601942
 51
53.30097087378641
  0
ARC
  5
6C
330
17
100
AcDbEntity
  8
0
100
AcDbCircle
 10
0.0
 20
0.0
 30
0.0
 40
100.0
100
AcDbArc
 50
51.55339805825243
 51
52.42718446601942
  0
ARC
  5
6D
330
17
100
AcDbEntity
  8
0
100
AcDbCircle
 10
0.0
 20
0.0
 30
0.0
 40
100.0
100
AcDbArc
 50
50.679611650485434
 51
51.55339805825243
  0
ARC
  5
6E
330
17
100
AcDbEntity
  8
0
100
AcDbCircle
 10
0.0
 20
0.0
 30
0.0
 40
100.0
100
AcDbArc
 50
49.80582524271845
 51
50.67961165048544
  0
LINE
  5
6F
330
17
100
AcDbEntity
  8
0
100
AcDbLine
 10
64.5380029501641
 20
76.38616481539448
 30
0.0
 11
67.7649030976723
 21
80.20547305616421
 31
0.0
  0
ARC
  5
70
330
17
100
AcDbEntity
  8
0
100
AcDbCircle
 10
0.0
 20
0.0
 30
0.0
 40
105.0
100
AcDbArc
 50
48.932038834951456
 51
49.80582524271845
  0
ARC
  5
71
330
17
100
AcDbEntity
  8
0
100
AcDbCircle
 10
0.0
 20
0.0
 30
0.0
 40
105.0
100
AcDbArc
 50
48.05825242718446
 51
48.932038834951456
  0
ARC
  5
72
330
17
100
AcDbEntity
  8
0
100
AcDbCircle
 10
0.0
 20
0.0
 30
0.0
 40
105.0
100
AcDbArc
 50
47.18446601941748
 51
48.05825242718447
  0
LINE
  5
73
330
17
100
AcDbEntity
  8
0
100
AcDbLine
 10
71.36222178471122
 20
77.02229094197138
 30
0.0
 11
67.96402074734402
 21
73.35456280187749
 31
0.0
  0
ARC
  5
74
330
17
100
AcDbEntity
  8
0
100
AcDbCircle
 10
0.0
 20
0.0
 30
0.0
 40
100.0
100
AcDbArc
 50
46.310679611650485
 51
47.18446601941748
  0
LINE
  5
75
330
17
100
AcDbEntity
  8
0
100
AcDbLine
 10
69.0747642058663
 20
72.30959099527512
 30
0.0
 11
72.52850241615961
 21
75.92507054503888
 31
0.0
  0
ARC
  5
76
330
17
100
AcDbEntity
  8
0
100
AcDbCircle
 10
0.0
 20
0.0
 30
0.0
 40
105.0
100
AcDbArc
 50
45.43689320388349
 51
46.310679611650485
  0
ARC
  5
77
330
17
100
AcDbEntity
  8
0
100
AcDbCircle
 10
0.0
 20
0.0
 30
0.0
 40
105.0
100
AcDbArc
 50
44.56310679611651
 51
45.4368932038835
  0
ARC
  5
78
330
17
100
AcDbEntity
  8
0
100
AcDbCircle
 10
0.0
 20
0.0
 30
0.0
 40
105.0
100
AcDbArc
 50
43.689320388349515
 51
44.56310679611651
  0
LINE
  5
79
330
17
100
AcDbEntity
  8
0
100
AcDbLine
 10
75.92507054503886
 20
72.52850241615961
 30
0.0
 11
72.3095909952751
 21
69.0747642058663
 31
0.0
  0
ARC
  5
7A
330
17
100
AcDbEntity
  8
0
100
AcDbCircle
 10
0.0
 20
0.0
 30
0.0
 40
100.0
100
AcDbArc
 50
42.81553398058252
 51
43.689320388349515
  0
ARC
  5
7B
330
17
100
AcDbEntity
  8
0
100
AcDbCircle
 10
0.0
 20
0.0
 30
0.0
 40
100.0
100
AcDbArc
 50
41.94174757281554
 51
42.81553398058253
  0
LINE
  5
7C
330
17
100
AcDbEntity
  8
0
100
AcDbLine
 10
74.3824744123196
 20
66.83747078024885
 30
0.0
 11
78.10159813293558
 21
70.17934431926129
 31
0.0
  0
ARC
  5
7D
330
17
100
AcDbEntity
  8
0
100
AcDbCircle
 10
0.0
 20
0.0
 30
0.0
 40
105.0
100
AcDbArc
 50
41.067961165048544
 51
41.94174757281554
  0
ARC
  5
7E
330
17
100
AcDbEntity
  8
0
100
AcDbCircle
 10
0.0
 20
0.0
 30
0.0
 40
105.0
100
AcDbArc
 50
40.19417475728155
 51
41.067961165048544
  0
ARC
  5
7F
330
17
100
AcDbEntity
  8
0
100
AcDbCircle
 10
0.0
 20
0.0
 30
0.0
 40
105.0
100
AcDbArc
 50
39.320388349514566
 51
40.19417475728156
  0
LINE
  5
80
330
17
100
AcDbEntity
  8
0
100
AcDbLine
 10
81.22955148663857
 20
66.5339008722586
 30
0.0
 11
77.36147760632245
 21
63.36561987834152
 31
0.0
  0
ARC
  5
81
330
17
100
AcDbEntity
  8
0
100
AcDbCircle
 10
0.0
 20
0.0
 30
0.0
 40
100.0
100
AcDbArc
 50
38.44660194174757
 51
39.320388349514566
  0
LINE
  5
82
330
17
100
AcDbEntity
  8
0
100
AcDbLine
 10
78.31879830605935
 20
62.17849975590273
 30
0.0
 11
82.23473822136232
 21
65.28742474369787
 31
0.0
  0
ARC
  5
83
330
17
100
AcDbEntity
  8
0
100
AcDbCircle
 10
0.0
 20
0.0
 30
0.0
 40
105.0
100
AcDbArc
 50
37.57281553398058
 51
38.44660194174757
  0
ARC
  5
84
330
17
100
AcDbEntity
  8
0
100
AcDbCircle
 10
0.0
 20
0.0
 30
0.0
 40
105.0
100
AcDbArc
 50
36.699029126213595
 51
37.57281553398059
  0
LINE
  5
85
330
17
100
AcDbEntity
  8
0
100
AcDbLine
 10
84.18750593960812
 20
62.74921388884843
 30
0.0
 11
80.17857708534106
 21
59.761156084617554
 31
0.0
  0
ARC
  5
86
330
17
100
AcDbEntity
  8
0
100
AcDbCircle
 10
0.0
 20
0.0
 30
0.0
 40
100.0
100
AcDbArc
 50
35.8252427184466
 51
36.699029126213595
  0
LINE
  5
87
330
17
100
AcDbEntity
  8
0
100
AcDbLine
 10
81.08060263295361
 20
58.531494741524206
 30
0.0
 11
85.13463276460129
 21
61.458069478600414
 31
0.0
  0
ARC
  5
88
330
17
100
AcDbEntity
  8
0
100
AcDbCircle
 10
0.0
 20
0.0
 30
0.0
 40
105.0
100
AcDbArc
 50
34.95145631067961
 51
35.8252427184466
  0
LINE
  5
89
330
17
100
AcDbEntity
  8
0
100
AcDbLine
 10
86.06195968241052
 20
60.15263165999595
 30
0.0
 11
81.96377112610526
 21
57.288220628567565
 31
0.0
  0
ARC
  5
8A
330
17
100
AcDbEntity
  8
0
100
AcDbCircle
 10
0.0
 20
0.0
 30
0.0
 40
100.0
100
AcDbArc
 50
34.077669902912625
 51
34.95145631067962
  0
LINE
  5
8B
330
17
100
AcDbEntity
  8
0
100
AcDbLine
 10
82.82787716478867
 20
56.03162289613499
 30
0.0
 11
86.96927102302811
 21
58.833204040941744
 31
0.0
  0
ARC
  5
8C
330
17
100
AcDbEntity
  8
0
100
AcDbCircle
 10
0.0
 20
0.0
 30
0.0
 40
105.0
100
AcDbArc
 50
33.20388349514563
 51
34.077669902912625
  0
ARC
  5
8D
330
17
100
AcDbEntity
  8
0
100
AcDbCircle
 10
0.0
 20
0.0
 30
0.0
 40
105.0
100
AcDbArc
 50
32.33009708737864
 51
33.20388349514563
  0
ARC
  5
8E
330
17
100
AcDbEntity
  8
0
100
AcDbCircle
 10
0.0
 20
0.0
 30
0.0
 40
105.0
100
AcDbArc
 50
31.456310679611654
 51
32.33009708737865
  0
LINE
  5
8F
330
17
100
AcDbEntity
  8
0
100
AcDbLine
 10
89.56902500087236
 20
54.79406683568124
 30
0.0
 11
85.30383333416415
 21
52.18482555779166
 31
0.0
  0
ARC
  5
90
330
17
100
AcDbEntity
  8
0
100
AcDbCircle
 10
0.0
 20
0.0
 30
0.0
 40
100.0
100
AcDbArc
 50
30.58252427184466
 51
31.456310679611654
  0
LINE
  5
91
330
17
100
AcDbEntity
  8
0
100
AcDbLine
 10
86.08972491747944
 20
50.87788580152205
 30
0.0
 11
90.3942111633534
 21
53.42178009159815
 31
0.0
  0
ARC
  5
92
330
17
100
AcDbEntity
  8
0
100
AcDbCircle
 10
0.0
 20
0.0
 30
0.0
 40
105.0
100
AcDbArc
 50
29.70873786407767
 51
30.58252427184466
  0
ARC
  5
93
330
17
100
AcDbEntity
  8
0
100
AcDbCircle
 10
0.0
 20
0.0
 30
0.0
 40
105.0
100
AcDbArc
 50
28.834951456310684
 51
29.708737864077676
  0
LINE
  5
94
330
17
100
AcDbEntity
  8
0
100
AcDbLine
 10
91.9813270537553
 20
50.640255463712904
 30
0.0
 11
87.60126386071933
 21
48.22881472734562
 31
0.0
  0
ARC
  5
95
330
17
100
AcDbEntity
  8
0
100
AcDbCircle
 10
0.0
 20
0.0
 30
0.0
 40
100.0
100
AcDbArc
 50
27.96116504854369
 51
28.834951456310684
  0
ARC
  5
96
330
17
100
AcDbEntity
  8
0
100
AcDbCircle
 10
0.0
 20
0.0
 30
0.0
 40
100.0
100
AcDbArc
 50
27.0873786407767
 51
27.96116504854369
  0
ARC
  5
97
330
17
100
AcDbEntity
  8
0
100
AcDbCircle
 10
0.0
 20
0.0
 30
0.0
 40
100.0
100
AcDbArc
 50
26.213592233009713
 51
27.087378640776706
  0
LINE
  5
98
330
17
100
AcDbEntity
  8
0
100
AcDbLine
 10
89.71536063389742
 20
44.17186962683071
 30
0.0
 11
94.2011286655923
 21
46.38046310817225
 31
0.0
  0
ARC
  5
99
330
17
100
AcDbEntity
  8
0
100
AcDbCircle
 10
0.0
 20
0.0
 30
0.0
 40
105.0
100
AcDbArc
 50
25.33980582524272
 51
26.213592233009713
  0
ARC
  5
9A
330
17
100
AcDbEntity
  8
0
100
AcDbCircle
 10
0.0
 20
0.0
 30
0.0
 40
105.0
100
AcDbArc
 50
24.466019417475735
 51
25.33980582524272
  0
ARC
  5
9B
330
17
100
AcDbEntity
  8
0
100
AcDbCircle
 10
0.0
 20
0.0
 30
0.0
 40
105.0
100
AcDbArc
 50
23.59223300970875
 51
24.466019417475735
  0
LINE
  5
9C
330
17
100
AcDbEntity
  8
0
100
AcDbLine
 10
96.22378418923951
 20
42.023604751409195
 30
0.0
 11
91.64169922784716
 21
40.02248071562781
 31
0.0
  0
ARC
  5
9D
330
17
100
AcDbEntity
  8
0
100
AcDbCircle
 10
0.0
 20
0.0
 30
0.0
 40
100.0
100
AcDbArc
 50
22.71844660194175
 51
23.592233009708735
  0
LINE
  5
9E
330
17
100
AcDbEntity
  8
0
100
AcDbLine
 10
92.24137976751793
 20
38.62030370911827
 30
0.0
 11
96.85344875589382
 21
40.55131889457418
 31
0.0
  0
ARC
  5
9F
330
17
100
AcDbEntity
  8
0
100
AcDbCircle
 10
0.0
 20
0.0
 30
0.0
 40
105.0
100
AcDbArc
 50
21.844660194174764
 51
22.71844660194175
  0
LINE
  5
A0
330
17
100
AcDbEntity
  8
0
100
AcDbLine
 10
97.46058795028142
 20
39.06960194813175
 30
0.0
 11
92.8196075716966
 21
37.20914471250643
 31
0.0
  0
ARC
  5
A1
330
17
100
AcDbEntity
  8
0
100
AcDbCircle
 10
0.0
 20
0.0
 30
0.0
 40
100.0
100
AcDbArc
 50
20.97087378640778
 51
21.844660194174764
  0
LINE
  5
A2
330
17
100
AcDbEntity
  8
0
100
AcDbLine
 10
93.37624816095354
 20
35.789331921454206
 30
0.0
 11
98.04506056900121
 21
37.57879851752691
 31
0.0
  0
ARC
  5
A3
330
17
100
AcDbEntity
  8
0
100
AcDbCircle
 10
0.0
 20
0.0
 30
0.0
 40
105.0
100
AcDbArc
 50
20.09708737864078
 51
20.970873786407765
  0
ARC
  5
A4
330
17
100
AcDbEntity
  8
0
100
AcDbCircle
 10
0.0
 20
0.0
 30
0.0
 40
105.0
100
AcDbArc
 50
19.223300970873794
 51
20.09708737864078
  0
LINE
  5
A5
330
17
100
AcDbEntity
  8
0
100
AcDbLine
 10
99.14546765546835
 20
34.57132111126908
 30
0.0
 11
94.42425490996986
 21
32.92506772501817
 31
0.0
  0
ARC
  5
A6
330
17
100
AcDbEntity
  8
0
100
AcDbCircle
 10
0.0
 20
0.0
 30
0.0
 40
100.0
100
AcDbArc
 50
18.34951456310681
 51
19.223300970873794
  0
LINE
  5
A7
330
17
100
AcDbEntity
  8
0
100
AcDbLine
 10
94.91537733300676
 20
31.48128246645851
 30
0.0
 11
99.6611461996571
 21
33.055346589781436
 31
0.0
  0
ARC
  5
A8
330
17
100
AcDbEntity
  8
0
100
AcDbCircle
 10
0.0
 20
0.0
 30
0.0
 40
105.0
100
AcDbArc
 50
17.47572815533981
 51
18.349514563106794
  0
ARC
  5
A9
330
17
100
AcDbEntity
  8
0
100
AcDbCircle
 10
0.0
 20
0.0
 30
0.0
 40
105.0
100
AcDbArc
 50
16.601941747572823
 51
17.47572815533981
  0
ARC
  5
AA
330
17
100
AcDbEntity
  8
0
100
AcDbCircle
 10
0.0
 20
0.0
 30
0.0
 40
105.0
100
AcDbArc
 50
15.728155339805838
 51
16.601941747572823
  0
LINE
  5
AB
330
17
100
AcDbEntity
  8
0
100
AcDbLine
 10
101.06865890346917
 20
28.462715742778343
 30
0.0
 11
96.25586562235159
 21
27.107348326455565
 31
0.0
  0
ARC
  5
AC
330
17
100
AcDbEntity
  8
0
100
AcDbCircle
 10
0.0
 20
0.0
 30
0.0
 40
100.0
100
AcDbArc
 50
14.854368932038838
 51
15.728155339805824
  0
LINE
  5
AD
330
17
100
AcDbEntity
  8
0
100
AcDbLine
 10
96.658055656576
 20
25.63630778193803
 30
0.0
 11
101.4909584394048
 21
26.918123171034928
 31
0.0
  0
ARC
  5
AE
330
17
100
AcDbEntity
  8
0
100
AcDbCircle
 10
0.0
 20
0.0
 30
0.0
 40
105.0
100
AcDbArc
 50
13.980582524271853
 51
14.854368932038838
  0
LINE
  5
AF
330
17
100
AcDbEntity
  8
0
100
AcDbLine
 10
101.88965404951311
 20
25.367270205336162
 30
0.0
 11
97.03776576144107
 21
24.15930495746301
 31
0.0
  0
ARC
  5
B0
330
17
100
AcDbEntity
  8
0
100
AcDbCircle
 10
0.0
 20
0.0
 30
0.0
 40
100.0
100
AcDbArc
 50
13.106796116504867
 51
13.980582524271853
  0
LINE
  5
B1
330
17
100
AcDbEntity
  8
0
100
AcDbLine
 10
97.39490762711812
 20
22.67668336210412
 30
0.0
 11
102.26465300847401
 21
23.810517530209328
 31
0.0
  0
ARC
  5
B2
330
17
100
AcDbEntity
  8
0
100
AcDbCircle
 10
0.0
 20
0.0
 30
0.0
 40
105.0
100
AcDbArc
 50
12.233009708737868
 51
13.106796116504853
  0
LINE
  5
B3
330
17
100
AcDbEntity
  8
0
100
AcDbLine
 10
102.61586810213811
 20
22.24822720228724
 30
0.0
 11
97.72939819251249
 21
21.18878781170213
 31
0.0
  0
ARC
  5
B4
330
17
100
AcDbEntity
  8
0
100
AcDbCircle
 10
0.0
 20
0.0
 30
0.0
 40
100.0
100
AcDbArc
 50
11.359223300970882
 51
12.233009708737868
  0
ARC
  5
B5
330
17
100
AcDbEntity
  8
0
100
AcDbCircle
 10
0.0
 20
0.0
 30
0.0
 40
100.0
100
AcDbArc
 50
10.485436893203897
 51
11.359223300970882
  0
LINE
  5
B6
330
17
100
AcDbEntity
  8
0
100
AcDbLine
 10
98.33011953642524
 20
18.198560161516173
 30
0.0
 11
103.2466255132465
 21
19.108488169591983
 31
0.0
  0
ARC
  5
B7
330
17
100
AcDbEntity
  8
0
100
AcDbCircle
 10
0.0
 20
0.0
 30
0.0
 40
105.0
100
AcDbArc
 50
9.611650485436897
 51
10.485436893203882
  0
ARC
  5
B8
330
17
100
AcDbEntity
  8
0
100
AcDbCircle
 10
0.0
 20
0.0
 30
0.0
 40
105.0
100
AcDbArc
 50
8.737864077669911
 51
9.611650485436897
  0
ARC
  5
B9
330
17
100
AcDbEntity
  8
0
100
AcDbCircle
 10
0.0
 20
0.0
 30
0.0
 40
105.0
100
AcDbArc
 50
7.864077669902926
 51
8.737864077669911
  0
LINE
  5
BA
330
17
100
AcDbEntity
  8
0
100
AcDbLine
 10
104.0125213252334
 20
14.36646816611059
 30
0.0
 11
99.05954411926989
 21
13.682350634391039
 31
0.0
  0
ARC
  5
BB
330
17
100
AcDbEntity
  8
0
100
AcDbCircle
 10
0.0
 20
0.0
 30
0.0
 40
100.0
100
AcDbArc
 50
6.990291262135926
 51
7.864077669902912
  0
LINE
  5
BC
330
17
100
AcDbEntity
  8
0
100
AcDbLine
 10
99.25667880839079
 20
12.170115526483178
 30
0.0
 11
104.21951274881033
 21
12.778621302807336
 31
0.0
  0
ARC
  5
BD
330
17
100
AcDbEntity
  8
0
100
AcDbCircle
 10
0.0
 20
0.0
 30
0.0
 40
105.0
100
AcDbArc
 50
6.116504854368941
 51
6.990291262135926
  0
LINE
  5
BE
330
17
100
AcDbEntity
  8
0
100
AcDbLine
 10
104.4022656620164
 20
11.187802493687014
 30
0.0
 11
99.43072920192039
 21
10.655049993987632
 31
0.0
  0
ARC
  5
BF
330
17
100
AcDbEntity
  8
0
100
AcDbCircle
 10
0.0
 20
0.0
 30
0.0
 40
100.0
100
AcDbArc
 50
5.242718446601955
 51
6.116504854368941
  0
ARC
  5
C0
330
17
100
AcDbEntity
  8
0
100
AcDbCircle
 10
0.0
 20
0.0
 30
0.0
 40
100.0
100
AcDbArc
 50
4.368932038834956
 51
5.242718446601941
  0
LINE
  5
C1
330
17
100
AcDbEntity
  8
0
100
AcDbLine
 10
99.70942056358307
 20
7.617837677091803
 30
0.0
 11
104.69489159176221
 21
7.998729560946393
 31
0.0
  0
ARC
  5
C2
330
17
100
AcDbEntity
  8
0
100
AcDbCircle
 10
0.0
 20
0.0
 30
0.0
 40
105.0
100
AcDbArc
 50
3.4951456310679703
 51
4.368932038834956
  0
LINE
  5
C3
330
17
100
AcDbEntity
  8
0
100
AcDbLine
 10
104.80469655178885
 20
6.401217125473712
 30
0.0
 11
99.81399671598939
 21
6.096397262355916
 31
0.0
  0
ARC
  5
C4
330
17
100
AcDbEntity
  8
0
100
AcDbCircle
 10
0.0
 20
0.0
 30
0.0
 40
100.0
100
AcDbArc
 50
2.621359223300985
 51
3.4951456310679703
  0
LINE
  5
C5
330
17
100
AcDbEntity
  8
0
100
AcDbLine
 10
99.89535895642523
 20
4.573538998079468
 30
0.0
 11
104.89012690424649
 21
4.802215947983441
 31
0.0
  0
ARC
  5
C6
330
17
100
AcDbEntity
  8
0
100
AcDbCircle
 10
0.0
 20
0.0
 30
0.0
 40
105.0
100
AcDbArc
 50
1.7475728155339851
 51
2.6213592233009706
  0
ARC
  5
C7
330
17
100
AcDbEntity
  8
0
100
AcDbCircle
 10
0.0
 20
0.0
 30
0.0
 40
105.0
100
AcDbArc
 50
0.8737864077669997
 51
1.7475728155339851
  0
ARC
  5
C8
330
17
100
AcDbEntity
  8
0
100
AcDbCircle
 10
0.0
 20
0.0
 30
0.0
 40
105.0
100
AcDbArc
 50
1.4210854715202004e-14
 51
0.8737864077669997
  0
LINE
  5
C9
330
17
100
AcDbEntity
  8
0
100
AcDbLine
 10
105.0
 20
2.6042751451797786e-14
 30
0.0
 11
100.0
 21
2.4802620430283604e-14
 31
0.0
  0
ARC
  5
CA
330
17
100
AcDbEntity
  8
0
100
AcDbCircle
 10
0.0
 20
0.0
 30
0.0
 40
100.0
100
AcDbArc
 50
-0.8737864077669855
 51
0.0
  0
LINE
  5
CB
330
17
100
AcDbEntity
  8
0
100
AcDbLine
 10
99.98837141446378
 20
-1.5249858632925894
 30
0.0
 11
104.98778998518698
 21
-1.601235156457219
 31
0.0
  0
ARC
  5
CC
330
17
100
AcDbEntity
  8
0
100
AcDbCircle
 10
0.0
 20
0.0
 30
0.0
 40
105.0
100
AcDbArc
 50
-1.747572815533971
 51
-0.8737864077669855
  0
LINE
  5
CD
330
17
100
AcDbEntity
  8
0
100
AcDbLine
 10
104.95116278045191
 20
-3.202097910914828
 30
0.0
 11
99.95348836233515
 21
-3.0496170580141224
 31
0.0
  0
ARC
  5
CE
330
17
100
AcDbEntity
  8
0
100
AcDbCircle
 10
0.0
 20
0.0
 30
0.0
 40
100.0
100
AcDbArc
 50
-2.6213592233009564
 51
-1.747572815533971
  0
ARC
  5
CF
330
17
100
AcDbEntity
  8
0
100
AcDbCircle
 10
0.0
 20
0.0
 30
0.0
 40
100.0
100
AcDbArc
 50
-3.495145631067956
 51
-2.6213592233009706
  0
ARC
  5
D0
330
17
100
AcDbEntity
  8
0
100
AcDbCircle
 10
0.0
 20
0.0
 30
0.0
 40
100.0
100
AcDbArc
 50
-4.3689320388349415
 51
-3.495145631067956
  0
ARC
  5
D1
330
17
100
AcDbEntity
  8
0
100
AcDbCircle
 10
0.0
 20
0.0
 30
0.0
 40
100.0
100
AcDbArc
 50
-5.242718446601927
 51
-4.3689320388349415
  0
LINE
  5
D2
330
17
100
AcDbEntity
  8
0
100
AcDbLine
 10
99.58165482066093
 20
-9.137506398287083
 30
0.0
 11
104.56073756169398
 21
-9.594381718201438
 31
0.0
  0
ARC
  5
D3
330
17
100
AcDbEntity
  8
0
100
AcDbCircle
 10
0.0
 20
0.0
 30
0.0
 40
105.0
100
AcDbArc
 50
-6.116504854368927
 51
-5.242718446601941
  0
ARC
  5
D4
330
17
100
AcDbEntity
  8
0
100
AcDbCircle
 10
0.0
 20
0.0
 30
0.0
 40
105.0
100
AcDbArc
 50
-6.990291262135912
 51
-6.116504854368927
  0
ARC
  5
D5
330
17
100
AcDbEntity
  8
0
100
AcDbCircle
 10
0.0
 20
0.0
 30
0.0
 40
105.0
100
AcDbArc
 50
-7.864077669902898
 51
-6.990291262135912
  0
LINE
  5
D6
330
17
100
AcDbEntity
  8
0
100
AcDbLine
 10
104.0125213252334
 20
-14.366468166110538
 30
0.0
 11
99.0595441192699
 21
-13.682350634390989
 31
0.0
  0
ARC
  5
D7
330
17
100
AcDbEntity
  8
0
100
AcDbCircle
 10
0.0
 20
0.0
 30
0.0
 40
100.0
100
AcDbArc
 50
-8.737864077669897
 51
-7.864077669902912
  0
ARC
  5
D8
330
17
100
AcDbEntity
  8
0
100
AcDbCircle
 10
0.0
 20
0.0
 30
0.0
 40
100.0
100
AcDbArc
 50
-9.611650485436883
 51
-8.737864077669897
  0
LINE
  5
D9
330
17
100
AcDbEntity
  8
0
100
AcDbLine
 10
98.59621060415301
 20
-16.696923504092194
 30
0.0
 11
103.52602113436066
 21
-17.5317696792968
 31
0.0
  0
ARC
  5
DA
330
17
100
AcDbEntity
  8
0
100
AcDbCircle
 10
0.0
 20
0.0
 30
0.0
 40
105.0
100
AcDbArc
 50
-10.485436893203868
 51
-9.611650485436883
  0
ARC
  5
DB
330
17
100
AcDbEntity
  8
0
100
AcDbCircle
 10
0.0
 20
0.0
 30
0.0
 40
105.0
100
AcDbArc
 50
-11.359223300970868
 51
-10.485436893203882
  0
LINE
  5
DC
330
17
100
AcDbEntity
  8
0
100
AcDbLine
 10
102.94321764781023
 20
-20.68076256610413
 30
0.0
 11
98.04115966458117
 21
-19.695964348670596
 31
0.0
  0
ARC
  5
DD
330
17
100
AcDbEntity
  8
0
100
AcDbCircle
 10
0.0
 20
0.0
 30
0.0
 40
100.0
100
AcDbArc
 50
-12.233009708737853
 51
-11.359223300970868
  0
ARC
  5
DE
330
17
100
AcDbEntity
  8
0
100
AcDbCircle
 10
0.0
 20
0.0
 30
0.0
 40
100.0
100
AcDbArc
 50
-13.106796116504839
 51
-12.233009708737853
  0
LINE
  5
DF
330
17
100
AcDbEntity
  8
0
100
AcDbLine
 10
97.39490762711812
 20
-22.676683362104075
 30
0.0
 11
102.26465300847403
 21
-23.810517530209278
 31
0.0
  0
ARC
  5
E0
330
17
100
AcDbEntity
  8
0
100
AcDbCircle
 10
0.0
 20
0.0
 30
0.0
 40
105.0
100
AcDbArc
 50
-13.980582524271838
 51
-13.106796116504853
  0
ARC
  5
E1
330
17
100
AcDbEntity
  8
0
100
AcDbCircle
 10
0.0
 20
0.0
 30
0.0
 40
105.0
100
AcDbArc
 50
-14.854368932038824
 51
-13.980582524271838
  0
ARC
  5
E2
330
17
100
AcDbEntity
  8
0
100
AcDbCircle
 10
0.0
 20
0.0
 30
0.0
 40
105.0
100
AcDbArc
 50
-15.72815533980581
 51
-14.854368932038824
  0
LINE
  5
E3
330
17
100
AcDbEntity
  8
0
100
AcDbLine
 10
101.06865890346918
 20
-28.462715742778293
 30
0.0
 11
96.25586562235159
 21
-27.107348326455515
 31
0.0
  0
ARC
  5
E4
330
17
100
AcDbEntity
  8
0
100
AcDbCircle
 10
0.0
 20
0.0
 30
0.0
 40
100.0
100
AcDbArc
 50
-16.60194174757281
 51
-15.728155339805824
  0
ARC
  5
E5
330
17
100
AcDbEntity
  8
0
100
AcDbCircle
 10
0.0
 20
0.0
 30
0.0
 40
100.0
100
AcDbArc
 50
-17.475728155339795
 51
-16.60194174757281
  0
LINE
  5
E6
330
17
100
AcDbEntity
  8
0
100
AcDbLine
 10
95.38442512436328
 20
-30.030175552179784
 30
0.0
 11
100.15364638058143
 21
-31.53168432978877
 31
0.0
  0
ARC
  5
E7
330
17
100
AcDbEntity
  8
0
100
AcDbCircle
 10
0.0
 20
0.0
 30
0.0
 40
105.0
100
AcDbArc
 50
-18.34951456310678
 51
-17.475728155339795
  0
LINE
  5
E8
330
17
100
AcDbEntity
  8
0
100
AcDbLine
 10
99.66114619965711
 20
-33.05534658978139
 30
0.0
 11
94.91537733300677
 21
-31.481282466458467
 31
0.0
  0
ARC
  5
E9
330
17
100
AcDbEntity
  8
0
100
AcDbCircle
 10
0.0
 20
0.0
 30
0.0
 40
100.0
100
AcDbArc
 50
-19.22330097087378
 51
-18.349514563106794
  0
LINE
  5
EA
330
17
100
AcDbEntity
  8
0
100
AcDbLine
 10
94.42425490996986
 20
-32.925067725018145
 30
0.0
 11
99.14546765546835
 21
-34.57132111126906
 31
0.0
  0
ARC
  5
EB
330
17
100
AcDbEntity
  8
0
100
AcDbCircle
 10
0.0
 20
0.0
 30
0.0
 40
105.0
100
AcDbArc
 50
-20.097087378640765
 51
-19.22330097087378
  0
LINE
  5
EC
330
17
100
AcDbEntity
  8
0
100
AcDbLine
 10
98.60673068025642
 20
-36.07925532146385
 30
0.0
 11
93.9111720764347
 21
-34.36119554425128
 31
0.0
  0
ARC
  5
ED
330
17
100
AcDbEntity
  8
0
100
AcDbCircle
 10
0.0
 20
0.0
 30
0.0
 40
100.0
100
AcDbArc
 50
-20.97087378640775
 51
-20.097087378640765
  0
LINE
  5
EE
330
17
100
AcDbEntity
  8
0
100
AcDbLine
 10
93.37624816095355
 20
-35.789331921454156
 30
0.0
 11
98.04506056900124
 21
-37.57879851752687
 31
0.0
  0
ARC
  5
EF
330
17
100
AcDbEntity
  8
0
100
AcDbCircle
 10
0.0
 20
0.0
 30
0.0
 40
105.0
100
AcDbArc
 50
-21.84466019417475
 51
-20.970873786407765
  0
ARC
  5
F0
330
17
100
AcDbEntity
  8
0
100
AcDbCircle
 10
0.0
 20
0.0
 30
0.0
 40
105.0
100
AcDbArc
 50
-22.718446601941736
 51
-21.84466019417475
  0
ARC
  5
F1
330
17
100
AcDbEntity
  8
0
100
AcDbCircle
 10
0.0
 20
0.0
 30
0.0
 40
105.0
100
AcDbArc
 50
-23.59223300970872
 51
-22.718446601941736
  0
LINE
  5
F2
330
17
100
AcDbEntity
  8
0
100
AcDbLine
 10
96.22378418923952
 20
-42.02360475140915
 30
0.0
 11
91.64169922784716
 21
-40.022480715627765
 31
0.0
  0
ARC
  5
F3
330
17
100
AcDbEntity
  8
0
100
AcDbCircle
 10
0.0
 20
0.0
 30
0.0
 40
100.0
100
AcDbArc
 50
-24.46601941747572
 51
-23.592233009708735
  0
ARC
  5
F4
330
17
100
AcDbEntity
  8
0
100
AcDbCircle
 10
0.0
 20
0.0
 30
0.0
 40
100.0
100
AcDbArc
 50
-25.339805825242706
 51
-24.46601941747572
  0
LINE
  5
F5
330
17
100
AcDbEntity
  8
0
100
AcDbLine
 10
90.37854277380819
 20
-42.798586496319274
 30
0.0
 11
94.8974699124986
 21
-44.93851582113524
 31
0.0
  0
ARC
  5
F6
330
17
100
AcDbEntity
  8
0
100
AcDbCircle
 10
0.0
 20
0.0
 30
0.0
 40
105.0
100
AcDbArc
 50
-26.21359223300969
 51
-25.339805825242706
  0
LINE
  5
F7
330
17
100
AcDbEntity
  8
0
100
AcDbLine
 10
94.20112866559231
 20
-46.38046310817221
 30
0.0
 11
89.71536063389743
 21
-44.17186962683067
 31
0.0
  0
ARC
  5
F8
330
17
100
AcDbEntity
  8
0
100
AcDbCircle
 10
0.0
 20
0.0
 30
0.0
 40
100.0
100
AcDbArc
 50
-27.08737864077669
 51
-26.213592233009706
  0
ARC
  5
F9
330
17
100
AcDbEntity
  8
0
100
AcDbCircle
 10
0.0
 20
0.0
 30
0.0
 40
100.0
100
AcDbArc
 50
-27.961165048543677
 51
-27.08737864077669
  0
ARC
  5
FA
330
17
100
AcDbEntity
  8
0
100
AcDbCircle
 10
0.0
 20
0.0
 30
0.0
 40
100.0
100
AcDbArc
 50
-28.834951456310662
 51
-27.961165048543677
  0
LINE
  5
FB
330
17
100
AcDbEntity
  8
0
100
AcDbLine
 10
87.60126386071934
 20
-48.22881472734558
 30
0.0
 11
91.98132705375531
 21
-50.64025546371286
 31
0.0
  0
ARC
  5
FC
330
17
100
AcDbEntity
  8
0
100
AcDbCircle
 10
0.0
 20
0.0
 30
0.0
 40
105.0
100
AcDbArc
 50
-29.708737864077662
 51
-28.834951456310677
  0
ARC
  5
FD
330
17
100
AcDbEntity
  8
0
100
AcDbCircle
 10
0.0
 20
0.0
 30
0.0
 40
105.0
100
AcDbArc
 50
-30.582524271844648
 51
-29.708737864077662
  0
ARC
  5
FE
330
17
100
AcDbEntity
  8
0
100
AcDbCircle
 10
0.0
 20
0.0
 30
0.0
 40
105.0
100
AcDbArc
 50
-31.456310679611633
 51
-30.582524271844648
  0
LINE
  5
FF
330
17
100
AcDbEntity
  8
0
100
AcDbLine
 10
89.56902500087237
 20
-54.79406683568121
 30
0.0
 11
85.30383333416417
 21
-52.184825557791626
 31
0.0
  0
ARC
  5
100
330
17
100
AcDbEntity
  8
0
100
AcDbCircle
 10
0.0
 20
0.0
 30
0.0
 40
100.0
100
AcDbArc
 50
-32.33009708737863
 51
-31.456310679611647
  0
ARC
  5
101
330
17
100
AcDbEntity
  8
0
100
AcDbCircle
 10
0.0
 20
0.0
 30
0.0
 40
100.0
100
AcDbArc
 50
-33.20388349514562
 51
-32.33009708737863
  0
ARC
  5
102
330
17
100
AcDbEntity
  8
0
100
AcDbCircle
 10
0.0
 20
0.0
 30
0.0
 40
100.0
100
AcDbArc
 50
-34.077669902912604
 51
-33.20388349514562
  0
LINE
  5
103
330
17
100
AcDbEntity
  8
0
100
AcDbLine
 10
82.82787716478869
 20
-56.03162289613497
 30
0.0
 11
86.96927102302813
 21
-58.833204040941716
 31
0.0
  0
ARC
  5
104
330
17
100
AcDbEntity
  8
0
100
AcDbCircle
 10
0.0
 20
0.0
 30
0.0
 40
105.0
100
AcDbArc
 50
-34.9514563106796
 51
-34.07766990291262
  0
ARC
  5
105
330
17
100
AcDbEntity
  8
0
100
AcDbCircle
 10
0.0
 20
0.0
 30
0.0
 40
105.0
100
AcDbArc
 50
-35.82524271844659
 51
-34.9514563106796
  0
LINE
  5
106
330
17
100
AcDbEntity
  8
0
100
AcDbLine
 10
85.1346327646013
 20
-61.4580694786004
 30
0.0
 11
81.08060263295363
 21
-58.53149474152419
 31
0.0
  0
ARC
  5
107
330
17
100
AcDbEntity
  8
0
100
AcDbCircle
 10
0.0
 20
0.0
 30
0.0
 40
100.0
100
AcDbArc
 50
-36.699029126213574
 51
-35.82524271844659
  0
LINE
  5
108
330
17
100
AcDbEntity
  8
0
100
AcDbLine
 10
80.17857708534109
 20
-59.76115608461752
 30
0.0
 11
84.18750593960814
 21
-62.749213888848395
 31
0.0
  0
ARC
  5
109
330
17
100
AcDbEntity
  8
0
100
AcDbCircle
 10
0.0
 20
0.0
 30
0.0
 40
105.0
100
AcDbArc
 50
-37.572815533980574
 51
-36.69902912621359
  0
ARC
  5
10A
330
17
100
AcDbEntity
  8
0
100
AcDbCircle
 10
0.0
 20
0.0
 30
0.0
 40
105.0
100
AcDbArc
 50
-38.44660194174756
 51
-37.572815533980574
  0
ARC
  5
10B
330
17
100
AcDbEntity
  8
0
100
AcDbCircle
 10
0.0
 20
0.0
 30
0.0
 40
105.0
100
AcDbArc
 50
-39.32038834951456
 51
-38.44660194174756
  0
LINE
  5
10C
330
17
100
AcDbEntity
  8
0
100
AcDbLine
 10
81.22955148663858
 20
-66.5339008722586
 30
0.0
 11
77.36147760632247
 21
-63.36561987834152
 31
0.0
  0
ARC
  5
10D
330
17
100
AcDbEntity
  8
0
100
AcDbCircle
 10
0.0
 20
0.0
 30
0.0
 40
100.0
100
AcDbArc
 50
-40.19417475728156
 51
-39.32038834951456
  0
ARC
  5
10E
330
17
100
AcDbEntity
  8
0
100
AcDbCircle
 10
0.0
 20
0.0
 30
0.0
 40
100.0
100
AcDbArc
 50
-41.06796116504856
 51
-40.19417475728156
  0
ARC
  5
10F
330
17
100
AcDbEntity
  8
0
100
AcDbCircle
 10
0.0
 20
0.0
 30
0.0
 40
100.0
100
AcDbArc
 50
-41.94174757281553
 51
-41.06796116504853
  0
LINE
  5
110
330
17
100
AcDbEntity
  8
0
100
AcDbLine
 10
74.38247441231961
 20
-66.83747078024884
 30
0.0
 11
78.10159813293559
 21
-70.17934431926129
 31
0.0
  0
ARC
  5
111
330
17
100
AcDbEntity
  8
0
100
AcDbCircle
 10
0.0
 20
0.0
 30
0.0
 40
105.0
100
AcDbArc
 50
-42.81553398058253
 51
-41.94174757281553
  0
LINE
  5
112
330
17
100
AcDbEntity
  8
0
100
AcDbLine
 10
77.02229094197136
 20
-71.36222178471125
 30
0.0
 11
73.35456280187749
 21
-67.96402074734405
 31
0.0
  0
ARC
  5
113
330
17
100
AcDbEntity
  8
0
100
AcDbCircle
 10
0.0
 20
0.0
 30
0.0
 40
100.0
100
AcDbArc
 50
-43.68932038834953
 51
-42.81553398058253
  0
ARC
  5
114
330
17
100
AcDbEntity
  8
0
100
AcDbCircle
 10
0.0
 20
0.0
 30
0.0
 40
100.0
100
AcDbArc
 50
-44.5631067961165
 51
-43.6893203883495
  0
LINE
  5
115
330
17
100
AcDbEntity
  8
0
100
AcDbLine
 10
71.24780202339319
 20
-70.16944282830931
 30
0.0
 11
74.81019212456285
 21
-73.67791496972478
 31
0.0
  0
ARC
  5
116
330
17
100
AcDbEntity
  8
0
100
AcDbCircle
 10
0.0
 20
0.0
 30
0.0
 40
105.0
100
AcDbArc
 50
-45.4368932038835
 51
-44.5631067961165
  0
ARC
  5
117
330
17
100
AcDbEntity
  8
0
100
AcDbCircle
 10
0.0
 20
0.0
 30
0.0
 40
105.0
100
AcDbArc
 50
-46.3106796116505
 51
-45.4368932038835
  0
ARC
  5
118
330
17
100
AcDbEntity
  8
0
100
AcDbCircle
 10
0.0
 20
0.0
 30
0.0
 40
105.0
100
AcDbArc
 50
-47.18446601941747
 51
-46.31067961165047
  0
LINE
  5
119
330
17
100
AcDbEntity
  8
0
100
AcDbLine
 10
71.36222178471125
 20
-77.02229094197136
 30
0.0
 11
67.96402074734405
 21
-73.35456280187749
 31
0.0
  0
ARC
  5
11A
330
17
100
AcDbEntity
  8
0
100
AcDbCircle
 10
0.0
 20
0.0
 30
0.0
 40
100.0
100
AcDbArc
 50
-48.05825242718447
 51
-47.18446601941747
  0
ARC
  5
11B
330
17
100
AcDbEntity
  8
0
100
AcDbCircle
 10
0.0
 20
0.0
 30
0.0
 40
100.0
100
AcDbArc
 50
-48.93203883495147
 51
-48.05825242718447
  0
ARC
  5
11C
330
17
100
AcDbEntity
  8
0
100
AcDbCircle
 10
0.0
 20
0.0
 30
0.0
 40
100.0
100
AcDbArc
 50
-49.80582524271844
 51
-48.93203883495144
  0
ARC
  5
11D
330
17
100
AcDbEntity
  8
0
100
AcDbCircle
 10
0.0
 20
0.0
 30
0.0
 40
100.0
100
AcDbArc
 50
-50.67961165048544
 51
-49.80582524271844
  0
LINE
  5
11E
330
17
100
AcDbEntity
  8
0
100
AcDbLine
 10
63.365619878341505
 20
-77.36147760632247
 30
0.0
 11
66.53390087225858
 21
-81.22955148663858
 31
0.0
  0
ARC
  5
11F
330
17
100
AcDbEntity
  8
0
100
AcDbCircle
 10
0.0
 20
0.0
 30
0.0
 40
105.0
100
AcDbArc
 50
-51.55339805825244
 51
-50.67961165048544
  0
LINE
  5
120
330
17
100
AcDbEntity
  8
0
100
AcDbLine
 10
65.28742474369784
 20
-82.23473822136233
 30
0.0
 11
62.178499755902706
 21
-78.31879830605936
 31
0.0
  0
ARC
  5
121
330
17
100
AcDbEntity
  8
0
100
AcDbCircle
 10
0.0
 20
0.0
 30
0.0
 40
100.0
100
AcDbArc
 50
-52.42718446601941
 51
-51.55339805825241
  0
LINE
  5
122
330
17
100
AcDbEntity
  8
0
100
AcDbLine
 10
60.976918673405436
 20
-79.25790426889232
 30
0.0
 11
64.0257646070757
 21
-83.22079948233694
 31
0.0
  0
ARC
  5
123
330
17
100
AcDbEntity
  8
0
100
AcDbCircle
 10
0.0
 20
0.0
 30
0.0
 40
105.0
100
AcDbArc
 50
-53.30097087378641
 51
-52.42718446601941
  0
ARC
  5
124
330
17
100
AcDbEntity
  8
0
100
AcDbCircle
 10
0.0
 20
0.0
 30
0.0
 40
105.0
100
AcDbArc
 50
-54.17475728155341
 51
-53.30097087378641
  0
ARC
  5
125
330
17
100
AcDbEntity
  8
0
100
AcDbCircle
 10
0.0
 20
0.0
 30
0.0
 40
105.0
100
AcDbArc
 50
-55.04854368932038
 51
-54.17475728155338
  0
LINE
  5
126
330
17
100
AcDbEntity
  8
0
100
AcDbLine
 10
60.152631659995954
 20
-86.0619596824105
 30
0.0
 11
57.28822062856758
 21
-81.96377112610524
 31
0.0
  0
ARC
  5
127
330
17
100
AcDbEntity
  8
0
100
AcDbCircle
 10
0.0
 20
0.0
 30
0.0
 40
100.0
100
AcDbArc
 50
-55.92233009708738
 51
-55.04854368932038
  0
ARC
  5
128
330
17
100
AcDbEntity
  8
0
100
AcDbCircle
 10
0.0
 20
0.0
 30
0.0
 40
100.0
100
AcDbArc
 50
-56.79611650485438
 51
-55.92233009708738
  0
ARC
  5
129
330
17
100
AcDbEntity
  8
0
100
AcDbCircle
 10
0.0
 20
0.0
 30
0.0
 40
100.0
100
AcDbArc
 50
-57.66990291262135
 51
-56.79611650485435
  0
ARC
  5
12A
330
17
100
AcDbEntity
  8
0
100
AcDbCircle
 10
0.0
 20
0.0
 30
0.0
 40
100.0
100
AcDbArc
 50
-58.54368932038835
 51
-57.66990291262135
  0
ARC
  5
12B
330
17
100
AcDbEntity
  8
0
100
AcDbCircle
 10
0.0
 20
0.0
 30
0.0
 40
100.0
100
AcDbArc
 50
-59.41747572815535
 51
-58.54368932038835
  0
ARC
  5
12C
330
17
100
AcDbEntity
  8
0
100
AcDbCircle
 10
0.0
 20
0.0
 30
0.0
 40
100.0
100
AcDbArc
 50
-60.291262135922324
 51
-59.417475728155324
  0
LINE
  5
12D
330
17
100
AcDbEntity
  8
0
100
AcDbLine
 10
49.55911328831357
 20
-86.85559446619487
 30
0.0
 11
52.03706895272925
 21
-91.19837418950462
 31
0.0
  0
ARC
  5
12E
330
17
100
AcDbEntity
  8
0
100
AcDbCircle
 10
0.0
 20
0.0
 30
0.0
 40
105.0
100
AcDbArc
 50
-61.16504854368932
 51
-60.291262135922324
  0
ARC
  5
12F
330
17
100
AcDbEntity
  8
0
100
AcDbCircle
 10
0.0
 20
0.0
 30
0.0
 40
105.0
100
AcDbArc
 50
-62.03883495145632
 51
-61.16504854368932
  0
LINE
  5
130
330
17
100
AcDbEntity
  8
0
100
AcDbLine
 10
49.23166448385182
 20
-92.74288766341839
 30
0.0
 11
46.88729950843031
 21
-88.32655967944608
 31
0.0
  0
ARC
  5
131
330
17
100
AcDbEntity
  8
0
100
AcDbCircle
 10
0.0
 20
0.0
 30
0.0
 40
100.0
100
AcDbArc
 50
-62.912621359223294
 51
-62.038834951456295
  0
LINE
  5
132
330
17
100
AcDbEntity
  8
0
100
AcDbLine
 10
45.53487963005712
 20
-89.03131323908578
 30
0.0
 11
47.81162361155997
 21
-93.48287890104007
 31
0.0
  0
ARC
  5
133
330
17
100
AcDbEntity
  8
0
100
AcDbCircle
 10
0.0
 20
0.0
 30
0.0
 40
105.0
100
AcDbArc
 50
-63.786407766990294
 51
-62.912621359223294
  0
ARC
  5
134
330
17
100
AcDbEntity
  8
0
100
AcDbCircle
 10
0.0
 20
0.0
 30
0.0
 40
105.0
100
AcDbArc
 50
-64.6601941747573
 51
-63.786407766990294
  0
LINE
  5
135
330
17
100
AcDbEntity
  8
0
100
AcDbLine
 10
44.93851582113524
 20
-94.8974699124986
 30
0.0
 11
42.798586496319274
 21
-90.37854277380819
 31
0.0
  0
ARC
  5
136
330
17
100
AcDbEntity
  8
0
100
AcDbCircle
 10
0.0
 20
0.0
 30
0.0
 40
100.0
100
AcDbArc
 50
-65.53398058252426
 51
-64.66019417475727
  0
LINE
  5
137
330
17
100
AcDbEntity
  8
0
100
AcDbLine
 10
41.41534962532985
 20
-91.02070542141327
 30
0.0
 11
43.486117106596346
 21
-95.57174069248394
 31
0.0
  0
ARC
  5
138
330
17
100
AcDbEntity
  8
0
100
AcDbCircle
 10
0.0
 20
0.0
 30
0.0
 40
105.0
100
AcDbArc
 50
-66.40776699029126
 51
-65.53398058252426
  0
ARC
  5
139
330
17
100
AcDbEntity
  8
0
100
AcDbCircle
 10
0.0
 20
0.0
 30
0.0
 40
105.0
100
AcDbArc
 50
-67.28155339805826
 51
-66.40776699029126
  0
LINE
  5
13A
330
17
100
AcDbEntity
  8
0
100
AcDbLine
 10
40.55131889457417
 20
-96.85344875589382
 30
0.0
 11
38.62030370911826
 21
-92.24137976751793
 31
0.0
  0
ARC
  5
13B
330
17
100
AcDbEntity
  8
0
100
AcDbCircle
 10
0.0
 20
0.0
 30
0.0
 40
100.0
100
AcDbArc
 50
-68.15533980582524
 51
-67.28155339805824
  0
LINE
  5
13C
330
17
100
AcDbEntity
  8
0
100
AcDbLine
 10
37.209144712506436
 20
-92.81960757169658
 30
0.0
 11
39.06960194813176
 21
-97.46058795028141
 31
0.0
  0
ARC
  5
13D
330
17
100
AcDbEntity
  8
0
100
AcDbCircle
 10
0.0
 20
0.0
 30
0.0
 40
105.0
100
AcDbArc
 50
-69.02912621359224
 51
-68.15533980582524
  0
LINE
  5
13E
330
17
100
AcDbEntity
  8
0
100
AcDbLine
 10
37.5787985175269
 20
-98.04506056900122
 30
0.0
 11
35.789331921454185
 21
-93.37624816095355
 31
0.0
  0
ARC
  5
13F
330
17
100
AcDbEntity
  8
0
100
AcDbCircle
 10
0.0
 20
0.0
 30
0.0
 40
100.0
100
AcDbArc
 50
-69.90291262135923
 51
-69.02912621359224
  0
ARC
  5
140
330
17
100
AcDbEntity
  8
0
100
AcDbCircle
 10
0.0
 20
0.0
 30
0.0
 40
100.0
100
AcDbArc
 50
-70.7766990291262
 51
-69.9029126213592
  0
LINE
  5
141
330
17
100
AcDbEntity
  8
0
100
AcDbLine
 10
32.92506772501817
 20
-94.42425490996986
 30
0.0
 11
34.57132111126908
 21
-99.14546765546835
 31
0.0
  0
ARC
  5
142
330
17
100
AcDbEntity
  8
0
100
AcDbCircle
 10
0.0
 20
0.0
 30
0.0
 40
105.0
100
AcDbArc
 50
-71.6504854368932
 51
-70.7766990291262
  0
ARC
  5
143
330
17
100
AcDbEntity
  8
0
100
AcDbCircle
 10
0.0
 20
0.0
 30
0.0
 40
105.0
100
AcDbArc
 50
-72.5242718446602
 51
-71.6504854368932
  0
LINE
  5
144
330
17
100
AcDbEntity
  8
0
100
AcDbLine
 10
31.531684329788767
 20
-100.15364638058143
 30
0.0
 11
30.030175552179777
 21
-95.38442512436328
 31
0.0
  0
ARC
  5
145
330
17
100
AcDbEntity
  8
0
100
AcDbCircle
 10
0.0
 20
0.0
 30
0.0
 40
100.0
100
AcDbArc
 50
-73.39805825242718
 51
-72.52427184466018
  0
LINE
  5
146
330
17
100
AcDbEntity
  8
0
100
AcDbLine
 10
28.572084468599613
 20
-95.83128919679214
 30
0.0
 11
30.00068869202959
 21
-100.62285365663175
 31
0.0
  0
ARC
  5
147
330
17
100
AcDbEntity
  8
0
100
AcDbCircle
 10
0.0
 20
0.0
 30
0.0
 40
105.0
100
AcDbArc
 50
-74.27184466019418
 51
-73.39805825242718
  0
ARC
  5
148
330
17
100
AcDbEntity
  8
0
100
AcDbCircle
 10
0.0
 20
0.0
 30
0.0
 40
105.0
100
AcDbArc
 50
-75.14563106796118
 51
-74.27184466019418
  0
LINE
  5
149
330
17
100
AcDbEntity
  8
0
100
AcDbLine
 10
26.91812317103491
 20
-101.4909584394048
 30
0.0
 11
25.63630778193801
 21
-96.658055656576
 31
0.0
  0
ARC
  5
14A
330
17
100
AcDbEntity
  8
0
100
AcDbCircle
 10
0.0
 20
0.0
 30
0.0
 40
100.0
100
AcDbArc
 50
-76.01941747572815
 51
-75.14563106796115
  0
ARC
  5
14B
330
17
100
AcDbEntity
  8
0
100
AcDbCircle
 10
0.0
 20
0.0
 30
0.0
 40
100.0
100
AcDbArc
 50
-76.89320388349515
 51
-76.01941747572815
  0
LINE
  5
14C
330
17
100
AcDbEntity
  8
0
100
AcDbLine
 10
22.676683362104104
 20
-97.39490762711812
 30
0.0
 11
23.810517530209307
 21
-102.26465300847403
 31
0.0
  0
ARC
  5
14D
330
17
100
AcDbEntity
  8
0
100
AcDbCircle
 10
0.0
 20
0.0
 30
0.0
 40
105.0
100
AcDbArc
 50
-77.76699029126215
 51
-76.89320388349515
  0
LINE
  5
14E
330
17
100
AcDbEntity
  8
0
100
AcDbLine
 10
22.248227202287215
 20
-102.61586810213812
 30
0.0
 11
21.18878781170211
 21
-97.72939819251249
 31
0.0
  0
ARC
  5
14F
330
17
100
AcDbEntity
  8
0
100
AcDbCircle
 10
0.0
 20
0.0
 30
0.0
 40
100.0
100
AcDbArc
 50
-78.64077669902912
 51
-77.76699029126212
  0
LINE
  5
150
330
17
100
AcDbEntity
  8
0
100
AcDbLine
 10
19.695964348670618
 20
-98.04115966458116
 30
0.0
 11
20.680762566104146
 21
-102.94321764781021
 31
0.0
  0
ARC
  5
151
330
17
100
AcDbEntity
  8
0
100
AcDbCircle
 10
0.0
 20
0.0
 30
0.0
 40
105.0
100
AcDbArc
 50
-79.51456310679612
 51
-78.64077669902912
  0
ARC
  5
152
330
17
100
AcDbEntity
  8
0
100
AcDbCircle
 10
0.0
 20
0.0
 30
0.0
 40
105.0
100
AcDbArc
 50
-80.38834951456312
 51
-79.51456310679612
  0
LINE
  5
153
330
17
100
AcDbEntity
  8
0
100
AcDbLine
 10
17.531769679296797
 20
-103.52602113436066
 30
0.0
 11
16.696923504092187
 21
-98.59621060415301
 31
0.0
  0
ARC
  5
154
330
17
100
AcDbEntity
  8
0
100
AcDbCircle
 10
0.0
 20
0.0
 30
0.0
 40
100.0
100
AcDbArc
 50
-81.26213592233009
 51
-80.38834951456309
  0
LINE
  5
155
330
17
100
AcDbEntity
  8
0
100
AcDbLine
 10
15.191403614605115
 20
-98.8393709825096
 30
0.0
 11
15.95097379533537
 21
-103.7813395316351
 31
0.0
  0
ARC
  5
156
330
17
100
AcDbEntity
  8
0
100
AcDbCircle
 10
0.0
 20
0.0
 30
0.0
 40
105.0
100
AcDbArc
 50
-82.13592233009709
 51
-81.26213592233009
  0
ARC
  5
157
330
17
100
AcDbEntity
  8
0
100
AcDbCircle
 10
0.0
 20
0.0
 30
0.0
 40
105.0
100
AcDbArc
 50
-83.00970873786409
 51
-82.13592233009709
  0
LINE
  5
158
330
17
100
AcDbEntity
  8
0
100
AcDbLine
 10
12.778621302807318
 20
-104.21951274881033
 30
0.0
 11
12.17011552648316
 21
-99.25667880839079
 31
0.0
  0
ARC
  5
159
330
17
100
AcDbEntity
  8
0
100
AcDbCircle
 10
0.0
 20
0.0
 30
0.0
 40
100.0
100
AcDbArc
 50
-83.88349514563106
 51
-83.00970873786406
  0
ARC
  5
15A
330
17
100
AcDbEntity
  8
0
100
AcDbCircle
 10
0.0
 20
0.0
 30
0.0
 40
100.0
100
AcDbArc
 50
-84.75728155339806
 51
-83.88349514563106
  0
ARC
  5
15B
330
17
100
AcDbEntity
  8
0
100
AcDbCircle
 10
0.0
 20
0.0
 30
0.0
 40
100.0
100
AcDbArc
 50
-85.63106796116506
 51
-84.75728155339806
  0
ARC
  5
15C
330
17
100
AcDbEntity
  8
0
100
AcDbCircle
 10
0.0
 20
0.0
 30
0.0
 40
100.0
100
AcDbArc
 50
-86.50485436893203
 51
-85.63106796116503
  0
LINE
  5
15D
330
17
100
AcDbEntity
  8
0
100
AcDbLine
 10
6.09639726235591
 20
-99.81399671598939
 30
0.0
 11
6.401217125473705
 21
-104.80469655178885
 31
0.0
  0
ARC
  5
15E
330
17
100
AcDbEntity
  8
0
100
AcDbCircle
 10
0.0
 20
0.0
 30
0.0
 40
105.0
100
AcDbArc
 50
-87.37864077669903
 51
-86.50485436893203
  0
ARC
  5
15F
330
17
100
AcDbEntity
  8
0
100
AcDbCircle
 10
0.0
 20
0.0
 30
0.0
 40
105.0
100
AcDbArc
 50
-88.25242718446603
 51
-87.37864077669903
  0
LINE
  5
160
330
17
100
AcDbEntity
  8
0
100
AcDbLine
 10
3.2020979109148424
 20
-104.95116278045191
 30
0.0
 11
3.0496170580141353
 21
-99.95348836233515
 31
0.0
  0
ARC
  5
161
330
17
100
AcDbEntity
  8
0
100
AcDbCircle
 10
0.0
 20
0.0
 30
0.0
 40
100.0
100
AcDbArc
 50
-89.126213592233
 51
-88.252427184466
  0
LINE
  5
162
330
17
100
AcDbEntity
  8
0
100
AcDbLine
 10
1.5249858632926212
 20
-99.98837141446378
 30
0.0
 11
1.6012351564572525
 21
-104.98778998518698
 31
0.0
  0
ARC
  5
163
330
17
100
AcDbEntity
  8
0
100
AcDbCircle
 10
0.0
 20
0.0
 30
0.0
 40
105.0
100
AcDbArc
 50
-90.0
 51
-89.126213592233
  0
LINE
  5
164
330
17
100
AcDbEntity
  8
0
100
AcDbLine
 10
6.429395695523604e-15
 20
-105.0
 30
0.0
 11
6.123233995736766e-15
 21
-100.0
 31
0.0
  0
ARC
  5
165
330
17
100
AcDbEntity
  8
0
100
AcDbCircle
 10
0.0
 20
0.0
 30
0.0
 40
100.0
100
AcDbArc
 50
-90.873786407767
 51
-90.0
  0
LINE
  5
166
330
17
100
AcDbEntity
  8
0
100
AcDbLine
 10
-1.524985863292609
 20
-99.98837141446378
 30
0.0
 11
-1.6012351564572394
 21
-104.98778998518698
 31
0.0
  0
ARC
  5
167
330
17
100
AcDbEntity
  8
0
100
AcDbCircle
 10
0.0
 20
0.0
 30
0.0
 40
105.0
100
AcDbArc
 50
-91.74757281553397
 51
-90.87378640776697
  0
ARC
  5
168
330
17
100
AcDbEntity
  8
0
100
AcDbCircle
 10
0.0
 20
0.0
 30
0.0
 40
105.0
100
AcDbArc
 50
-92.62135922330097
 51
-91.74757281553397
  0
LINE
  5
169
330
17
100
AcDbEntity
  8
0
100
AcDbLine
 10
-4.802215947983417
 20
-104.89012690424649
 30
0.0
 11
-4.573538998079445
 21
-99.89535895642523
 31
0.0
  0
ARC
  5
16A
330
17
100
AcDbEntity
  8
0
100
AcDbCircle
 10
0.0
 20
0.0
 30
0.0
 40
100.0
100
AcDbArc
 50
-93.49514563106797
 51
-92.62135922330097
  0
ARC
  5
16B
330
17
100
AcDbEntity
  8
0
100
AcDbCircle
 10
0.0
 20
0.0
 30
0.0
 40
100.0
100
AcDbArc
 50
-94.36893203883494
 51
-93.49514563106794
  0
LINE
  5
16C
330
17
100
AcDbEntity
  8
0
100
AcDbLine
 10
-7.6178376770917655
 20
-99.70942056358307
 30
0.0
 11
-7.998729560946353
 21
-104.69489159176221
 31
0.0
  0
ARC
  5
16D
330
17
100
AcDbEntity
  8
0
100
AcDbCircle
 10
0.0
 20
0.0
 30
0.0
 40
105.0
100
AcDbArc
 50
-95.24271844660194
 51
-94.36893203883494
  0
ARC
  5
16E
330
17
100
AcDbEntity
  8
0
100
AcDbCircle
 10
0.0
 20
0.0
 30
0.0
 40
105.0
100
AcDbArc
 50
-96.11650485436894
 51
-95.24271844660194
  0
LINE
  5
16F
330
17
100
AcDbEntity
  8
0
100
AcDbLine
 10
-11.187802493687004
 20
-104.4022656620164
 30
0.0
 11
-10.655049993987623
 21
-99.43072920192039
 31
0.0
  0
ARC
  5
170
330
17
100
AcDbEntity
  8
0
100
AcDbCircle
 10
0.0
 20
0.0
 30
0.0
 40
100.0
100
AcDbArc
 50
-96.99029126213591
 51
-96.11650485436891
  0
LINE
  5
171
330
17
100
AcDbEntity
  8
0
100
AcDbLine
 10
-12.170115526483148
 20
-99.2566788083908
 30
0.0
 11
-12.778621302807306
 21
-104.21951274881033
 31
0.0
  0
ARC
  5
172
330
17
100
AcDbEntity
  8
0
100
AcDbCircle
 10
0.0
 20
0.0
 30
0.0
 40
105.0
100
AcDbArc
 50
-97.86407766990291
 51
-96.99029126213591
  0
LINE
  5
173
330
17
100
AcDbEntity
  8
0
100
AcDbLine
 10
-14.366468166110561
 20
-104.0125213252334
 30
0.0
 11
-13.68235063439101
 21
-99.0595441192699
 31
0.0
  0
ARC
  5
174
330
17
100
AcDbEntity
  8
0
100
AcDbCircle
 10
0.0
 20
0.0
 30
0.0
 40
100.0
100
AcDbArc
 50
-98.73786407766991
 51
-97.86407766990291
  0
LINE
  5
175
330
17
100
AcDbEntity
  8
0
100
AcDbLine
 10
-15.191403614605104
 20
-98.8393709825096
 30
0.0
 11
-15.950973795335358
 21
-103.7813395316351
 31
0.0
  0
ARC
  5
176
330
17
100
AcDbEntity
  8
0
100
AcDbCircle
 10
0.0
 20
0.0
 30
0.0
 40
105.0
100
AcDbArc
 50
-99.61165048543688
 51
-98.73786407766988
  0
LINE
  5
177
330
17
100
AcDbEntity
  8
0
100
AcDbLine
 10
-17.531769679296804
 20
-103.52602113436065
 30
0.0
 11
-16.696923504092194
 21
-98.596210604153
 31
0.0
  0
ARC
  5
178
330
17
100
AcDbEntity
  8
0
100
AcDbCircle
 10
0.0
 20
0.0
 30
0.0
 40
100.0
100
AcDbArc
 50
-100.48543689320388
 51
-99.61165048543688
  0
LINE
  5
179
330
17
100
AcDbEntity
  8
0
100
AcDbLine
 10
-18.198560161516152
 20
-98.33011953642524
 30
0.0
 11
-19.10848816959196
 21
-103.2466255132465
 31
0.0
  0
ARC
  5
17A
330
17
100
AcDbEntity
  8
0
100
AcDbCircle
 10
0.0
 20
0.0
 30
0.0
 40
105.0
100
AcDbArc
 50
-101.35922330097088
 51
-100.48543689320388
  0
LINE
  5
17B
330
17
100
AcDbEntity
  8
0
100
AcDbLine
 10
-20.68076256610416
 20
-102.94321764781021
 30
0.0
 11
-19.69596434867063
 21
-98.04115966458116
 31
0.0
  0
ARC
  5
17C
330
17
100
AcDbEntity
  8
0
100
AcDbCircle
 10
0.0
 20
0.0
 30
0.0
 40
100.0
100
AcDbArc
 50
-102.23300970873785
 51
-101.35922330097085
  0
LINE
  5
17D
330
17
100
AcDbEntity
  8
0
100
AcDbLine
 10
-21.1887878117021
 20
-97.72939819251249
 30
0.0
 11
-22.248227202287204
 21
-102.61586810213812
 31
0.0
  0
ARC
  5
17E
330
17
100
AcDbEntity
  8
0
100
AcDbCircle
 10
0.0
 20
0.0
 30
0.0
 40
105.0
100
AcDbArc
 50
-103.10679611650485
 51
-102.23300970873785
  0
ARC
  5
17F
330
17
100
AcDbEntity
  8
0
100
AcDbCircle
 10
0.0
 20
0.0
 30
0.0
 40
105.0
100
AcDbArc
 50
-103.98058252427185
 51
-103.10679611650485
  0
LINE
  5
180
330
17
100
AcDbEntity
  8
0
100
AcDbLine
 10
-25.36727020533615
 20
-101.88965404951311
 30
0.0
 11
-24.159304957463
 21
-97.03776576144107
 31
0.0
  0
ARC
  5
181
330
17
100
AcDbEntity
  8
0
100
AcDbCircle
 10
0.0
 20
0.0
 30
0.0
 40
100.0
100
AcDbArc
 50
-104.85436893203882
 51
-103.98058252427182
  0
LINE
  5
182
330
17
100
AcDbEntity
  8
0
100
AcDbLine
 10
-25.636307781938
 20
-96.658055656576
 30
0.0
 11
-26.9181231710349
 21
-101.4909584394048
 31
0.0
  0
ARC
  5
183
330
17
100
AcDbEntity
  8
0
100
AcDbCircle
 10
0.0
 20
0.0
 30
0.0
 40
105.0
100
AcDbArc
 50
-105.72815533980582
 51
-104.85436893203882
  0
LINE
  5
184
330
17
100
AcDbEntity
  8
0
100
AcDbLine
 10
-28.46271574277832
 20
-101.06865890346918
 30
0.0
 11
-27.107348326455543
 21
-96.25586562235159
 31
0.0
  0
ARC
  5
185
330
17
100
AcDbEntity
  8
0
100
AcDbCircle
 10
0.0
 20
0.0
 30
0.0
 40
100.0
100
AcDbArc
 50
-106.60194174757282
 51
-105.72815533980582
  0
LINE
  5
186
330
17
100
AcDbEntity
  8
0
100
AcDbLine
 10
-28.572084468599595
 20
-95.83128919679214
 30
0.0
 11
-30.000688692029577
 21
-100.62285365663175
 31
0.0
  0
ARC
  5
187
330
17
100
AcDbEntity
  8
0
100
AcDbCircle
 10
0.0
 20
0.0
 30
0.0
 40
105.0
100
AcDbArc
 50
-107.4757281553398
 51
-106.6019417475728
  0
LINE
  5
188
330
17
100
AcDbEntity
  8
0
100
AcDbLine
 10
-31.531684329788778
 20
-100.15364638058143
 30
0.0
 11
-30.030175552179788
 21
-95.38442512436328
 31
0.0
  0
ARC
  5
189
330
17
100
AcDbEntity
  8
0
100
AcDbCircle
 10
0.0
 20
0.0
 30
0.0
 40
100.0
100
AcDbArc
 50
-108.3495145631068
 51
-107.4757281553398
  0
ARC
  5
18A
330
17
100
AcDbEntity
  8
0
100
AcDbCircle
 10
0.0
 20
0.0
 30
0.0
 40
100.0
100
AcDbArc
 50
-109.2233009708738
 51
-108.3495145631068
  0
ARC
  5
18B
330
17
100
AcDbEntity
  8
0
100
AcDbCircle
 10
0.0
 20
0.0
 30
0.0
 40
100.0
100
AcDbArc
 50
-110.09708737864077
 51
-109.22330097087377
  0
LINE
  5
18C
330
17
100
AcDbEntity
  8
0
100
AcDbLine
 10
-34.361195544251274
 20
-93.9111720764347
 30
0.0
 11
-36.07925532146384
 21
-98.60673068025642
 31
0.0
  0
ARC
  5
18D
330
17
100
AcDbEntity
  8
0
100
AcDbCircle
 10
0.0
 20
0.0
 30
0.0
 40
105.0
100
AcDbArc
 50
-110.97087378640776
 51
-110.09708737864077
  0
ARC
  5
18E
330
17
100
AcDbEntity
  8
0
100
AcDbCircle
 10
0.0
 20
0.0
 30
0.0
 40
105.0
100
AcDbArc
 50
-111.84466019417476
 51
-110.97087378640776
  0
LINE
  5
18F
330
17
100
AcDbEntity
  8
0
100
AcDbLine
 10
-39.06960194813174
 20
-97.46058795028142
 30
0.0
 11
-37.20914471250642
 21
-92.8196075716966
 31
0.0
  0
ARC
  5
190
330
17
100
AcDbEntity
  8
0
100
AcDbCircle
 10
0.0
 20
0.0
 30
0.0
 40
100.0
100
AcDbArc
 50
-112.71844660194174
 51
-111.84466019417474
  0
LINE
  5
191
330
17
100
AcDbEntity
  8
0
100
AcDbLine
 10
-38.62030370911825
 20
-92.24137976751794
 30
0.0
 11
-40.55131889457416
 21
-96.85344875589384
 31
0.0
  0
ARC
  5
192
330
17
100
AcDbEntity
  8
0
100
AcDbCircle
 10
0.0
 20
0.0
 30
0.0
 40
105.0
100
AcDbArc
 50
-113.59223300970874
 51
-112.71844660194174
  0
LINE
  5
193
330
17
100
AcDbEntity
  8
0
100
AcDbLine
 10
-42.02360475140918
 20
-96.22378418923951
 30
0.0
 11
-40.022480715627786
 21
-91.64169922784716
 31
0.0
  0
ARC
  5
194
330
17
100
AcDbEntity
  8
0
100
AcDbCircle
 10
0.0
 20
0.0
 30
0.0
 40
100.0
100
AcDbArc
 50
-114.46601941747574
 51
-113.59223300970874
  0
ARC
  5
195
330
17
100
AcDbEntity
  8
0
100
AcDbCircle
 10
0.0
 20
0.0
 30
0.0
 40
100.0
100
AcDbArc
 50
-115.3398058252427
 51
-114.4660194174757
  0
LINE
  5
196
330
17
100
AcDbEntity
  8
0
100
AcDbLine
 10
-42.79858649631928
 20
-90.37854277380819
 30
0.0
 11
-44.93851582113524
 21
-94.8974699124986
 31
0.0
  0
ARC
  5
197
330
17
100
AcDbEntity
  8
0
100
AcDbCircle
 10
0.0
 20
0.0
 30
0.0
 40
105.0
100
AcDbArc
 50
-116.2135922330097
 51
-115.3398058252427
  0
LINE
  5
198
330
17
100
AcDbEntity
  8
0
100
AcDbLine
 10
-46.38046310817222
 20
-94.20112866559231
 30
0.0
 11
-44.17186962683069
 21
-89.71536063389743
 31
0.0
  0
ARC
  5
199
330
17
100
AcDbEntity
  8
0
100
AcDbCircle
 10
0.0
 20
0.0
 30
0.0
 40
100.0
100
AcDbArc
 50
-117.0873786407767
 51
-116.2135922330097
  0
ARC
  5
19A
330
17
100
AcDbEntity
  8
0
100
AcDbCircle
 10
0.0
 20
0.0
 30
0.0
 40
100.0
100
AcDbArc
 50
-117.96116504854368
 51
-117.08737864077668
  0
LINE
  5
19B
330
17
100
AcDbEntity
  8
0
100
AcDbLine
 10
-46.887299508430296
 20
-88.32655967944609
 30
0.0
 11
-49.23166448385181
 21
-92.7428876634184
 31
0.0
  0
ARC
  5
19C
330
17
100
AcDbEntity
  8
0
100
AcDbCircle
 10
0.0
 20
0.0
 30
0.0
 40
105.0
100
AcDbArc
 50
-118.83495145631068
 51
-117.96116504854368
  0
ARC
  5
19D
330
17
100
AcDbEntity
  8
0
100
AcDbCircle
 10
0.0
 20
0.0
 30
0.0
 40
105.0
100
AcDbArc
 50
-119.70873786407768
 51
-118.83495145631068
  0
LINE
  5
19E
330
17
100
AcDbEntity
  8
0
100
AcDbLine
 10
-52.037068952729236
 20
-91.19837418950462
 30
0.0
 11
-49.55911328831356
 21
-86.85559446619487
 31
0.0
  0
ARC
  5
19F
330
17
100
AcDbEntity
  8
0
100
AcDbCircle
 10
0.0
 20
0.0
 30
0.0
 40
100.0
100
AcDbArc
 50
-120.58252427184465
 51
-119.70873786407765
  0
LINE
  5
1A0
330
17
100
AcDbEntity
  8
0
100
AcDbLine
 10
-50.87788580152201
 20
-86.08972491747946
 30
0.0
 11
-53.421780091598116
 21
-90.39421116335343
 31
0.0
  0
ARC
  5
1A1
330
17
100
AcDbEntity
  8
0
100
AcDbCircle
 10
0.0
 20
0.0
 30
0.0
 40
105.0
100
AcDbArc
 50
-121.45631067961165
 51
-120.58252427184465
  0
LINE
  5
1A2
330
17
100
AcDbEntity
  8
0
100
AcDbLine
 10
-54.79406683568123
 20
-89.56902500087237
 30
0.0
 11
-52.18482555779165
 21
-85.30383333416415
 31
0.0
  0
ARC
  5
1A3
330
17
100
AcDbEntity
  8
0
100
AcDbCircle
 10
0.0
 20
0.0
 30
0.0
 40
100.0
100
AcDbArc
 50
-122.33009708737865
 51
-121.45631067961165
  0
ARC
  5
1A4
330
17
100
AcDbEntity
  8
0
100
AcDbCircle
 10
0.0
 20
0.0
 30
0.0
 40
100.0
100
AcDbArc
 50
-123.20388349514562
 51
-122.33009708737862
  0
ARC
  5
1A5
330
17
100
AcDbEntity
  8
0
100
AcDbCircle
 10
0.0
 20
0.0
 30
0.0
 40
100.0
100
AcDbArc
 50
-124.07766990291262
 51
-123.20388349514562
  0
LINE
  5
1A6
330
17
100
AcDbEntity
  8
0
100
AcDbLine
 10
-56.031622896134984
 20
-82.82787716478867
 30
0.0
 11
-58.83320404094173
 21
-86.96927102302811
 31
0.0
  0
ARC
  5
1A7
330
17
100
AcDbEntity
  8
0
100
AcDbCircle
 10
0.0
 20
0.0
 30
0.0
 40
105.0
100
AcDbArc
 50
-124.95145631067962
 51
-124.07766990291262
  0
LINE
  5
1A8
330
17
100
AcDbEntity
  8
0
100
AcDbLine
 10
-60.15263165999597
 20
-86.0619596824105
 30
0.0
 11
-57.288220628567586
 21
-81.96377112610524
 31
0.0
  0
ARC
  5
1A9
330
17
100
AcDbEntity
  8
0
100
AcDbCircle
 10
0.0
 20
0.0
 30
0.0
 40
100.0
100
AcDbArc
 50
-125.82524271844659
 51
-124.95145631067959
  0
LINE
  5
1AA
330
17
100
AcDbEntity
  8
0
100
AcDbLine
 10
-58.531494741524185
 20
-81.08060263295363
 30
0.0
 11
-61.45806947860039
 21
-85.1346327646013
 31
0.0
  0
ARC
  5
1AB
330
17
100
AcDbEntity
  8
0
100
AcDbCircle
 10
0.0
 20
0.0
 30
0.0
 40
105.0
100
AcDbArc
 50
-126.69902912621359
 51
-125.82524271844659
  0
ARC
  5
1AC
330
17
100
AcDbEntity
  8
0
100
AcDbCircle
 10
0.0
 20
0.0
 30
0.0
 40
105.0
100
AcDbArc
 50
-127.57281553398059
 51
-126.69902912621359
  0
LINE
  5
1AD
330
17
100
AcDbEntity
  8
0
100
AcDbLine
 10
-64.0257646070757
 20
-83.22079948233694
 30
0.0
 11
-60.976918673405436
 21
-79.25790426889232
 31
0.0
  0
ARC
  5
1AE
330
17
100
AcDbEntity
  8
0
100
AcDbCircle
 10
0.0
 20
0.0
 30
0.0
 40
100.0
100
AcDbArc
 50
-128.44660194174756
 51
-127.57281553398056
  0
LINE
  5
1AF
330
17
100
AcDbEntity
  8
0
100
AcDbLine
 10
-62.17849975590269
 20
-78.31879830605938
 30
0.0
 11
-65.28742474369783
 21
-82.23473822136235
 31
0.0
  0
ARC
  5
1B0
330
17
100
AcDbEntity
  8
0
100
AcDbCircle
 10
0.0
 20
0.0
 30
0.0
 40
105.0
100
AcDbArc
 50
-129.32038834951456
 51
-128.44660194174756
  0
LINE
  5
1B1
330
17
100
AcDbEntity
  8
0
100
AcDbLine
 10
-66.5339008722586
 20
-81.22955148663857
 30
0.0
 11
-63.36561987834152
 21
-77.36147760632245
 31
0.0
  0
ARC
  5
1B2
330
17
100
AcDbEntity
  8
0
100
AcDbCircle
 10
0.0
 20
0.0
 30
0.0
 40
100.0
100
AcDbArc
 50
-130.19417475728156
 51
-129.32038834951456
  0
ARC
  5
1B3
330
17
100
AcDbEntity
  8
0
100
AcDbCircle
 10
0.0
 20
0.0
 30
0.0
 40
100.0
100
AcDbArc
 50
-131.06796116504853
 51
-130.19417475728153
  0
ARC
  5
1B4
330
17
100
AcDbEntity
  8
0
100
AcDbCircle
 10
0.0
 20
0.0
 30
0.0
 40
100.0
100
AcDbArc
 50
-131.94174757281553
 51
-131.06796116504853
  0
ARC
  5
1B5
330
17
100
AcDbEntity
  8
0
100
AcDbCircle
 10
0.0
 20
0.0
 30
0.0
 40
100.0
100
AcDbArc
 50
-132.81553398058253
 51
-131.94174757281553
  0
ARC
  5
1B6
330
17
100
AcDbEntity
  8
0
100
AcDbCircle
 10
0.0
 20
0.0
 30
0.0
 40
100.0
100
AcDbArc
 50
-133.6893203883495
 51
-132.8155339805825
  0
LINE
  5
1B7
330
17
100
AcDbEntity
  8
0
100
AcDbLine
 10
-69.07476420586627
 20
-72.30959099527513
 30
0.0
 11
-72.5285024161596
 21
-75.92507054503889
 31
0.0
  0
ARC
  5
1B8
330
17
100
AcDbEntity
  8
0
100
AcDbCircle
 10
0.0
 20
0.0
 30
0.0
 40
105.0
100
AcDbArc
 50
-134.5631067961165
 51
-133.6893203883495
  0
ARC
  5
1B9
330
17
100
AcDbEntity
  8
0
100
AcDbCircle
 10
0.0
 20
0.0
 30
0.0
 40
105.0
100
AcDbArc
 50
-135.4368932038835
 51
-134.5631067961165
  0
LINE
  5
1BA
330
17
100
AcDbEntity
  8
0
100
AcDbLine
 10
-74.81019212456285
 20
-73.67791496972478
 30
0.0
 11
-71.24780202339319
 21
-70.16944282830931
 31
0.0
  0
ARC
  5
1BB
330
17
100
AcDbEntity
  8
0
100
AcDbCircle
 10
0.0
 20
0.0
 30
0.0
 40
100.0
100
AcDbArc
 50
-136.31067961165047
 51
-135.43689320388347
  0
ARC
  5
1BC
330
17
100
AcDbEntity
  8
0
100
AcDbCircle
 10
0.0
 20
0.0
 30
0.0
 40
100.0
100
AcDbArc
 50
-137.18446601941747
 51
-136.31067961165047
  0
LINE
  5
1BD
330
17
100
AcDbEntity
  8
0
100
AcDbLine
 10
-73.35456280187749
 20
-67.96402074734404
 30
0.0
 11
-77.02229094197138
 21
-71.36222178471124
 31
0.0
  0
ARC
  5
1BE
330
17
100
AcDbEntity
  8
0
100
AcDbCircle
 10
0.0
 20
0.0
 30
0.0
 40
105.0
100
AcDbArc
 50
-138.05825242718447
 51
-137.18446601941747
  0
ARC
  5
1BF
330
17
100
AcDbEntity
  8
0
100
AcDbCircle
 10
0.0
 20
0.0
 30
0.0
 40
105.0
100
AcDbArc
 50
-138.93203883495144
 51
-138.05825242718444
  0
LINE
  5
1C0
330
17
100
AcDbEntity
  8
0
100
AcDbLine
 10
-79.1627411016117
 20
-68.98014512364551
 30
0.0
 11
-75.39308676343973
 21
-65.69537630823382
 31
0.0
  0
ARC
  5
1C1
330
17
100
AcDbEntity
  8
0
100
AcDbCircle
 10
0.0
 20
0.0
 30
0.0
 40
100.0
100
AcDbArc
 50
-139.80582524271844
 51
-138.93203883495144
  0
ARC
  5
1C2
330
17
100
AcDbEntity
  8
0
100
AcDbCircle
 10
0.0
 20
0.0
 30
0.0
 40
100.0
100
AcDbArc
 50
-140.67961165048544
 51
-139.80582524271844
  0
ARC
  5
1C3
330
17
100
AcDbEntity
  8
0
100
AcDbCircle
 10
0.0
 20
0.0
 30
0.0
 40
100.0
100
AcDbArc
 50
-141.5533980582524
 51
-140.6796116504854
  0
LINE
  5
1C4
330
17
100
AcDbEntity
  8
0
100
AcDbLine
 10
-78.31879830605934
 20
-62.17849975590274
 30
0.0
 11
-82.2347382213623
 21
-65.28742474369787
 31
0.0
  0
ARC
  5
1C5
330
17
100
AcDbEntity
  8
0
100
AcDbCircle
 10
0.0
 20
0.0
 30
0.0
 40
105.0
100
AcDbArc
 50
-142.4271844660194
 51
-141.5533980582524
  0
ARC
  5
1C6
330
17
100
AcDbEntity
  8
0
100
AcDbCircle
 10
0.0
 20
0.0
 30
0.0
 40
105.0
100
AcDbArc
 50
-143.3009708737864
 51
-142.4271844660194
  0
LINE
  5
1C7
330
17
100
AcDbEntity
  8
0
100
AcDbLine
 10
-84.18750593960813
 20
-62.749213888848416
 30
0.0
 11
-80.17857708534108
 21
-59.76115608461754
 31
0.0
  0
ARC
  5
1C8
330
17
100
AcDbEntity
  8
0
100
AcDbCircle
 10
0.0
 20
0.0
 30
0.0
 40
100.0
100
AcDbArc
 50
-144.17475728155338
 51
-143.30097087378638
  0
ARC
  5
1C9
330
17
100
AcDbEntity
  8
0
100
AcDbCircle
 10
0.0
 20
0.0
 30
0.0
 40
100.0
100
AcDbArc
 50
-145.04854368932038
 51
-144.17475728155338
  0
LINE
  5
1CA
330
17
100
AcDbEntity
  8
0
100
AcDbLine
 10
-81.96377112610526
 20
-57.288220628567565
 30
0.0
 11
-86.06195968241052
 21
-60.15263165999595
 31
0.0
  0
ARC
  5
1CB
330
17
100
AcDbEntity
  8
0
100
AcDbCircle
 10
0.0
 20
0.0
 30
0.0
 40
105.0
100
AcDbArc
 50
-145.92233009708738
 51
-145.04854368932038
  0
LINE
  5
1CC
330
17
100
AcDbEntity
  8
0
100
AcDbLine
 10
-86.9692710230281
 20
-58.833204040941744
 30
0.0
 11
-82.82787716478866
 21
-56.03162289613499
 31
0.0
  0
ARC
  5
1CD
330
17
100
AcDbEntity
  8
0
100
AcDbCircle
 10
0.0
 20
0.0
 30
0.0
 40
100.0
100
AcDbArc
 50
-146.79611650485435
 51
-145.92233009708735
  0
LINE
  5
1CE
330
17
100
AcDbEntity
  8
0
100
AcDbLine
 10
-83.67271978238418
 20
-54.76199379331085
 30
0.0
 11
-87.85635577150339
 21
-57.50009348297639
 31
0.0
  0
ARC
  5
1CF
330
17
100
AcDbEntity
  8
0
100
AcDbCircle
 10
0.0
 20
0.0
 30
0.0
 40
105.0
100
AcDbArc
 50
-147.66990291262135
 51
-146.79611650485435
  0
LINE
  5
1D0
330
17
100
AcDbEntity
  8
0
100
AcDbLine
 10
-88.72300761701894
 20
-56.153610029902794
 30
0.0
 11
-84.49810249239898
 21
-53.47962859990743
 31
0.0
  0
ARC
  5
1D1
330
17
100
AcDbEntity
  8
0
100
AcDbCircle
 10
0.0
 20
0.0
 30
0.0
 40
100.0
100
AcDbArc
 50
-148.54368932038835
 51
-147.66990291262135
  0
ARC
  5
1D2
330
17
100
AcDbEntity
  8
0
100
AcDbCircle
 10
0.0
 20
0.0
 30
0.0
 40
100.0
100
AcDbArc
 50
-149.41747572815532
 51
-148.54368932038832
  0
LINE
  5
1D3
330
17
100
AcDbEntity
  8
0
100
AcDbLine
 10
-86.08972491747943
 20
-50.87788580152207
 30
0.0
 11
-90.3942111633534
 21
-53.42178009159817
 31
0.0
  0
ARC
  5
1D4
330
17
100
AcDbEntity
  8
0
100
AcDbCircle
 10
0.0
 20
0.0
 30
0.0
 40
105.0
100
AcDbArc
 50
-150.29126213592232
 51
-149.41747572815532
  0
ARC
  5
1D5
330
17
100
AcDbEntity
  8
0
100
AcDbCircle
 10
0.0
 20
0.0
 30
0.0
 40
105.0
100
AcDbArc
 50
-151.16504854368932
 51
-150.29126213592232
  0
LINE
  5
1D6
330
17
100
AcDbEntity
  8
0
100
AcDbLine
 10
-91.98132705375531
 20
-50.64025546371288
 30
0.0
 11
-87.60126386071934
 21
-48.2288147273456
 31
0.0
  0
ARC
  5
1D7
330
17
100
AcDbEntity
  8
0
100
AcDbCircle
 10
0.0
 20
0.0
 30
0.0
 40
100.0
100
AcDbArc
 50
-152.0388349514563
 51
-151.1650485436893
  0
ARC
  5
1D8
330
17
100
AcDbEntity
  8
0
100
AcDbCircle
 10
0.0
 20
0.0
 30
0.0
 40
100.0
100
AcDbArc
 50
-152.9126213592233
 51
-152.0388349514563
  0
LINE
  5
1D9
330
17
100
AcDbEntity
  8
0
100
AcDbLine
 10
-89.03131323908578
 20
-45.534879630057105
 30
0.0
 11
-93.48287890104007
 21
-47.81162361155996
 31
0.0
  0
ARC
  5
1DA
330
17
100
AcDbEntity
  8
0
100
AcDbCircle
 10
0.0
 20
0.0
 30
0.0
 40
105.0
100
AcDbArc
 50
-153.7864077669903
 51
-152.9126213592233
  0
LINE
  5
1DB
330
17
100
AcDbEntity
  8
0
100
AcDbLine
 10
-94.2011286655923
 20
-46.38046310817224
 30
0.0
 11
-89.71536063389742
 21
-44.171869626830706
 31
0.0
  0
ARC
  5
1DC
330
17
100
AcDbEntity
  8
0
100
AcDbCircle
 10
0.0
 20
0.0
 30
0.0
 40
100.0
100
AcDbArc
 50
-154.66019417475727
 51
-153.78640776699027
  0
ARC
  5
1DD
330
17
100
AcDbEntity
  8
0
100
AcDbCircle
 10
0.0
 20
0.0
 30
0.0
 40
100.0
100
AcDbArc
 50
-155.53398058252426
 51
-154.66019417475727
  0
LINE
  5
1DE
330
17
100
AcDbEntity
  8
0
100
AcDbLine
 10
-91.02070542141327
 20
-41.41534962532985
 30
0.0
 11
-95.57174069248393
 21
-43.486117106596346
 31
0.0
  0
ARC
  5
1DF
330
17
100
AcDbEntity
  8
0
100
AcDbCircle
 10
0.0
 20
0.0
 30
0.0
 40
105.0
100
AcDbArc
 50
-156.40776699029126
 51
-155.53398058252426
  0
LINE
  5
1E0
330
17
100
AcDbEntity
  8
0
100
AcDbLine
 10
-96.22378418923951
 20
-42.023604751409195
 30
0.0
 11
-91.64169922784716
 21
-40.02248071562781
 31
0.0
  0
ARC
  5
1E1
330
17
100
AcDbEntity
  8
0
100
AcDbCircle
 10
0.0
 20
0.0
 30
0.0
 40
100.0
100
AcDbArc
 50
-157.28155339805824
 51
-156.40776699029124
  0
LINE
  5
1E2
330
17
100
AcDbEntity
  8
0
100
AcDbLine
 10
-92.24137976751791
 20
-38.62030370911829
 30
0.0
 11
-96.85344875589381
 21
-40.5513188945742
 31
0.0
  0
ARC
  5
1E3
330
17
100
AcDbEntity
  8
0
100
AcDbCircle
 10
0.0
 20
0.0
 30
0.0
 40
105.0
100
AcDbArc
 50
-158.15533980582524
 51
-157.28155339805824
  0
ARC
  5
1E4
330
17
100
AcDbEntity
  8
0
100
AcDbCircle
 10
0.0
 20
0.0
 30
0.0
 40
105.0
100
AcDbArc
 50
-159.02912621359224
 51
-158.15533980582524
  0
LINE
  5
1E5
330
17
100
AcDbEntity
  8
0
100
AcDbLine
 10
-98.04506056900122
 20
-37.578798517526884
 30
0.0
 11
-93.37624816095355
 21
-35.78933192145418
 31
0.0
  0
ARC
  5
1E6
330
17
100
AcDbEntity
  8
0
100
AcDbCircle
 10
0.0
 20
0.0
 30
0.0
 40
100.0
100
AcDbArc
 50
-159.9029126213592
 51
-159.0291262135922
  0
ARC
  5
1E7
330
17
100
AcDbEntity
  8
0
100
AcDbCircle
 10
0.0
 20
0.0
 30
0.0
 40
100.0
100
AcDbArc
 50
-160.7766990291262
 51
-159.9029126213592
  0
LINE
  5
1E8
330
17
100
AcDbEntity
  8
0
100
AcDbLine
 10
-94.42425490996985
 20
-32.925067725018195
 30
0.0
 11
-99.14546765546834
 21
-34.57132111126911
 31
0.0
  0
ARC
  5
1E9
330
17
100
AcDbEntity
  8
0
100
AcDbCircle
 10
0.0
 20
0.0
 30
0.0
 40
105.0
100
AcDbArc
 50
-161.6504854368932
 51
-160.7766990291262
  0
LINE
  5
1EA
330
17
100
AcDbEntity
  8
0
100
AcDbLine
 10
-99.6611461996571
 20
-33.055346589781415
 30
0.0
 11
-94.91537733300676
 21
-31.481282466458488
 31
0.0
  0
ARC
  5
1EB
330
17
100
AcDbEntity
  8
0
100
AcDbCircle
 10
0.0
 20
0.0
 30
0.0
 40
100.0
100
AcDbArc
 50
-162.52427184466018
 51
-161.65048543689318
  0
ARC
  5
1EC
330
17
100
AcDbEntity
  8
0
100
AcDbCircle
 10
0.0
 20
0.0
 30
0.0
 40
100.0
100
AcDbArc
 50
-163.39805825242718
 51
-162.52427184466018
  0
ARC
  5
1ED
330
17
100
AcDbEntity
  8
0
100
AcDbCircle
 10
0.0
 20
0.0
 30
0.0
 40
100.0
100
AcDbArc
 50
-164.27184466019418
 51
-163.39805825242718
  0
ARC
  5
1EE
330
17
100
AcDbEntity
  8
0
100
AcDbCircle
 10
0.0
 20
0.0
 30
0.0
 40
100.0
100
AcDbArc
 50
-165.14563106796115
 51
-164.27184466019415
  0
LINE
  5
1EF
330
17
100
AcDbEntity
  8
0
100
AcDbLine
 10
-96.658055656576
 20
-25.63630778193804
 30
0.0
 11
-101.49095843940479
 21
-26.918123171034942
 31
0.0
  0
ARC
  5
1F0
330
17
100
AcDbEntity
  8
0
100
AcDbCircle
 10
0.0
 20
0.0
 30
0.0
 40
105.0
100
AcDbArc
 50
-166.01941747572812
 51
-165.14563106796115
  0
ARC
  5
1F1
330
17
100
AcDbEntity
  8
0
100
AcDbCircle
 10
0.0
 20
0.0
 30
0.0
 40
105.0
100
AcDbArc
 50
-166.89320388349512
 51
-166.01941747572812
  0
LINE
  5
1F2
330
17
100
AcDbEntity
  8
0
100
AcDbLine
 10
-102.264653008474
 20
-23.81051753020938
 30
0.0
 11
-97.3949076271181
 21
-22.67668336210417
 31
0.0
  0
ARC
  5
1F3
330
17
100
AcDbEntity
  8
0
100
AcDbCircle
 10
0.0
 20
0.0
 30
0.0
 40
100.0
100
AcDbArc
 50
-167.76699029126212
 51
-166.89320388349512
  0
ARC
  5
1F4
330
17
100
AcDbEntity
  8
0
100
AcDbCircle
 10
0.0
 20
0.0
 30
0.0
 40
100.0
100
AcDbArc
 50
-168.64077669902912
 51
-167.76699029126212
  0
ARC
  5
1F5
330
17
100
AcDbEntity
  8
0
100
AcDbCircle
 10
0.0
 20
0.0
 30
0.0
 40
100.0
100
AcDbArc
 50
-169.51456310679612
 51
-168.64077669902912
  0
LINE
  5
1F6
330
17
100
AcDbEntity
  8
0
100
AcDbLine
 10
-98.33011953642524
 20
-18.19856016151615
 30
0.0
 11
-103.2466255132465
 21
-19.108488169591958
 31
0.0
  0
ARC
  5
1F7
330
17
100
AcDbEntity
  8
0
100
AcDbCircle
 10
0.0
 20
0.0
 30
0.0
 40
105.0
100
AcDbArc
 50
-170.38834951456312
 51
-169.51456310679612
  0
LINE
  5
1F8
330
17
100
AcDbEntity
  8
0
100
AcDbLine
 10
-103.52602113436065
 20
-17.531769679296826
 30
0.0
 11
-98.596210604153
 21
-16.696923504092215
 31
0.0
  0
ARC
  5
1F9
330
17
100
AcDbEntity
  8
0
100
AcDbCircle
 10
0.0
 20
0.0
 30
0.0
 40
100.0
100
AcDbArc
 50
-171.26213592233012
 51
-170.38834951456312
  0
LINE
  5
1FA
330
17
100
AcDbEntity
  8
0
100
AcDbLine
 10
-98.83937098250962
 20
-15.191403614605054
 30
0.0
 11
-103.7813395316351
 21
-15.950973795335306
 31
0.0
  0
ARC
  5
1FB
330
17
100
AcDbEntity
  8
0
100
AcDbCircle
 10
0.0
 20
0.0
 30
0.0
 40
105.0
100
AcDbArc
 50
-172.13592233009706
 51
-171.26213592233006
  0
LINE
  5
1FC
330
17
100
AcDbEntity
  8
0
100
AcDbLine
 10
-104.0125213252334
 20
-14.366468166110625
 30
0.0
 11
-99.05954411926989
 21
-13.68235063439107
 31
0.0
  0
ARC
  5
1FD
330
17
100
AcDbEntity
  8
0
100
AcDbCircle
 10
0.0
 20
0.0
 30
0.0
 40
100.0
100
AcDbArc
 50
-173.00970873786406
 51
-172.13592233009706
  0
LINE
  5
1FE
330
17
100
AcDbEntity
  8
0
100
AcDbLine
 10
-99.25667880839079
 20
-12.170115526483189
 30
0.0
 11
-104.21951274881033
 21
-12.778621302807348
 31
0.0
  0
ARC
  5
1FF
330
17
100
AcDbEntity
  8
0
100
AcDbCircle
 10
0.0
 20
0.0
 30
0.0
 40
105.0
100
AcDbArc
 50
-173.88349514563106
 51
-173.00970873786406
  0
ARC
  5
200
330
17
100
AcDbEntity
  8
0
100
AcDbCircle
 10
0.0
 20
0.0
 30
0.0
 40
105.0
100
AcDbArc
 50
-174.75728155339806
 51
-173.88349514563106
  0
LINE
  5
201
330
17
100
AcDbEntity
  8
0
100
AcDbLine
 10
-104.56073756169398
 20
-9.594381718201447
 30
0.0
 11
-99.58165482066093
 21
-9.137506398287092
 31
0.0
  0
ARC
  5
202
330
17
100
AcDbEntity
  8
0
100
AcDbCircle
 10
0.0
 20
0.0
 30
0.0
 40
100.0
100
AcDbArc
 50
-175.63106796116506
 51
-174.75728155339806
  0
ARC
  5
203
330
17
100
AcDbEntity
  8
0
100
AcDbCircle
 10
0.0
 20
0.0
 30
0.0
 40
100.0
100
AcDbArc
 50
-176.50485436893206
 51
-175.63106796116506
  0
ARC
  5
204
330
17
100
AcDbEntity
  8
0
100
AcDbCircle
 10
0.0
 20
0.0
 30
0.0
 40
100.0
100
AcDbArc
 50
-177.378640776699
 51
-176.504854368932
  0
LINE
  5
205
330
17
100
AcDbEntity
  8
0
100
AcDbLine
 10
-99.89535895642523
 20
-4.573538998079486
 30
0.0
 11
-104.89012690424649
 21
-4.80221594798346
 31
0.0
  0
ARC
  5
206
330
17
100
AcDbEntity
  8
0
100
AcDbCircle
 10
0.0
 20
0.0
 30
0.0
 40
105.0
100
AcDbArc
 50
-178.252427184466
 51
-177.378640776699
  0
LINE
  5
207
330
17
100
AcDbEntity
  8
0
100
AcDbLine
 10
-104.95116278045191
 20
-3.2020979109148953
 30
0.0
 11
-99.95348836233515
 21
-3.049617058014186
 31
0.0
  0
ARC
  5
208
330
17
100
AcDbEntity
  8
0
100
AcDbCircle
 10
0.0
 20
0.0
 30
0.0
 40
100.0
100
AcDbArc
 50
-179.126213592233
 51
-178.252427184466
  0
ARC
  5
209
330
17
100
AcDbEntity
  8
0
100
AcDbCircle
 10
0.0
 20
0.0
 30
0.0
 40
100.0
100
AcDbArc
 50
-180.0
 51
-179.126213592233
  0
ARC
  5
20A
330
17
100
AcDbEntity
  8
0
100
AcDbCircle
 10
0.0
 20
0.0
 30
0.0
 40
100.0
100
AcDbArc
 50
-180.873786407767
 51
-180.0
  0
LINE
  5
20B
330
17
100
AcDbEntity
  8
0
100
AcDbLine
 10
-99.98837141446378
 20
1.5249858632926252
 30
0.0
 11
-104.98778998518698
 21
1.6012351564572564
 31
0.0
  0
ARC
  5
20C
330
17
100
AcDbEntity
  8
0
100
AcDbCircle
 10
0.0
 20
0.0
 30
0.0
 40
105.0
100
AcDbArc
 50
-181.747572815534
 51
-180.873786407767
  0
ARC
  5
20D
330
17
100
AcDbEntity
  8
0
100
AcDbCircle
 10
0.0
 20
0.0
 30
0.0
 40
105.0
100
AcDbArc
 50
-182.62135922330094
 51
-181.74757281553394
  0
LINE
  5
20E
330
17
100
AcDbEntity
  8
0
100
AcDbLine
 10
-104.89012690424649
 20
4.802215947983341
 30
0.0
 11
-99.89535895642523
 21
4.573538998079372
 31
0.0
  0
ARC
  5
20F
330
17
100
AcDbEntity
  8
0
100
AcDbCircle
 10
0.0
 20
0.0
 30
0.0
 40
100.0
100
AcDbArc
 50
-183.49514563106794
 51
-182.62135922330094
  0
ARC
  5
210
330
17
100
AcDbEntity
  8
0
100
AcDbCircle
 10
0.0
 20
0.0
 30
0.0
 40
100.0
100
AcDbArc
 50
-184.36893203883494
 51
-183.49514563106794
  0
ARC
  5
211
330
17
100
AcDbEntity
  8
0
100
AcDbCircle
 10
0.0
 20
0.0
 30
0.0
 40
100.0
100
AcDbArc
 50
-185.24271844660194
 51
-184.36893203883494
  0
ARC
  5
212
330
17
100
AcDbEntity
  8
0
100
AcDbCircle
 10
0.0
 20
0.0
 30
0.0
 40
100.0
100
AcDbArc
 50
-186.11650485436894
 51
-185.24271844660194
  0
LINE
  5
213
330
17
100
AcDbEntity
  8
0
100
AcDbLine
 10
-99.43072920192039
 20
10.655049993987616
 30
0.0
 11
-104.4022656620164
 21
11.187802493686997
 31
0.0
  0
ARC
  5
214
330
17
100
AcDbEntity
  8
0
100
AcDbCircle
 10
0.0
 20
0.0
 30
0.0
 40
105.0
100
AcDbArc
 50
-186.99029126213594
 51
-186.11650485436894
  0
LINE
  5
215
330
17
100
AcDbEntity
  8
0
100
AcDbLine
 10
-104.21951274881033
 20
12.778621302807368
 30
0.0
 11
-99.25667880839079
 21
12.170115526483208
 31
0.0
  0
ARC
  5
216
330
17
100
AcDbEntity
  8
0
100
AcDbCircle
 10
0.0
 20
0.0
 30
0.0
 40
100.0
100
AcDbArc
 50
-187.86407766990288
 51
-186.99029126213588
  0
ARC
  5
217
330
17
100
AcDbEntity
  8
0
100
AcDbCircle
 10
0.0
 20
0.0
 30
0.0
 40
100.0
100
AcDbArc
 50
-188.73786407766988
 51
-187.86407766990288
  0
LINE
  5
218
330
17
100
AcDbEntity
  8
0
100
AcDbLine
 10
-98.83937098250962
 20
15.191403614605031
 30
0.0
 11
-103.7813395316351
 21
15.950973795335283
 31
0.0
  0
ARC
  5
219
330
17
100
AcDbEntity
  8
0
100
AcDbCircle
 10
0.0
 20
0.0
 30
0.0
 40
105.0
100
AcDbArc
 50
-189.61165048543688
 51
-188.73786407766988
  0
ARC
  5
21A
330
17
100
AcDbEntity
  8
0
100
AcDbCircle
 10
0.0
 20
0.0
 30
0.0
 40
105.0
100
AcDbArc
 50
-190.48543689320388
 51
-189.61165048543688
  0
LINE
  5
21B
330
17
100
AcDbEntity
  8
0
100
AcDbLine
 10
-103.2466255132465
 20
19.108488169591933
 30
0.0
 11
-98.33011953642524
 21
18.198560161516124
 31
0.0
  0
ARC
  5
21C
330
17
100
AcDbEntity
  8
0
100
AcDbCircle
 10
0.0
 20
0.0
 30
0.0
 40
100.0
100
AcDbArc
 50
-191.35922330097088
 51
-190.48543689320388
  0
ARC
  5
21D
330
17
100
AcDbEntity
  8
0
100
AcDbCircle
 10
0.0
 20
0.0
 30
0.0
 40
100.0
100
AcDbArc
 50
-192.23300970873788
 51
-191.35922330097088
  0
ARC
  5
21E
330
17
100
AcDbEntity
  8
0
100
AcDbCircle
 10
0.0
 20
0.0
 30
0.0
 40
100.0
100
AcDbArc
 50
-193.10679611650482
 51
-192.23300970873782
  0
ARC
  5
21F
330
17
100
AcDbEntity
  8
0
100
AcDbCircle
 10
0.0
 20
0.0
 30
0.0
 40
100.0
100
AcDbArc
 50
-193.98058252427182
 51
-193.10679611650482
  0
ARC
  5
220
330
17
100
AcDbEntity
  8
0
100
AcDbCircle
 10
0.0
 20
0.0
 30
0.0
 40
100.0
100
AcDbArc
 50
-194.85436893203882
 51
-193.98058252427182
  0
LINE
  5
221
330
17
100
AcDbEntity
  8
0
100
AcDbLine
 10
-96.658055656576
 20
25.636307781938015
 30
0.0
 11
-101.4909584394048
 21
26.918123171034917
 31
0.0
  0
ARC
  5
222
330
17
100
AcDbEntity
  8
0
100
AcDbCircle
 10
0.0
 20
0.0
 30
0.0
 40
105.0
100
AcDbArc
 50
-195.72815533980582
 51
-194.85436893203882
  0
LINE
  5
223
330
17
100
AcDbEntity
  8
0
100
AcDbLine
 10
-101.06865890346918
 20
28.462715742778315
 30
0.0
 11
-96.25586562235159
 21
27.107348326455536
 31
0.0
  0
ARC
  5
224
330
17
100
AcDbEntity
  8
0
100
AcDbCircle
 10
0.0
 20
0.0
 30
0.0
 40
100.0
100
AcDbArc
 50
-196.60194174757282
 51
-195.72815533980582
  0
LINE
  5
225
330
17
100
AcDbEntity
  8
0
100
AcDbLine
 10
-95.83128919679214
 20
28.572084468599613
 30
0.0
 11
-100.62285365663175
 21
30.00068869202959
 31
0.0
  0
ARC
  5
226
330
17
100
AcDbEntity
  8
0
100
AcDbCircle
 10
0.0
 20
0.0
 30
0.0
 40
105.0
100
AcDbArc
 50
-197.47572815533982
 51
-196.60194174757282
  0
ARC
  5
227
330
17
100
AcDbEntity
  8
0
100
AcDbCircle
 10
0.0
 20
0.0
 30
0.0
 40
105.0
100
AcDbArc
 50
-198.34951456310677
 51
-197.47572815533977
  0
LINE
  5
228
330
17
100
AcDbEntity
  8
0
100
AcDbLine
 10
-99.66114619965711
 20
33.05534658978135
 30
0.0
 11
-94.91537733300677
 21
31.481282466458428
 31
0.0
  0
ARC
  5
229
330
17
100
AcDbEntity
  8
0
100
AcDbCircle
 10
0.0
 20
0.0
 30
0.0
 40
100.0
100
AcDbArc
 50
-199.22330097087377
 51
-198.34951456310677
  0
ARC
  5
22A
330
17
100
AcDbEntity
  8
0
100
AcDbCircle
 10
0.0
 20
0.0
 30
0.0
 40
100.0
100
AcDbArc
 50
-200.09708737864077
 51
-199.22330097087377
  0
ARC
  5
22B
330
17
100
AcDbEntity
  8
0
100
AcDbCircle
 10
0.0
 20
0.0
 30
0.0
 40
100.0
100
AcDbArc
 50
-200.97087378640776
 51
-200.09708737864077
  0
ARC
  5
22C
330
17
100
AcDbEntity
  8
0
100
AcDbCircle
 10
0.0
 20
0.0
 30
0.0
 40
100.0
100
AcDbArc
 50
-201.84466019417476
 51
-200.97087378640776
  0
ARC
  5
22D
330
17
100
AcDbEntity
  8
0
100
AcDbCircle
 10
0.0
 20
0.0
 30
0.0
 40
100.0
100
AcDbArc
 50
-202.71844660194176
 51
-201.84466019417476
  0
ARC
  5
22E
330
17
100
AcDbEntity
  8
0
100
AcDbCircle
 10
0.0
 20
0.0
 30
0.0
 40
100.0
100
AcDbArc
 50
-203.5922330097087
 51
-202.7184466019417
  0
ARC
  5
22F
330
17
100
AcDbEntity
  8
0
100
AcDbCircle
 10
0.0
 20
0.0
 30
0.0
 40
100.0
100
AcDbArc
 50
-204.4660194174757
 51
-203.5922330097087
  0
LINE
  5
230
330
17
100
AcDbEntity
  8
0
100
AcDbLine
 10
-91.0207054214133
 20
41.415349625329796
 30
0.0
 11
-95.57174069248396
 21
43.48611710659628
 31
0.0
  0
ARC
  5
231
330
17
100
AcDbEntity
  8
0
100
AcDbCircle
 10
0.0
 20
0.0
 30
0.0
 40
105.0
100
AcDbArc
 50
-205.3398058252427
 51
-204.4660194174757
  0
LINE
  5
232
330
17
100
AcDbEntity
  8
0
100
AcDbLine
 10
-94.8974699124986
 20
44.93851582113524
 30
0.0
 11
-90.37854277380819
 21
42.798586496319274
 31
0.0
  0
ARC
  5
233
330
17
100
AcDbEntity
  8
0
100
AcDbCircle
 10
0.0
 20
0.0
 30
0.0
 40
100.0
100
AcDbArc
 50
-206.2135922330097
 51
-205.3398058252427
  0
LINE
  5
234
330
17
100
AcDbEntity
  8
0
100
AcDbLine
 10
-89.71536063389743
 20
44.171869626830684
 30
0.0
 11
-94.20112866559231
 21
46.38046310817222
 31
0.0
  0
ARC
  5
235
330
17
100
AcDbEntity
  8
0
100
AcDbCircle
 10
0.0
 20
0.0
 30
0.0
 40
105.0
100
AcDbArc
 50
-207.0873786407767
 51
-206.2135922330097
  0
LINE
  5
236
330
17
100
AcDbEntity
  8
0
100
AcDbLine
 10
-93.48287890104005
 20
47.81162361155998
 30
0.0
 11
-89.03131323908576
 21
45.53487963005713
 31
0.0
  0
ARC
  5
237
330
17
100
AcDbEntity
  8
0
100
AcDbCircle
 10
0.0
 20
0.0
 30
0.0
 40
100.0
100
AcDbArc
 50
-207.9611650485437
 51
-207.0873786407767
  0
LINE
  5
238
330
17
100
AcDbEntity
  8
0
100
AcDbLine
 10
-88.32655967944606
 20
46.88729950843033
 30
0.0
 11
-92.74288766341837
 21
49.231664483851844
 31
0.0
  0
ARC
  5
239
330
17
100
AcDbEntity
  8
0
100
AcDbCircle
 10
0.0
 20
0.0
 30
0.0
 40
105.0
100
AcDbArc
 50
-208.83495145631065
 51
-207.96116504854365
  0
LINE
  5
23A
330
17
100
AcDbEntity
  8
0
100
AcDbLine
 10
-91.98132705375534
 20
50.64025546371282
 30
0.0
 11
-87.60126386071937
 21
48.228814727345544
 31
0.0
  0
ARC
  5
23B
330
17
100
AcDbEntity
  8
0
100
AcDbCircle
 10
0.0
 20
0.0
 30
0.0
 40
100.0
100
AcDbArc
 50
-209.70873786407765
 51
-208.83495145631065
  0
LINE
  5
23C
330
17
100
AcDbEntity
  8
0
100
AcDbLine
 10
-86.8555944661949
 20
49.55911328831352
 30
0.0
 11
-91.19837418950465
 21
52.0370689527292
 31
0.0
  0
ARC
  5
23D
330
17
100
AcDbEntity
  8
0
100
AcDbCircle
 10
0.0
 20
0.0
 30
0.0
 40
105.0
100
AcDbArc
 50
-210.58252427184465
 51
-209.70873786407765
  0
LINE
  5
23E
330
17
100
AcDbEntity
  8
0
100
AcDbLine
 10
-90.39421116335345
 20
53.421780091598116
 30
0.0
 11
-86.08972491747947
 21
50.87788580152201
 31
0.0
  0
ARC
  5
23F
330
17
100
AcDbEntity
  8
0
100
AcDbCircle
 10
0.0
 20
0.0
 30
0.0
 40
100.0
100
AcDbArc
 50
-211.45631067961165
 51
-210.58252427184465
  0
ARC
  5
240
330
17
100
AcDbEntity
  8
0
100
AcDbCircle
 10
0.0
 20
0.0
 30
0.0
 40
100.0
100
AcDbArc
 50
-212.33009708737865
 51
-211.45631067961165
  0
LINE
  5
241
330
17
100
AcDbEntity
  8
0
100
AcDbLine
 10
-84.498102492399
 20
53.4796285999074
 30
0.0
 11
-88.72300761701895
 21
56.15361002990277
 31
0.0
  0
ARC
  5
242
330
17
100
AcDbEntity
  8
0
100
AcDbCircle
 10
0.0
 20
0.0
 30
0.0
 40
105.0
100
AcDbArc
 50
-213.20388349514565
 51
-212.33009708737865
  0
LINE
  5
243
330
17
100
AcDbEntity
  8
0
100
AcDbLine
 10
-87.8563557715034
 20
57.50009348297637
 30
0.0
 11
-83.67271978238419
 21
54.76199379331083
 31
0.0
  0
ARC
  5
244
330
17
100
AcDbEntity
  8
0
100
AcDbCircle
 10
0.0
 20
0.0
 30
0.0
 40
100.0
100
AcDbArc
 50
-214.0776699029126
 51
-213.2038834951456
  0
LINE
  5
245
330
17
100
AcDbEntity
  8
0
100
AcDbLine
 10
-82.82787716478872
 20
56.031622896134934
 30
0.0
 11
-86.96927102302814
 21
58.83320404094168
 31
0.0
  0
ARC
  5
246
330
17
100
AcDbEntity
  8
0
100
AcDbCircle
 10
0.0
 20
0.0
 30
0.0
 40
105.0
100
AcDbArc
 50
-214.9514563106796
 51
-214.0776699029126
  0
LINE
  5
247
330
17
100
AcDbEntity
  8
0
100
AcDbLine
 10
-86.06195968241053
 20
60.15263165999592
 30
0.0
 11
-81.96377112610527
 21
57.288220628567544
 31
0.0
  0
ARC
  5
248
330
17
100
AcDbEntity
  8
0
100
AcDbCircle
 10
0.0
 20
0.0
 30
0.0
 40
100.0
100
AcDbArc
 50
-215.8252427184466
 51
-214.9514563106796
  0
LINE
  5
249
330
17
100
AcDbEntity
  8
0
100
AcDbLine
 10
-81.08060263295364
 20
58.531494741524185
 30
0.0
 11
-85.13463276460132
 21
61.45806947860039
 31
0.0
  0
ARC
  5
24A
330
17
100
AcDbEntity
  8
0
100
AcDbCircle
 10
0.0
 20
0.0
 30
0.0
 40
105.0
100
AcDbArc
 50
-216.6990291262136
 51
-215.8252427184466
  0
LINE
  5
24B
330
17
100
AcDbEntity
  8
0
100
AcDbLine
 10
-84.18750593960812
 20
62.74921388884843
 30
0.0
 11
-80.17857708534106
 21
59.761156084617554
 31
0.0
  0
ARC
  5
24C
330
17
100
AcDbEntity
  8
0
100
AcDbCircle
 10
0.0
 20
0.0
 30
0.0
 40
100.0
100
AcDbArc
 50
-217.5728155339806
 51
-216.6990291262136
  0
ARC
  5
24D
330
17
100
AcDbEntity
  8
0
100
AcDbCircle
 10
0.0
 20
0.0
 30
0.0
 40
100.0
100
AcDbArc
 50
-218.4466019417476
 51
-217.5728155339806
  0
ARC
  5
24E
330
17
100
AcDbEntity
  8
0
100
AcDbCircle
 10
0.0
 20
0.0
 30
0.0
 40
100.0
100
AcDbArc
 50
-219.32038834951453
 51
-218.44660194174753
  0
ARC
  5
24F
330
17
100
AcDbEntity
  8
0
100
AcDbCircle
 10
0.0
 20
0.0
 30
0.0
 40
100.0
100
AcDbArc
 50
-220.19417475728153
 51
-219.32038834951453
  0
LINE
  5
250
330
17
100
AcDbEntity
  8
0
100
AcDbLine
 10
-76.38616481539452
 20
64.53800295016406
 30
0.0
 11
-80.20547305616425
 21
67.76490309767226
 31
0.0
  0
ARC
  5
251
330
17
100
AcDbEntity
  8
0
100
AcDbCircle
 10
0.0
 20
0.0
 30
0.0
 40
105.0
100
AcDbArc
 50
-221.06796116504853
 51
-220.19417475728153
  0
LINE
  5
252
330
17
100
AcDbEntity
  8
0
100
AcDbLine
 10
-79.16274110161173
 20
68.9801451236455
 30
0.0
 11
-75.39308676343974
 21
65.6953763082338
 31
0.0
  0
ARC
  5
253
330
17
100
AcDbEntity
  8
0
100
AcDbCircle
 10
0.0
 20
0.0
 30
0.0
 40
100.0
100
AcDbArc
 50
-221.94174757281553
 51
-221.06796116504853
  0
LINE
  5
254
330
17
100
AcDbEntity
  8
0
100
AcDbLine
 10
-74.38247441231962
 20
66.83747078024884
 30
0.0
 11
-78.1015981329356
 21
70.17934431926129
 31
0.0
  0
ARC
  5
255
330
17
100
AcDbEntity
  8
0
100
AcDbCircle
 10
0.0
 20
0.0
 30
0.0
 40
105.0
100
AcDbArc
 50
-222.81553398058253
 51
-221.94174757281553
  0
LINE
  5
256
330
17
100
AcDbEntity
  8
0
100
AcDbLine
 10
-77.02229094197136
 20
71.36222178471125
 30
0.0
 11
-73.35456280187749
 21
67.96402074734405
 31
0.0
  0
ARC
  5
257
330
17
100
AcDbEntity
  8
0
100
AcDbCircle
 10
0.0
 20
0.0
 30
0.0
 40
100.0
100
AcDbArc
 50
-223.68932038834953
 51
-222.81553398058253
  0
ARC
  5
258
330
17
100
AcDbEntity
  8
0
100
AcDbCircle
 10
0.0
 20
0.0
 30
0.0
 40
100.0
100
AcDbArc
 50
-224.56310679611647
 51
-223.68932038834947
  0
LINE
  5
259
330
17
100
AcDbEntity
  8
0
100
AcDbLine
 10
-71.24780202339323
 20
70.16944282830926
 30
0.0
 11
-74.8101921245629
 21
73.67791496972472
 31
0.0
  0
ARC
  5
25A
330
17
100
AcDbEntity
  8
0
100
AcDbCircle
 10
0.0
 20
0.0
 30
0.0
 40
105.0
100
AcDbArc
 50
-225.43689320388347
 51
-224.56310679611647
  0
LINE
  5
25B
330
17
100
AcDbEntity
  8
0
100
AcDbLine
 10
-73.67791496972481
 20
74.81019212456282
 30
0.0
 11
-70.16944282830934
 21
71.24780202339316
 31
0.0
  0
ARC
  5
25C
330
17
100
AcDbEntity
  8
0
100
AcDbCircle
 10
0.0
 20
0.0
 30
0.0
 40
100.0
100
AcDbArc
 50
-226.31067961165047
 51
-225.43689320388347
  0
ARC
  5
25D
330
17
100
AcDbEntity
  8
0
100
AcDbCircle
 10
0.0
 20
0.0
 30
0.0
 40
100.0
100
AcDbArc
 50
-227.18446601941747
 51
-226.31067961165047
  0
ARC
  5
25E
330
17
100
AcDbEntity
  8
0
100
AcDbCircle
 10
0.0
 20
0.0
 30
0.0
 40
100.0
100
AcDbArc
 50
-228.05825242718447
 51
-227.18446601941747
  0
LINE
  5
25F
330
17
100
AcDbEntity
  8
0
100
AcDbLine
 10
-66.83747078024886
 20
74.3824744123196
 30
0.0
 11
-70.1793443192613
 21
78.10159813293558
 31
0.0
  0
ARC
  5
260
330
17
100
AcDbEntity
  8
0
100
AcDbCircle
 10
0.0
 20
0.0
 30
0.0
 40
105.0
100
AcDbArc
 50
-228.93203883495147
 51
-228.05825242718447
  0
LINE
  5
261
330
17
100
AcDbEntity
  8
0
100
AcDbLine
 10
-68.98014512364549
 20
79.16274110161173
 30
0.0
 11
-65.6953763082338
 21
75.39308676343974
 31
0.0
  0
ARC
  5
262
330
17
100
AcDbEntity
  8
0
100
AcDbCircle
 10
0.0
 20
0.0
 30
0.0
 40
100.0
100
AcDbArc
 50
-229.8058252427184
 51
-228.9320388349514
  0
LINE
  5
263
330
17
100
AcDbEntity
  8
0
100
AcDbLine
 10
-64.53800295016414
 20
76.38616481539444
 30
0.0
 11
-67.76490309767235
 21
80.20547305616417
 31
0.0
  0
ARC
  5
264
330
17
100
AcDbEntity
  8
0
100
AcDbCircle
 10
0.0
 20
0.0
 30
0.0
 40
105.0
100
AcDbArc
 50
-230.6796116504854
 51
-229.8058252427184
  0
LINE
  5
265
330
17
100
AcDbEntity
  8
0
100
AcDbLine
 10
-66.53390087225861
 20
81.22955148663856
 30
0.0
 11
-63.36561987834154
 21
77.36147760632244
 31
0.0
  0
ARC
  5
266
330
17
100
AcDbEntity
  8
0
100
AcDbCircle
 10
0.0
 20
0.0
 30
0.0
 40
100.0
100
AcDbArc
 50
-231.5533980582524
 51
-230.6796116504854
  0
ARC
  5
267
330
17
100
AcDbEntity
  8
0
100
AcDbCircle
 10
0.0
 20
0.0
 30
0.0
 40
100.0
100
AcDbArc
 50
-232.4271844660194
 51
-231.5533980582524
  0
ARC
  5
268
330
17
100
AcDbEntity
  8
0
100
AcDbCircle
 10
0.0
 20
0.0
 30
0.0
 40
100.0
100
AcDbArc
 50
-233.3009708737864
 51
-232.4271844660194
  0
LINE
  5
269
330
17
100
AcDbEntity
  8
0
100
AcDbLine
 10
-59.76115608461754
 20
80.17857708534106
 30
0.0
 11
-62.749213888848416
 21
84.18750593960812
 31
0.0
  0
ARC
  5
26A
330
17
100
AcDbEntity
  8
0
100
AcDbCircle
 10
0.0
 20
0.0
 30
0.0
 40
105.0
100
AcDbArc
 50
-234.1747572815534
 51
-233.3009708737864
  0
LINE
  5
26B
330
17
100
AcDbEntity
  8
0
100
AcDbLine
 10
-61.45806947860038
 20
85.13463276460132
 30
0.0
 11
-58.53149474152417
 21
81.08060263295364
 31
0.0
  0
ARC
  5
26C
330
17
100
AcDbEntity
  8
0
100
AcDbCircle
 10
0.0
 20
0.0
 30
0.0
 40
100.0
100
AcDbArc
 50
-235.04854368932035
 51
-234.17475728155335
  0
ARC
  5
26D
330
17
100
AcDbEntity
  8
0
100
AcDbCircle
 10
0.0
 20
0.0
 30
0.0
 40
100.0
100
AcDbArc
 50
-235.92233009708735
 51
-235.04854368932035
  0
LINE
  5
26E
330
17
100
AcDbEntity
  8
0
100
AcDbLine
 10
-56.03162289613503
 20
82.82787716478865
 30
0.0
 11
-58.83320404094179
 21
86.96927102302807
 31
0.0
  0
ARC
  5
26F
330
17
100
AcDbEntity
  8
0
100
AcDbCircle
 10
0.0
 20
0.0
 30
0.0
 40
105.0
100
AcDbArc
 50
-236.79611650485435
 51
-235.92233009708735
  0
LINE
  5
270
330
17
100
AcDbEntity
  8
0
100
AcDbLine
 10
-57.500093482976354
 20
87.8563557715034
 30
0.0
 11
-54.761993793310815
 21
83.67271978238419
 31
0.0
  0
ARC
  5
271
330
17
100
AcDbEntity
  8
0
100
AcDbCircle
 10
0.0
 20
0.0
 30
0.0
 40
100.0
100
AcDbArc
 50
-237.66990291262135
 51
-236.79611650485435
  0
LINE
  5
272
330
17
100
AcDbEntity
  8
0
100
AcDbLine
 10
-53.47962859990739
 20
84.49810249239901
 30
0.0
 11
-56.15361002990276
 21
88.72300761701896
 31
0.0
  0
ARC
  5
273
330
17
100
AcDbEntity
  8
0
100
AcDbCircle
 10
0.0
 20
0.0
 30
0.0
 40
105.0
100
AcDbArc
 50
-238.54368932038835
 51
-237.66990291262135
  0
LINE
  5
274
330
17
100
AcDbEntity
  8
0
100
AcDbLine
 10
-54.79406683568126
 20
89.56902500087234
 30
0.0
 11
-52.18482555779167
 21
85.30383333416414
 31
0.0
  0
ARC
  5
275
330
17
100
AcDbEntity
  8
0
100
AcDbCircle
 10
0.0
 20
0.0
 30
0.0
 40
100.0
100
AcDbArc
 50
-239.41747572815535
 51
-238.54368932038835
  0
ARC
  5
276
330
17
100
AcDbEntity
  8
0
100
AcDbCircle
 10
0.0
 20
0.0
 30
0.0
 40
100.0
100
AcDbArc
 50
-240.2912621359223
 51
-239.4174757281553
  0
ARC
  5
277
330
17
100
AcDbEntity
  8
0
100
AcDbCircle
 10
0.0
 20
0.0
 30
0.0
 40
100.0
100
AcDbArc
 50
-241.1650485436893
 51
-240.2912621359223
  0
ARC
  5
278
330
17
100
AcDbEntity
  8
0
100
AcDbCircle
 10
0.0
 20
0.0
 30
0.0
 40
100.0
100
AcDbArc
 50
-242.0388349514563
 51
-241.1650485436893
  0
ARC
  5
279
330
17
100
AcDbEntity
  8
0
100
AcDbCircle
 10
0.0
 20
0.0
 30
0.0
 40
100.0
100
AcDbArc
 50
-242.9126213592233
 51
-242.0388349514563
  0
ARC
  5
27A
330
17
100
AcDbEntity
  8
0
100
AcDbCircle
 10
0.0
 20
0.0
 30
0.0
 40
100.0
100
AcDbArc
 50
-243.7864077669903
 51
-242.9126213592233
  0
LINE
  5
27B
330
17
100
AcDbEntity
  8
0
100
AcDbLine
 10
-44.17186962683067
 20
89.71536063389743
 30
0.0
 11
-46.38046310817221
 21
94.20112866559231
 31
0.0
  0
ARC
  5
27C
330
17
100
AcDbEntity
  8
0
100
AcDbCircle
 10
0.0
 20
0.0
 30
0.0
 40
105.0
100
AcDbArc
 50
-244.6601941747573
 51
-243.7864077669903
  0
LINE
  5
27D
330
17
100
AcDbEntity
  8
0
100
AcDbLine
 10
-44.93851582113527
 20
94.8974699124986
 30
0.0
 11
-42.7985864963193
 21
90.37854277380818
 31
0.0
  0
ARC
  5
27E
330
17
100
AcDbEntity
  8
0
100
AcDbCircle
 10
0.0
 20
0.0
 30
0.0
 40
100.0
100
AcDbArc
 50
-245.53398058252424
 51
-244.66019417475724
  0
ARC
  5
27F
330
17
100
AcDbEntity
  8
0
100
AcDbCircle
 10
0.0
 20
0.0
 30
0.0
 40
100.0
100
AcDbArc
 50
-246.40776699029124
 51
-245.53398058252424
  0
LINE
  5
280
330
17
100
AcDbEntity
  8
0
100
AcDbLine
 10
-40.022480715627815
 20
91.64169922784714
 30
0.0
 11
-42.0236047514092
 21
96.2237841892395
 31
0.0
  0
ARC
  5
281
330
17
100
AcDbEntity
  8
0
100
AcDbCircle
 10
0.0
 20
0.0
 30
0.0
 40
105.0
100
AcDbArc
 50
-247.28155339805824
 51
-246.40776699029124
  0
LINE
  5
282
330
17
100
AcDbEntity
  8
0
100
AcDbLine
 10
-40.551318894574244
 20
96.85344875589381
 30
0.0
 11
-38.62030370911833
 21
92.24137976751791
 31
0.0
  0
ARC
  5
283
330
17
100
AcDbEntity
  8
0
100
AcDbCircle
 10
0.0
 20
0.0
 30
0.0
 40
100.0
100
AcDbArc
 50
-248.15533980582524
 51
-247.28155339805824
  0
ARC
  5
284
330
17
100
AcDbEntity
  8
0
100
AcDbCircle
 10
0.0
 20
0.0
 30
0.0
 40
100.0
100
AcDbArc
 50
-249.02912621359224
 51
-248.15533980582524
  0
LINE
  5
285
330
17
100
AcDbEntity
  8
0
100
AcDbLine
 10
-35.789331921454185
 20
93.37624816095355
 30
0.0
 11
-37.57879851752689
 21
98.04506056900122
 31
0.0
  0
ARC
  5
286
330
17
100
AcDbEntity
  8
0
100
AcDbCircle
 10
0.0
 20
0.0
 30
0.0
 40
105.0
100
AcDbArc
 50
-249.90291262135923
 51
-249.02912621359224
  0
LINE
  5
287
330
17
100
AcDbEntity
  8
0
100
AcDbLine
 10
-36.079255321463826
 20
98.60673068025642
 30
0.0
 11
-34.36119554425126
 21
93.9111720764347
 31
0.0
  0
ARC
  5
288
330
17
100
AcDbEntity
  8
0
100
AcDbCircle
 10
0.0
 20
0.0
 30
0.0
 40
100.0
100
AcDbArc
 50
-250.77669902912618
 51
-249.90291262135918
  0
ARC
  5
289
330
17
100
AcDbEntity
  8
0
100
AcDbCircle
 10
0.0
 20
0.0
 30
0.0
 40
100.0
100
AcDbArc
 50
-251.65048543689318
 51
-250.77669902912618
  0
ARC
  5
28A
330
17
100
AcDbEntity
  8
0
100
AcDbCircle
 10
0.0
 20
0.0
 30
0.0
 40
100.0
100
AcDbArc
 50
-252.52427184466018
 51
-251.65048543689318
  0
ARC
  5
28B
330
17
100
AcDbEntity
  8
0
100
AcDbCircle
 10
0.0
 20
0.0
 30
0.0
 40
100.0
100
AcDbArc
 50
-253.39805825242718
 51
-252.52427184466018
  0
ARC
  5
28C
330
17
100
AcDbEntity
  8
0
100
AcDbCircle
 10
0.0
 20
0.0
 30
0.0
 40
100.0
100
AcDbArc
 50
-254.27184466019418
 51
-253.39805825242718
  0
LINE
  5
28D
330
17
100
AcDbEntity
  8
0
100
AcDbLine
 10
-27.107348326455565
 20
96.25586562235159
 30
0.0
 11
-28.462715742778343
 21
101.06865890346917
 31
0.0
  0
ARC
  5
28E
330
17
100
AcDbEntity
  8
0
100
AcDbCircle
 10
0.0
 20
0.0
 30
0.0
 40
105.0
100
AcDbArc
 50
-255.14563106796118
 51
-254.27184466019418
  0
LINE
  5
28F
330
17
100
AcDbEntity
  8
0
100
AcDbLine
 10
-26.918123171034907
 20
101.4909584394048
 30
0.0
 11
-25.636307781938005
 21
96.658055656576
 31
0.0
  0
ARC
  5
290
330
17
100
AcDbEntity
  8
0
100
AcDbCircle
 10
0.0
 20
0.0
 30
0.0
 40
100.0
100
AcDbArc
 50
-256.0194174757281
 51
-255.14563106796112
  0
ARC
  5
291
330
17
100
AcDbEntity
  8
0
100
AcDbCircle
 10
0.0
 20
0.0
 30
0.0
 40
100.0
100
AcDbArc
 50
-256.8932038834951
 51
-256.0194174757281
  0
ARC
  5
292
330
17
100
AcDbEntity
  8
0
100
AcDbCircle
 10
0.0
 20
0.0
 30
0.0
 40
100.0
100
AcDbArc
 50
-257.7669902912621
 51
-256.8932038834951
  0
LINE
  5
293
330
17
100
AcDbEntity
  8
0
100
AcDbLine
 10
-21.188787811702163
 20
97.72939819251249
 30
0.0
 11
-22.24822720228727
 21
102.61586810213811
 31
0.0
  0
ARC
  5
294
330
17
100
AcDbEntity
  8
0
100
AcDbCircle
 10
0.0
 20
0.0
 30
0.0
 40
105.0
100
AcDbArc
 50
-258.6407766990291
 51
-257.7669902912621
  0
LINE
  5
295
330
17
100
AcDbEntity
  8
0
100
AcDbLine
 10
-20.68076256610414
 20
102.94321764781023
 30
0.0
 11
-19.695964348670607
 21
98.04115966458117
 31
0.0
  0
ARC
  5
296
330
17
100
AcDbEntity
  8
0
100
AcDbCircle
 10
0.0
 20
0.0
 30
0.0
 40
100.0
100
AcDbArc
 50
-259.5145631067961
 51
-258.6407766990291
  0
ARC
  5
297
330
17
100
AcDbEntity
  8
0
100
AcDbCircle
 10
0.0
 20
0.0
 30
0.0
 40
100.0
100
AcDbArc
 50
-260.3883495145631
 51
-259.5145631067961
  0
ARC
  5
298
330
17
100
AcDbEntity
  8
0
100
AcDbCircle
 10
0.0
 20
0.0
 30
0.0
 40
100.0
100
AcDbArc
 50
-261.26213592233006
 51
-260.38834951456306
  0
ARC
  5
299
330
17
100
AcDbEntity
  8
0
100
AcDbCircle
 10
0.0
 20
0.0
 30
0.0
 40
100.0
100
AcDbArc
 50
-262.13592233009706
 51
-261.26213592233006
  0
LINE
  5
29A
330
17
100
AcDbEntity
  8
0
100
AcDbLine
 10
-13.682350634391035
 20
99.05954411926989
 30
0.0
 11
-14.366468166110588
 21
104.0125213252334
 31
0.0
  0
ARC
  5
29B
330
17
100
AcDbEntity
  8
0
100
AcDbCircle
 10
0.0
 20
0.0
 30
0.0
 40
105.0
100
AcDbArc
 50
-263.00970873786406
 51
-262.13592233009706
  0
LINE
  5
29C
330
17
100
AcDbEntity
  8
0
100
AcDbLine
 10
-12.7786213028074
 20
104.21951274881033
 30
0.0
 11
-12.170115526483238
 21
99.25667880839079
 31
0.0
  0
ARC
  5
29D
330
17
100
AcDbEntity
  8
0
100
AcDbCircle
 10
0.0
 20
0.0
 30
0.0
 40
100.0
100
AcDbArc
 50
-263.88349514563106
 51
-263.00970873786406
  0
ARC
  5
29E
330
17
100
AcDbEntity
  8
0
100
AcDbCircle
 10
0.0
 20
0.0
 30
0.0
 40
100.0
100
AcDbArc
 50
-264.75728155339806
 51
-263.88349514563106
  0
ARC
  5
29F
330
17
100
AcDbEntity
  8
0
100
AcDbCircle
 10
0.0
 20
0.0
 30
0.0
 40
100.0
100
AcDbArc
 50
-265.63106796116506
 51
-264.75728155339806
  0
ARC
  5
2A0
330
17
100
AcDbEntity
  8
0
100
AcDbCircle
 10
0.0
 20
0.0
 30
0.0
 40
100.0
100
AcDbArc
 50
-266.504854368932
 51
-265.631067961165
  0
ARC
  5
2A1
330
17
100
AcDbEntity
  8
0
100
AcDbCircle
 10
0.0
 20
0.0
 30
0.0
 40
100.0
100
AcDbArc
 50
-267.378640776699
 51
-266.504854368932
  0
ARC
  5
2A2
330
17
100
AcDbEntity
  8
0
100
AcDbCircle
 10
0.0
 20
0.0
 30
0.0
 40
100.0
100
AcDbArc
 50
-268.252427184466
 51
-267.378640776699
  0
ARC
  5
2A3
330
17
100
AcDbEntity
  8
0
100
AcDbCircle
 10
0.0
 20
0.0
 30
0.0
 40
100.0
100
AcDbArc
 50
-269.126213592233
 51
-268.252427184466
  0
ARC
  5
2A4
330
17
100
AcDbEntity
  8
0
100
AcDbCircle
 10
0.0
 20
0.0
 30
0.0
 40
100.0
100
AcDbArc
 50
-270.0
 51
-269.126213592233
  0
ENDSEC
  0
SECTION
  2
OBJECTS
  0
DICTIONARY
  5
A
330
0
100
AcDbDictionary
281
1
  3
ACAD_COLOR
350
B
  3
ACAD_GROUP
350
C
  3
ACAD_LAYOUT
350
D
  3
ACAD_MATERIAL
350
E
  3
ACAD_MLEADERSTYLE
350
F
  3
ACAD_MLINESTYLE
350
10
  3
ACAD_PLOTSETTINGS
350
11
  3
ACAD_PLOTSTYLENAME
350
12
  3
ACAD_SCALELIST
350
14
  3
ACAD_TABLESTYLE
350
15
  3
ACAD_VISUALSTYLE
350
16
  3
EZDXF_META
350
2D
  0
DICTIONARY
  5
B
330
A
100
AcDbDictionary
281
1
  0
DICTIONARY
  5
C
330
A
100
AcDbDictionary
281
1
  0
DICTIONARY
  5
D
330
A
100
AcDbDictionary
281
1
  3
Model
350
1A
  3
Layout1
350
1E
  0
DICTIONARY
  5
E
330
A
100
AcDbDictionary
281
1
  3
ByBlock
350
1F
  3
ByLayer
350
20
  3
Global
350
21
  0
DICTIONARY
  5
F
330
A
100
AcDbDictionary
281
1
  3
Standard
350
2C
  0
DICTIONARY
  5
10
330
A
100
AcDbDictionary
281
1
  3
Standard
350
22
  0
DICTIONARY
  5
11
330
A
100
AcDbDictionary
281
1
  0
ACDBDICTIONARYWDFLT
  5
12
330
A
100
AcDbDictionary
281
1
  3
Normal
350
13
100
AcDbDictionaryWithDefault
340
13
  0
ACDBPLACEHOLDER
  5
13
330
12
  0
DICTIONARY
  5
14
330
A
100
AcDbDictionary
281
1
  0
DICTIONARY
  5
15
330
A
100
AcDbDictionary
281
1
  0
DICTIONARY
  5
16
330
A
100
AcDbDictionary
281
1
  0
LAYOUT
  5
1A
330
D
100
AcDbPlotSettings
  1

  4
A3
  6

 40
7.5
 41
20.0
 42
7.5
 43
20.0
 44
420.0
 45
297.0
 46
0.0
 47
0.0
 48
0.0
 49
0.0
140
0.0
141
0.0
142
1.0
143
1.0
 70
1024
 72
1
 73
0
 74
5
  7

 75
16
 76
0
 77
2
 78
300
147
1.0
148
0.0
149
0.0
100
AcDbLayout
  1
Model
 70
1
 71
0
 10
0.0
 20
0.0
 11
420.0
 21
297.0
 12
0.0
 22
0.0
 32
0.0
 14
1e+20
 24
1e+20
 34
1e+20
 15
-1e+20
 25
-1e+20
 35
-1e+20
146
0.0
 13
0.0
 23
0.0
 33
0.0
 16
1.0
 26
0.0
 36
0.0
 17
0.0
 27
1.0
 37
0.0
 76
1
330
17
  0
LAYOUT
  5
1E
330
D
100
AcDbPlotSettings
  1

  4
A3
  6

 40
7.5
 41
20.0
 42
7.5
 43
20.0
 44
420.0
 45
297.0
 46
0.0
 47
0.0
 48
0.0
 49
0.0
140
0.0
141
0.0
142
1.0
143
1.0
 70
0
 72
1
 73
0
 74
5
  7

 75
16
 76
0
 77
2
 78
300
147
1.0
148
0.0
149
0.0
100
AcDbLayout
  1
Layout1
 70
1
 71
1
 10
0.0
 20
0.0
 11
420.0
 21
297.0
 12
0.0
 22
0.0
 32
0.0
 14
1e+20
 24
1e+20
 34
1e+20
 15
-1e+20
 25
-1e+20
 35
-1e+20
146
0.0
 13
0.0
 23
0.0
 33
0.0
 16
1.0
 26
0.0
 36
0.0
 17
0.0
 27
1.0
 37
0.0
 76
1
330
1B
  0
MATERIAL
  5
1F
102
{ACAD_REACTORS
330
E
102
}
330
E
100
AcDbMaterial
  1
ByBlock
  2

 70
0
 40
1.0
 71
1
 41
1.0
 91
-1023410177
 42
1.0
 72
1
  3

 73
1
 74
1
 75
1
 44
0.5
 73
0
 45
1.0
 46
1.0
 77
1
  4

 78
1
 79
1
170
1
 48
1.0
171
1
  6

172
1
173
1
174
1
140
1.0
141
1.0
175
1
  7

176
1
177
1
178
1
143
1.0
179
1
  8

270
1
271
1
272
1
145
1.0
146
1.0
273
1
  9

274
1
275
1
276
1
 42
1.0
 72
1
  3

 73
1
 74
1
 75
1
 94
63
  0
MATERIAL
  5
20
102
{ACAD_REACTORS
330
E
102
}
330
E
100
AcDbMaterial
  1
ByLayer
  2

 70
0
 40
1.0
 71
1
 41
1.0
 91
-1023410177
 42
1.0
 72
1
  3

 73
1
 74
1
 75
1
 44
0.5
 73
0
 45
1.0
 46
1.0
 77
1
  4

 78
1
 79
1
170
1
 48
1.0
171
1
  6

172
1
173
1
174
1
140
1.0
141
1.0
175
1
  7

176
1
177
1
178
1
143
1.0
179
1
  8

270
1
271
1
272
1
145
1.0
146
1.0
273
1
  9

274
1
275
1
276
1
 42
1.0
 72
1
  3

 73
1
 74
1
 75
1
 94
63
  0
MATERIAL
  5
21
102
{ACAD_REACTORS
330
E
102
}
330
E
100
AcDbMaterial
  1
Global
  2

 70
0
 40
1.0
 71
1
 41
1.0
 91
-1023410177
 42
1.0
 72
1
  3

 73
1
 74
1
 75
1
 44
0.5
 73
0
 45
1.0
 46
1.0
 77
1
  4

 78
1
 79
1
170
1
 48
1.0
171
1
  6

172
1
173
1
174
1
140
1.0
141
1.0
175
1
  7

176
1
177
1
178
1
143
1.0
179
1
  8

270
1
271
1
272
1
145
1.0
146
1.0
273
1
  9

274
1
275
1
276
1
 42
1.0
 72
1
  3

 73
1
 74
1
 75
1
 94
63
  0
MLINESTYLE
  5
22
102
{ACAD_REACTORS
330
10
102
}
330
10
100
AcDbMlineStyle
  2
Standard
 70
0
  3

 62
256
 51
90.0
 52
90.0
 71
2
 49
0.5
 62
256
  6
BYLAYER
 49
-0.5
 62
256
  6
BYLAYER
  0
MLEADERSTYLE
  5
2C
102
{ACAD_REACTORS
330
F
102
}
330
F
100
AcDbMLeaderStyle
179
2
170
2
171
1
172
0
 90
2
 40
0.0
 41
0.0
173
1
 91
-1056964608
 92
-2
290
1
 42
2.0
291
1
 43
8.0
  3
Standard
 44
4.0
300

342
29
174
1
175
1
176
0
178
1
 93
-1056964608
 45
4.0
292
0
297
0
 46
4.0
 94
-1056964608
 47
1.0
 49
1.0
140
1.0
294
1
141
0.0
177
0
142
1.0
295
0
296
0
143
3.75
271
0
272
9
273
9
  0
DICTIONARY
  5
2D
330
A
100
AcDbDictionary
280
1
281
1
  3
CREATED_BY_EZDXF
350
2E
  3
WRITTEN_BY_EZDXF
350
2A7
  0
DICTIONARYVAR
  5
2E
330
2D
100
DictionaryVariables
280
0
  1
1.4.3 @ 2026-05-14T19:18:31.808143+00:00
  0
DICTIONARYVAR
  5
2A7
330
2D
100
DictionaryVariables
280
0
  1
1.4.3 @ 2026-05-14T19:18:31.814290+00:00
  0
ENDSEC
  0
EOF
